<svg width="48" height="46" viewBox="0 0 48 46" fill="none" xmlns="http://www.w3.org/2000/svg">
<g clip-path="url(#clip0)">
<path d="M22.6647 44.9152C22.2817 45.4877 21.3745 46 20.5359 46C19.7618 46 19.4943 45.9502 18.6006 45.3489C17.633 44.6982 16.6653 42.9623 16.6653 42.9623C16.6653 42.9623 15.3542 40.8901 14.7301 39.4906L13.1819 36.0189C12.986 35.5797 12.2064 33.3395 11.6336 31.8962C11.031 30.3774 10.4398 28.5066 9.28925 27.9906C8.32165 27.5566 8.52338 27.7128 7.18255 27.3396C4.06405 26.4717 2.49303 25.3715 1.95735 24.9528C1.42165 24.5342 0.602702 23.434 0.215632 22.1321C-0.0964312 21.0825 0.0220834 20.0195 0.0220886 19.5283C0.0220931 19.0943 0.245813 17.5077 0.602656 16.7075C0.989712 15.8396 1.37676 15.307 1.76382 14.7547C2.47341 13.7421 3.58961 12.4907 3.69908 12.3679C3.89261 12.1509 4.20696 12.1421 4.08614 12.3679C3.50555 13.4528 2.3444 14.7547 1.57029 16.2736C1.16367 17.0714 0.724034 18.6899 0.989712 20.1792C1.18324 21.2642 1.57028 22.3491 2.53792 23.217C3.1185 23.7377 3.89261 24.3019 6.21491 24.9528C9.05609 25.7492 10.4725 25.6038 11.6336 25.6038C14.343 25.6038 16.0848 25.5263 17.8265 25.3868C20.5359 25.1698 22.0653 24.6966 23.8258 24.3019C24.7935 24.0849 26.7053 23.3704 27.1158 23.217C28.277 22.783 30.5427 21.8227 30.7928 21.6981C32.5345 20.8302 33.3691 20.3624 34.0828 19.9623C35.2439 19.3113 37.138 18.1673 37.3727 18.0094C39.3079 16.7075 39.566 16.5629 40.4691 15.8396L42.4044 14.1038C43.5656 13.0189 44.3562 12.0734 44.9201 11.283C45.6943 10.1981 46.1923 9.14329 46.4686 7.59435C46.6618 6.50942 46.4686 5.20753 46.0812 4.12265C45.7294 3.13559 45.0908 2.36082 44.5331 1.73585C44.2109 1.37478 44.0081 1.08046 43.8912 0.889941C43.796 0.734704 43.7188 0.564512 43.7067 0.382704C43.6808 0 43.9526 0 43.9526 0C44.7268 -5.79397e-06 45.5007 1.08491 46.2749 1.95283C47.0492 3.03774 47.4361 3.68866 47.823 5.42453C48.0167 6.72641 47.8877 7.59435 47.823 8.24529C47.823 8.24529 47.5651 9.98112 46.6618 11.5C46.2749 12.1509 45.6943 12.8019 44.7268 14.3208C44.4083 14.8202 44.0815 15.9119 43.9526 16.4906C42.9479 22.873 42.5981 24.7359 42.4044 25.6038C42.2788 26.1661 41.1142 31.3176 40.4691 33.4151C39.7351 35.8019 38.5339 38.6226 38.5339 38.6226C38.5339 38.8396 37.1787 41.4434 36.018 41.8771C35.4374 42.0942 34.8271 42.1176 34.4698 41.8771C33.5022 41.2264 33.0555 40.4412 30.7928 35.3679C30.5993 34.934 30.1216 33.5982 29.0511 33.1981C27.8899 32.7642 27.1158 33.4151 27.1158 33.4151C26.7287 33.6321 26.0837 34.5 25.5676 35.3679C25.0515 36.2358 24.7935 36.8868 24.2129 39.0566C24.1684 39.2229 23.8259 41.2988 23.6323 42.3112C23.2453 44.0471 23.2453 44.0471 22.6648 44.9148L22.6647 44.9152Z" fill="url(#paint0_linear)"/>
<path d="M15.9557 23C13.7717 23.1749 10.7735 23.1446 9.48326 23L9.18224 21.2642C8.98873 19.7453 8.98873 19.7453 8.79519 17.5755C8.73563 16.9078 8.60164 14.9717 8.60164 14.5377C8.60164 14.1038 8.4081 11.283 8.60164 9.54718C8.71697 8.51255 8.85525 7.70918 8.97546 7.09111C9.10698 6.41491 9.32381 5.75799 9.6043 5.12896L9.79768 4.69535C9.9032 4.4587 10.0306 4.2325 10.1783 4.01969C10.8945 2.98728 12.0391 2.33576 13.291 2.24804L13.4973 2.23358C14.0981 2.19148 14.7014 2.26867 15.2724 2.46073L15.5039 2.53861C16.0599 2.72562 16.5843 2.99605 17.0594 3.34067L19.6326 5.20754L21.869 7.16036L23.6107 8.67924L24.7718 9.54718C25.6535 10.1981 27.4184 11.1206 29.2229 11.5C32.3194 12.1509 33.4805 11.9339 33.8676 11.9339C34.2546 11.9339 35.0287 11.717 35.0287 11.283C35.0287 10.8491 34.3407 10.9214 32.7924 10.6321C31.6313 10.4151 29.5025 9.79127 28.9219 9.54718C28.3413 9.30308 27.1802 8.96854 26.2125 8.24529L27.5919 7.79039C28.8627 7.37138 30.0903 6.83083 31.2578 6.17634L32.2119 5.64152L34.9212 4.12263L35.8896 3.62155C36.9064 3.09534 38.0343 2.82075 39.1788 2.82075L40.1947 2.96312C40.5485 3.01271 40.8959 3.10084 41.2306 3.22594C41.6668 3.38895 42.0877 3.60315 42.4254 3.9244C43.1879 4.65052 43.5018 5.35415 43.63 5.64152C43.7848 5.98866 44.0169 6.72641 44.0169 7.8113C44.0169 8.67924 43.4363 9.98112 42.8557 10.6321C41.8882 11.717 42.0818 11.717 40.9205 12.5849C38.7918 14.1761 37.2436 15.2851 35.3083 16.4906C34.3407 17.0933 32.857 17.8648 31.2442 18.6604C29.6315 19.456 28.5545 19.8826 26.019 20.8302C23.3096 21.8428 21.3744 22.5661 15.9557 23Z" fill="#B0B0B0"/>
</g>
<defs>
<linearGradient id="paint0_linear" x1="-5.00958" y1="14.5378" x2="55.6216" y2="-18.3471" gradientUnits="userSpaceOnUse">
<stop stop-color="#362F1D"/>
<stop offset="0.0440107" stop-color="#4C4023"/>
<stop offset="0.0900167" stop-color="#3B3113"/>
<stop offset="0.129068" stop-color="#4C330A"/>
<stop offset="0.171043" stop-color="#604818"/>
<stop offset="0.217443" stop-color="#7D6131"/>
<stop offset="0.257919" stop-color="#BE995C"/>
<stop offset="0.291121" stop-color="#E8BF7D"/>
<stop offset="0.300607" stop-color="#EDC27E"/>
<stop offset="0.309061" stop-color="#EDC27D"/>
<stop offset="0.326215" stop-color="#E3BC77"/>
<stop offset="0.342976" stop-color="#D9AF66"/>
<stop offset="0.373254" stop-color="#AB8952"/>
<stop offset="0.406382" stop-color="#7A612F"/>
<stop offset="0.432309" stop-color="#6A5123"/>
<stop offset="0.480109" stop-color="#60471C"/>
<stop offset="0.521151" stop-color="#6B5022"/>
<stop offset="0.55799" stop-color="#926E3B"/>
<stop offset="0.601555" stop-color="#C4A262"/>
<stop offset="0.633881" stop-color="#E0C87E"/>
<stop offset="0.662733" stop-color="#A88D51"/>
<stop offset="0.689053" stop-color="#847044"/>
<stop offset="0.734956" stop-color="#5B502D"/>
<stop offset="0.862513" stop-color="#ACABA6"/>
<stop offset="0.870153" stop-color="#3E3633"/>
</linearGradient>
<clipPath id="clip0">
<rect width="48" height="46" fill="white"/>
</clipPath>
</defs>
</svg>
