<svg width="173" height="28" viewBox="0 0 173 28" fill="none" xmlns="http://www.w3.org/2000/svg">
<path d="M70.876 0.138697C72.5897 -0.285303 73.7945 1.48803 74.1871 2.90937C74.1004 2.96537 73.9299 3.08004 73.8459 3.13604C73.7241 2.94937 73.6104 2.7627 73.4994 2.5707C73.142 1.68004 72.5437 0.933367 71.7396 0.392034C71.4499 0.309367 71.1602 0.226697 70.876 0.138697Z" fill="#432E09"/>
<path d="M41.7665 9.07476C41.9642 8.72542 42.243 8.42942 42.549 8.16809C41.9209 9.15742 41.2224 10.2294 41.3496 11.4534C41.4173 12.7814 42.5408 13.7628 43.6942 14.2854C46.3718 15.5468 49.4175 15.2374 52.2955 15.2774L52.041 15.3788C51.735 15.4188 51.4291 15.4454 51.1232 15.4561C50.7631 15.4481 50.403 15.4428 50.0429 15.4374C49.4175 15.4801 48.8003 15.5841 48.1857 15.7014C48.47 16.3948 48.7705 17.1201 49.3986 17.5868C50.2189 18.2081 50.6521 19.1521 51.2315 19.9708C52.8098 21.9388 53.771 24.4108 55.8177 25.9974C55.7311 26.1734 55.6472 26.3521 55.5659 26.5308C56.0045 26.5361 56.4594 26.5441 56.8546 26.3281C56.7057 26.9414 56.2049 27.3468 55.7636 27.7601C54.4992 27.9281 53.4948 27.0268 52.7395 26.1521C50.4382 23.3281 49.1928 19.8668 48.0287 16.4828C45.8628 16.3974 43.6292 15.7814 41.9452 14.3921C40.5076 13.2454 40.5185 11.0028 41.5337 9.59476C41.4362 9.45609 41.3415 9.31209 41.2521 9.17076C41.3794 9.14676 41.6366 9.09876 41.7665 9.07476Z" fill="#432E09"/>
<path d="M46.7992 3.74399C47.1133 2.57599 47.7279 1.20532 49.0166 0.858651C50.1266 0.722651 51.3503 0.658655 52.352 1.23732C54.97 2.57066 56.922 4.97332 59.735 5.97065C61.3838 6.66932 63.2735 6.63999 65.0062 6.31732C62.9513 5.80532 60.7421 5.59732 58.9201 4.43998C61.5462 4.05865 63.6146 2.23999 66.0729 1.39465C67.4401 0.853321 69.2026 0.847982 70.3072 1.93065C70.8731 2.58932 71.2737 3.41599 71.3956 4.27732C70.6131 5.79465 69.2811 6.93865 67.9166 7.94132C64.7165 10.2267 60.9614 11.6027 57.1765 12.616C53.9223 13.3413 50.5381 13.856 47.2162 13.3226C46.6449 10.1786 46.0168 6.90665 46.7992 3.74399Z" fill="#B0B0B0"/>
<path d="M73.4994 2.57068C73.6104 2.76268 73.7241 2.94934 73.846 3.13601C73.9299 3.08001 74.1004 2.96534 74.1871 2.90934C74.317 4.08001 74.0815 5.23468 73.5481 6.28534C73.364 5.84268 73.226 5.38134 73.1475 4.90934C73.3261 4.13868 73.4723 3.36268 73.4994 2.57068Z" fill="#72583F"/>
<path d="M0.206007 3.71472C0.942408 3.71472 1.68152 3.71739 2.42062 3.72272C2.40979 8.29072 2.40979 12.8587 2.41792 17.4267C4.74624 17.3974 7.0854 17.5307 9.40289 17.2481C9.50577 17.8854 9.57075 18.5281 9.54638 19.1761C6.4248 19.2161 3.30322 19.2027 0.181641 19.1894C0.381985 16.7947 0.311595 14.3921 0.330546 11.9947C0.311595 9.23473 0.384692 6.46939 0.206007 3.71472Z" fill="#B0B0B0"/>
<path d="M11.7607 3.73867C12.4863 3.72001 13.2119 3.70667 13.9375 3.69067C13.9347 7.00001 13.9104 10.3093 13.9483 13.6187C13.9429 14.7173 14.1811 15.8827 14.9256 16.736C16.0681 17.936 18.0499 17.9867 19.5011 17.3573C20.9495 16.7147 21.1905 14.968 21.2987 13.5893C21.3394 10.3013 21.3123 7.01334 21.3042 3.72534C22.0162 3.72001 22.7282 3.71201 23.443 3.70401C23.3211 7.08801 23.4105 10.4747 23.3563 13.8613C23.3157 15.4693 22.8338 17.2053 21.5126 18.256C19.8909 19.5307 17.633 19.608 15.6837 19.2027C13.5936 18.7067 12.1019 16.784 11.9827 14.6987C11.8068 11.048 12.1208 7.38134 11.7607 3.73867Z" fill="#B0B0B0"/>
<path d="M26.37 3.80796C27.2607 3.78929 28.2489 3.52529 29.0882 3.87462C30.2253 5.64796 31.3461 7.43462 32.5103 9.19196C33.7773 7.45062 34.7953 5.55462 35.9405 3.73862C36.7798 3.71729 37.6191 3.73329 38.4583 3.78396C36.7229 5.87462 35.4721 8.29062 33.956 10.5306C33.5201 10.9653 33.956 11.4906 34.197 11.8986C35.7943 14.3386 37.2969 16.8453 39.0458 19.1866C38.212 19.1973 37.3754 19.1946 36.5415 19.184C35.1554 17.0266 33.8586 14.8053 32.3506 12.728C31.0537 14.8933 29.7028 17.0293 28.3924 19.1893C27.5694 19.2 26.749 19.1946 25.9287 19.1733C27.878 16.5306 29.4591 13.6533 31.273 10.9226C29.654 8.54395 28.3464 5.92796 26.37 3.80796Z" fill="#B0B0B0"/>
<path d="M120.515 3.71206C124.625 3.72006 128.735 3.73339 132.847 3.70139C132.842 4.37339 132.834 5.04539 132.818 5.71739C131.115 5.38406 129.374 5.47206 127.649 5.46672C127.73 10.0401 127.46 14.6321 127.844 19.1974C127.04 19.1947 126.239 19.1974 125.44 19.1841C125.938 14.6347 125.551 10.0427 125.703 5.47472C123.992 5.47739 122.264 5.37073 120.572 5.69339C120.54 5.03206 120.524 4.37073 120.515 3.71206Z" fill="#7E5D34"/>
<path d="M135.127 3.74672C137.526 3.70406 139.927 3.6774 142.326 3.76806C142.32 4.25073 142.318 4.73339 142.318 5.21606C141.468 5.21873 140.617 5.22673 139.77 5.22673C139.778 9.38139 139.705 13.5387 139.811 17.6907C140.645 17.6747 141.481 17.6747 142.318 17.6854C142.32 18.1867 142.323 18.6907 142.331 19.1947C139.93 19.1947 137.528 19.2134 135.13 19.1841C135.141 18.6747 135.157 18.1681 135.173 17.6641C136.004 17.6641 136.838 17.6694 137.675 17.6827C137.726 13.5307 137.696 9.37873 137.694 5.22673C136.849 5.23206 136.01 5.2374 135.168 5.2454C135.154 4.74406 135.138 4.24539 135.127 3.74672Z" fill="#7E5D34"/>
<path d="M149.414 4.01606C151.672 3.02139 154.344 3.38139 156.439 4.58673C157.498 5.04273 156.369 6.20006 156.236 6.93072C156.193 6.84272 156.106 6.66939 156.063 6.58139C154.482 5.46672 152.37 4.84272 150.486 5.54139C148.853 5.98672 147.711 7.46939 147.351 9.05073C146.872 10.8454 146.974 12.7787 147.63 14.5174C148.285 16.0054 149.63 17.2854 151.312 17.5067C153.209 17.8081 155.072 16.9814 156.51 15.8134C157.151 16.0401 156.883 17.0961 157.149 17.6507C155.186 19.2614 152.457 19.7307 149.996 19.1974C148.407 18.7681 146.926 17.7761 146.119 16.3387C144.814 14.0667 144.638 11.2614 145.339 8.77339C145.913 6.71472 147.326 4.77339 149.414 4.01606Z" fill="#7E5D34"/>
<path d="M93.0249 3.69605C96.0761 3.74672 99.1246 3.67206 102.173 3.74939C102.178 4.32272 102.178 4.89605 102.178 5.47205C99.8718 5.47472 97.5652 5.47472 95.2585 5.45605C95.2639 7.05339 95.1664 8.65339 95.3316 10.2454C97.3486 10.1974 99.3655 10.2054 101.383 10.2321C101.38 10.7814 101.38 11.3307 101.383 11.8827C99.3683 11.8987 97.354 11.9041 95.3424 11.8721C95.1475 13.7174 95.2883 15.5761 95.2422 17.4267C97.6572 17.4294 100.069 17.4374 102.482 17.3494C102.476 17.9574 102.476 18.5654 102.484 19.1734C99.3304 19.2241 96.1763 19.1974 93.0222 19.1921C93.2496 16.1787 93.1549 13.1574 93.1765 10.1387C93.1765 7.99205 93.2009 5.84005 93.0249 3.69605Z" fill="#7E5D34"/>
<path d="M77.5821 3.68539C80.7091 3.73073 84.1556 3.06672 86.955 4.82406C89.2346 6.17872 90.0089 8.99206 89.9737 11.4614C89.9574 14.0001 88.9774 16.7841 86.6328 18.1094C83.9227 19.7947 80.5954 19.1867 77.5713 19.1947C77.8041 16.2667 77.7094 13.3281 77.7283 10.3947C77.7391 8.15739 77.7391 5.91739 77.5821 3.68539ZM79.7507 5.36539C79.7859 9.38939 79.767 13.4134 79.7588 17.4347C81.6567 17.5787 83.7359 17.7014 85.4145 16.6507C87.2122 15.6107 87.9459 13.4161 87.8376 11.4561C87.8674 9.48539 87.288 7.25606 85.493 6.14406C83.7793 5.11739 81.6729 5.24006 79.7507 5.36539Z" fill="#7E5D34"/>
<path d="M105.695 3.71472C106.396 3.79739 107.387 3.42938 107.845 4.13072C110.555 8.09338 113.368 11.9867 116.075 15.9521C116.105 11.8934 116.073 7.83205 116.086 3.77339C116.706 3.74939 117.326 3.72539 117.949 3.70139C117.835 8.86406 117.908 14.0267 117.892 19.1921C117.302 19.1974 116.714 19.2027 116.127 19.2081C113.235 15.2187 110.547 11.0881 107.607 7.13339C107.525 11.1521 107.601 15.1734 107.577 19.1947C106.941 19.1974 106.304 19.2001 105.671 19.2001C105.852 16.5334 105.749 13.8587 105.779 11.1894C105.763 8.69605 105.812 6.20272 105.695 3.71472Z" fill="#7E5D34"/>
<path d="M158.981 19.1814C161.15 14.1067 162.796 8.82939 164.84 3.70406C165.593 3.70673 166.345 3.70939 167.101 3.70939C169.066 8.85606 170.791 14.0907 172.908 19.1787C172.191 19.1894 171.476 19.1947 170.761 19.2027C170.166 17.8614 169.787 16.4427 169.218 15.0934C167.025 15.0881 164.832 15.0907 162.639 15.0934C162.19 16.4747 161.637 17.8214 161.183 19.2001C160.446 19.1974 159.712 19.1921 158.981 19.1814ZM165.929 5.81339C165.016 8.35472 164.082 10.8907 163.254 13.4614C165.041 13.4561 166.83 13.4561 168.62 13.4721C167.813 10.8907 166.857 8.35472 165.929 5.81339Z" fill="#7E5D34"/>
<path d="M71.9746 6.73863C72.3591 6.1253 72.7462 5.51197 73.1469 4.9093C73.2254 5.3813 73.3635 5.84264 73.5476 6.2853L73.5936 6.41064C73.2471 6.89864 72.8843 7.37597 72.508 7.84263C72.3293 7.47197 72.1506 7.10663 71.9746 6.73863Z" fill="#B99F66"/>
<path d="M70.2314 8.36798C70.7702 7.78398 71.3983 7.28531 71.975 6.73865C72.151 7.10665 72.3296 7.47198 72.5083 7.84265C71.6988 8.48532 71.42 9.45332 71.3983 10.4453C71.1492 9.76799 70.7296 9.17065 70.31 8.58931C70.291 8.53331 70.2504 8.42398 70.2314 8.36798Z" fill="#E0C578"/>
<path d="M42.7899 7.89064C42.5841 7.62397 42.9171 7.09864 43.2528 7.22397C43.4478 7.4853 43.1229 8.0133 42.7899 7.89064Z" fill="#C3C3C1"/>
<path d="M69.4766 8.73336C69.685 8.69869 70.102 8.62402 70.3104 8.58936C70.7301 9.17069 71.1497 9.76803 71.3988 10.4454C71.3798 10.816 71.2878 11.1814 71.212 11.5467C70.5514 10.7707 69.9747 9.92269 69.5903 8.98136L69.4766 8.73336Z" fill="#BFA46E"/>
<path d="M67.7979 10.1173C68.3718 9.70666 68.9891 9.35466 69.5901 8.98132C69.9746 9.92266 70.5512 10.7707 71.2118 11.5467C70.9519 12.7067 70.8653 13.9147 70.3698 15.0107C70.1397 13.0933 68.6155 11.7813 67.7979 10.1173Z" fill="#916F3E"/>
<path d="M66.3145 10.9786C66.8045 10.6853 67.3026 10.4053 67.7981 10.1173C68.6157 11.7813 70.14 13.0933 70.3701 15.0106L70.4242 15.216C70.1778 16.0453 69.9721 16.8906 69.6662 17.704C69.6391 16.9466 69.6526 16.144 69.3332 15.4426C68.9866 15.136 68.5751 14.912 68.1852 14.6693C67.6844 13.408 66.9182 12.2746 66.3469 11.0453L66.3145 10.9786Z" fill="#644C20"/>
<path d="M61.3784 13.024C63.1056 12.5413 64.6191 11.5253 66.3463 11.0453C66.9176 12.2746 67.6838 13.408 68.1846 14.6693C68.5745 14.912 68.986 15.136 69.3326 15.4426C69.652 16.144 69.6385 16.9466 69.6656 17.704C69.181 19.28 68.5718 20.8213 67.922 22.3386C65.0306 19.9333 63.7338 16.2693 61.2646 13.5226C61.2917 13.3973 61.3486 13.1493 61.3784 13.024Z" fill="#523C13"/>
<path d="M59.0664 13.8534C59.838 13.5787 60.6069 13.2987 61.3785 13.024C61.3487 13.1494 61.2919 13.3974 61.2648 13.5227C63.7339 16.2694 65.0307 19.9334 67.9222 22.3387C67.5838 23.1094 67.1939 23.8747 66.5793 24.4694C66.0595 23.6161 65.6778 22.6427 64.9035 21.9734C63.4577 20.7654 62.8594 18.92 61.6276 17.5387C60.9182 16.7654 60.5365 15.7841 60.3713 14.7681C59.9382 14.4587 59.5023 14.1547 59.0664 13.8534Z" fill="#75592B"/>
<path d="M58.2324 14.024C58.4301 13.9733 58.8253 13.872 59.0203 13.8213L59.0663 13.8533C59.5022 14.1546 59.9381 14.4586 60.3712 14.768C60.5364 15.784 60.9181 16.7653 61.6275 17.5386C62.8593 18.92 63.4576 20.7653 64.9034 21.9733C65.6777 22.6426 66.0594 23.616 66.5792 24.4693C66.4276 24.6346 66.2814 24.8 66.1379 24.9706C64.2563 24.1866 63.8664 22.0613 62.7862 20.5653C61.1212 18.496 59.4182 16.4053 58.2324 14.024Z" fill="#9A7A42"/>
<path d="M53.0908 14.9734C54.5934 14.9627 56.0933 14.7627 57.4822 14.1787C58.6409 16.0667 60.0948 17.7787 61.0207 19.8C60.6173 19.848 60.2166 19.8987 59.8159 19.9467C59.6562 19.7894 59.5018 19.6294 59.3475 19.472C59.3015 18.5547 58.6626 17.84 58.1806 17.104C57.7042 16.432 57.2656 15.712 56.6293 15.1707C56.1907 14.7894 55.5599 14.976 55.0482 15.072C54.9589 15.384 55.0888 15.6854 55.2567 15.952C56.3451 17.736 57.8422 19.2774 58.6653 21.2134C58.4866 21.5147 58.3106 21.824 58.1292 22.1254C57.4876 21.0267 56.7512 19.984 55.9958 18.96C55.0455 17.672 54.2658 16.2587 53.1802 15.072L53.0908 14.9734Z" fill="#CEAA68"/>
<path d="M57.4824 14.1787C57.6692 14.1387 58.0455 14.064 58.2324 14.024C59.4182 16.4054 61.1211 18.496 62.7861 20.5654C63.8664 22.0614 64.2562 24.1867 66.1378 24.9707C65.6288 25.2534 65.0495 25.2881 64.4782 25.2614C63.5415 24.1174 63.1489 22.688 62.4829 21.4C62.1743 20.72 61.4947 20.344 61.0209 19.8C60.095 17.7787 58.6412 16.0667 57.4824 14.1787Z" fill="#B09768"/>
<path d="M55.0486 15.072C55.5603 14.976 56.1911 14.7894 56.6297 15.1707C57.2659 15.712 57.7045 16.432 58.181 17.104C58.6629 17.84 59.3019 18.5547 59.3479 19.472C59.5022 19.6294 59.6565 19.7894 59.8163 19.9467C59.375 20.3147 59.004 20.752 58.6656 21.2134C57.8426 19.2774 56.3454 17.736 55.2571 15.952C55.0892 15.6854 54.9593 15.384 55.0486 15.072Z" fill="#EBC17D"/>
<path d="M52.2955 15.2774C52.5175 15.2267 52.9588 15.1227 53.1808 15.072C54.2665 16.2587 55.0462 17.672 55.9965 18.96C56.7518 19.984 57.4882 21.0267 58.1299 22.1254C57.9566 22.5814 57.7833 23.0374 57.61 23.496L57.5478 23.4C55.8151 20.656 53.771 18.1227 52.041 15.3787L52.2955 15.2774Z" fill="#A2814B"/>
<path d="M48.1855 15.7014C48.8001 15.584 49.4174 15.48 50.0428 15.4374C50.1538 16.1494 50.059 16.9974 50.6357 17.544C51.6537 18.6294 52.3982 19.92 53.3051 21.0934C54.6182 22.768 55.5739 24.6934 57.0467 26.2534L56.8545 26.328C56.4592 26.544 56.0044 26.536 55.5658 26.5307C55.647 26.352 55.7309 26.1734 55.8176 25.9974C53.7708 24.4107 52.8097 21.9387 51.2313 19.9707C50.6519 19.152 50.2188 18.208 49.3984 17.5867C48.7703 17.12 48.4698 16.3947 48.1855 15.7014Z" fill="#533B12"/>
<path d="M50.043 15.4374C50.403 15.4427 50.7631 15.448 51.1232 15.456C51.9869 17.1387 53.3351 18.5014 54.3098 20.1174C55.1193 21.632 56.722 22.7414 56.9197 24.5387C57.1092 24.344 57.296 24.1494 57.4801 23.9547C57.3637 24.7254 57.1904 25.488 57.0469 26.2534C55.5741 24.6934 54.6184 22.768 53.3053 21.0934C52.3984 19.92 51.6538 18.6294 50.6359 17.544C50.0592 16.9974 50.154 16.1494 50.043 15.4374Z" fill="#684E1F"/>
<path d="M51.123 15.456C51.429 15.4453 51.7349 15.4187 52.0408 15.3787C53.7708 18.1227 55.8149 20.656 57.5476 23.4C57.5286 23.5387 57.4961 23.816 57.4799 23.9547C57.2958 24.1493 57.109 24.344 56.9195 24.5387C56.7218 22.7413 55.1191 21.632 54.3096 20.1173C53.335 18.5013 51.9867 17.1387 51.123 15.456Z" fill="#836532"/>
</svg>
