<svg width="32" height="32" viewBox="0 0 32 32" fill="none" xmlns="http://www.w3.org/2000/svg">
<path d="M22.2222 3.55554H9.77778C9.30628 3.55554 8.8541 3.74284 8.5207 4.07624C8.1873 4.40964 8 4.86182 8 5.33332V26.6667C8 27.1381 8.1873 27.5903 8.5207 27.9237C8.8541 28.2571 9.30628 28.4444 9.77778 28.4444H22.2222C22.6937 28.4444 23.1459 28.2571 23.4793 27.9237C23.8127 27.5903 24 27.1381 24 26.6667V5.33332C24 4.86182 23.8127 4.40964 23.4793 4.07624C23.1459 3.74284 22.6937 3.55554 22.2222 3.55554ZM9.77778 5.33332H22.2222V21.3333H9.77778V5.33332ZM9.77778 26.6667V23.1111H22.2222V26.6667H9.77778Z" fill="url(#paint0_linear)"/>
<path d="M15.1113 24H16.8891V25.7778H15.1113V24Z" fill="url(#paint1_linear)"/>
<defs>
<linearGradient id="paint0_linear" x1="16" y1="3.55554" x2="16" y2="28.4444" gradientUnits="userSpaceOnUse">
<stop stop-color="#E4AF12"/>
<stop offset="1" stop-color="#785512"/>
</linearGradient>
<linearGradient id="paint1_linear" x1="16.0002" y1="24" x2="16.0002" y2="25.7778" gradientUnits="userSpaceOnUse">
<stop stop-color="#E4AF12"/>
<stop offset="1" stop-color="#785512"/>
</linearGradient>
</defs>
</svg>
