<svg width="19" height="12" viewBox="0 0 19 12" fill="none" xmlns="http://www.w3.org/2000/svg">
<path fill-rule="evenodd" clip-rule="evenodd" d="M6.78064 11.031C6.71097 11.1008 6.6282 11.1563 6.53709 11.1941C6.44597 11.2319 6.34829 11.2513 6.24964 11.2513C6.15099 11.2513 6.0533 11.2319 5.96219 11.1941C5.87107 11.1563 5.7883 11.1008 5.71864 11.031L1.21864 6.531C1.14879 6.46133 1.09338 6.37857 1.05557 6.28745C1.01776 6.19634 0.998295 6.09865 0.998295 6C0.998295 5.90135 1.01776 5.80367 1.05557 5.71255C1.09338 5.62143 1.14879 5.53867 1.21864 5.469L5.71864 0.969003C5.85947 0.828173 6.05047 0.749056 6.24964 0.749056C6.4488 0.749056 6.63981 0.828173 6.78064 0.969003C6.92147 1.10983 7.00058 1.30084 7.00058 1.5C7.00058 1.69917 6.92147 1.89017 6.78064 2.031L2.81014 6L6.78064 9.969C6.85048 10.0387 6.9059 10.1214 6.9437 10.2126C6.98151 10.3037 7.00098 10.4014 7.00098 10.5C7.00098 10.5987 6.98151 10.6963 6.9437 10.7875C6.90589 10.8786 6.85048 10.9613 6.78064 11.031Z" fill="#E6B012"/>
<path fill-rule="evenodd" clip-rule="evenodd" d="M19 6C19 6.19891 18.921 6.38968 18.7803 6.53033C18.6397 6.67098 18.4489 6.75 18.25 6.75L2.5 6.75C2.30109 6.75 2.11032 6.67098 1.96967 6.53033C1.82902 6.38968 1.75 6.19891 1.75 6C1.75 5.80109 1.82902 5.61032 1.96967 5.46967C2.11032 5.32902 2.30109 5.25 2.5 5.25L18.25 5.25C18.4489 5.25 18.6397 5.32902 18.7803 5.46967C18.921 5.61032 19 5.80109 19 6Z" fill="#E6B012"/>
</svg>
