<svg width="19" height="18" viewBox="0 0 19 18" fill="none" xmlns="http://www.w3.org/2000/svg">
<path d="M15.1674 7.3375L12.0284 7.3375L12.0284 0.500001L18.5 0.500002L18.5 6.1875C18.5 9.51944 18.0853 11.8371 17.3232 13.2213L17.3232 13.2213L17.3216 13.2243C16.3565 15.0049 14.858 16.3875 12.7973 17.3664L11.6468 15.5934C12.8816 14.9901 13.8328 14.1419 14.4754 13.0416C15.2084 11.8115 15.5885 10.0639 15.6671 7.85529L15.6855 7.3375L15.1674 7.3375ZM4.25841 7.3375L1.1194 7.3375L1.1194 0.5L7.59098 0.500001L7.59098 6.1875C7.59098 9.51944 7.1763 11.8371 6.41416 13.2213L6.41258 13.2243C5.4475 15.0049 3.94894 16.3875 1.88829 17.3664L0.737765 15.5934C1.97263 14.9901 2.92381 14.1419 3.56641 13.0415C4.29936 11.8114 4.67947 10.0639 4.75809 7.85529L4.77653 7.3375L4.25841 7.3375Z" fill="white" stroke="url(#paint0_linear)"/>
<defs>
<linearGradient id="paint0_linear" x1="21.3309" y1="9" x2="1.2389" y2="9" gradientUnits="userSpaceOnUse">
<stop stop-color="#E5AF13"/>
<stop offset="1" stop-color="#785512"/>
</linearGradient>
</defs>
</svg>
