<svg width="18" height="16" viewBox="0 0 18 16" fill="none" xmlns="http://www.w3.org/2000/svg">
<path d="M17.032 3.67812C17.1477 3.2875 17.032 3 16.4758 3H14.6352C14.1664 3 13.9508 3.24687 13.8352 3.52187C13.8352 3.52187 12.8977 5.80625 11.5727 7.2875C11.1445 7.71562 10.9477 7.85313 10.7133 7.85313C10.5977 7.85313 10.4195 7.71562 10.4195 7.325V3.67812C10.4195 3.20937 10.2883 3 9.90078 3H7.00703C6.71328 3 6.53828 3.21875 6.53828 3.42188C6.53828 3.86563 7.20078 3.96875 7.26953 5.21875V7.93125C7.26953 8.525 7.16328 8.63437 6.92891 8.63437C6.30391 8.63437 4.78516 6.34063 3.88516 3.71563C3.70391 3.20625 3.52578 3 3.05391 3H1.21328C0.688281 3 0.582031 3.24687 0.582031 3.52187C0.582031 4.00937 1.20703 6.43125 3.49141 9.63125C5.01328 11.8156 7.15703 13 9.10703 13C10.2789 13 10.4227 12.7375 10.4227 12.2844C10.4227 10.1969 10.3164 10 10.9039 10C11.1758 10 11.6445 10.1375 12.7383 11.1906C13.9883 12.4406 14.1945 13 14.8945 13H16.7352C17.2602 13 17.5258 12.7375 17.3727 12.2188C17.0227 11.1281 14.657 8.88438 14.5508 8.73438C14.2789 8.38438 14.357 8.22813 14.5508 7.91563C14.5539 7.9125 16.8008 4.75 17.032 3.67812Z" fill="#B0B0B0"/>
</svg>
