<svg width="48" height="48" viewBox="0 0 48 48" fill="none" xmlns="http://www.w3.org/2000/svg">
<g clip-path="url(#clip0)">
<path d="M38.8 44.7999H6.00014C5.5585 44.7999 5.2002 44.4414 5.2002 43.9999V0.799944C5.2002 0.358305 5.55867 0 6.00014 0H30.8001C30.9976 0 31.1881 0.0728755 31.3353 0.205637L39.3353 7.40564C39.5042 7.55763 39.6001 7.77356 39.6001 8.00011V43.9999C39.6 44.4414 39.2415 44.7999 38.8 44.7999ZM6.80008 43.1998H37.9999V8.35673L30.4929 1.60006H6.80008V43.1998Z" fill="#E6B012"/>
<path d="M38.7999 8.80025H30.7999C30.3583 8.80025 30 8.44178 30 8.00031V0.800137C30 0.484175 30.1856 0.197733 30.4744 0.0690202C30.7615 -0.0590181 31.0999 -0.00621705 31.3352 0.204987L39.3352 7.40499C39.5816 7.62665 39.6656 7.97703 39.5472 8.28658C39.4278 8.59613 39.1311 8.80025 38.7999 8.80025ZM31.5999 7.20019H36.715L31.5999 2.59622V7.20019Z" fill="#E6B012"/>
<path d="M42.0002 48.0004H9.20033C8.7587 48.0004 8.40039 47.6419 8.40039 47.2005V44.0005C8.40039 43.5589 8.75886 43.2006 9.20033 43.2006H38.0002V8.35663L33.8201 4.5951C33.5737 4.37344 33.4896 4.02306 33.6081 3.71351C33.7273 3.40463 34.0241 3.20068 34.3552 3.20068H42.0001C42.4417 3.20068 42.8 3.55916 42.8 4.00063V47.2005C42.8002 47.6419 42.4419 48.0004 42.0002 48.0004ZM10.0003 46.4003H41.2001V4.80057H36.4401L39.3352 7.40621C39.5041 7.55736 39.6001 7.77345 39.6001 8.00068V44.0005C39.6001 44.4422 39.2416 44.8005 38.8001 44.8005H10.0003V46.4003Z" fill="#E6B012"/>
<path d="M28.3997 33.5999H11.5997C11.1581 33.5999 10.7998 33.2414 10.7998 32.7999C10.7998 32.3583 11.1583 32 11.5997 32H28.3997C28.8414 32 29.1997 32.3585 29.1997 32.7999C29.1997 33.2416 28.8412 33.5999 28.3997 33.5999Z" fill="#E6B012"/>
<path d="M33.2008 33.5999H31.6007C31.1591 33.5999 30.8008 33.2414 30.8008 32.7999C30.8008 32.3583 31.1593 32 31.6007 32H33.2008C33.6424 32 34.0007 32.3585 34.0007 32.7999C34.0007 33.2416 33.6423 33.5999 33.2008 33.5999Z" fill="#E6B012"/>
<path d="M28.3997 40.0008H11.5997C11.1581 40.0008 10.7998 39.6423 10.7998 39.2008C10.7998 38.7594 11.1583 38.4009 11.5997 38.4009H28.3997C28.8414 38.4009 29.1997 38.7594 29.1997 39.2008C29.1997 39.6423 28.8412 40.0008 28.3997 40.0008Z" fill="#E6B012"/>
<path d="M33.2008 40.0008H31.6007C31.1591 40.0008 30.8008 39.6423 30.8008 39.2008C30.8008 38.7594 31.1593 38.4009 31.6007 38.4009H33.2008C33.6424 38.4009 34.0007 38.7594 34.0007 39.2008C34.0007 39.6423 33.6423 40.0008 33.2008 40.0008Z" fill="#E6B012"/>
<path d="M13.9997 36.8001H11.5997C11.1581 36.8001 10.7998 36.4416 10.7998 36.0001C10.7998 35.5585 11.1583 35.2002 11.5997 35.2002H13.9997C14.4414 35.2002 14.7997 35.5587 14.7997 36.0001C14.7997 36.4416 14.4414 36.8001 13.9997 36.8001Z" fill="#E6B012"/>
<path d="M33.2004 36.8001H17.2003C16.7587 36.8001 16.4004 36.4416 16.4004 36.0001C16.4004 35.5585 16.7589 35.2002 17.2003 35.2002H33.2002C33.6418 35.2002 34.0001 35.5587 34.0001 36.0001C34.0003 36.4416 33.6418 36.8001 33.2004 36.8001Z" fill="#E6B012"/>
<path d="M27.2223 28.8001C27.1255 28.8001 27.028 28.7881 26.9327 28.7642C26.5255 28.6618 26.2007 28.3505 26.0855 27.9514C25.1742 24.8026 23.7623 22.4282 22.8016 22.4282C21.8407 22.4282 20.4287 24.8026 19.5168 27.9523C19.4016 28.3507 19.0775 28.6618 18.6696 28.7642C18.2615 28.8674 17.8256 28.7458 17.5336 28.4465C15.9487 26.8249 16.0392 23.7577 16.0543 23.4129C16.0535 22.3505 16.3583 21.0826 16.6144 20.2129C16.76 19.7161 16.6625 19.1802 16.3448 18.7441C16.2792 18.6546 16.2159 18.5633 16.1552 18.4722C15.2689 17.1498 14.8008 15.569 14.8008 13.9018V13.1305C14.8008 10.3378 17.7816 9.6001 19.3575 9.6001C20.9623 9.6001 22.1359 10.3241 22.8007 10.8801C23.4655 10.3241 24.6391 9.6001 26.2439 9.6001C27.8199 9.6001 30.8007 10.3376 30.8007 13.1314V13.9026C30.8007 15.569 30.3327 17.1498 29.4471 18.4722C29.3863 18.5626 29.3231 18.6537 29.2566 18.7441C28.9398 19.1794 28.8421 19.7153 28.9879 20.2129C29.244 21.0826 29.5486 22.3498 29.5486 23.4481C29.5638 23.7562 29.6542 26.8242 28.0687 28.4457C27.8448 28.6746 27.5376 28.8001 27.2223 28.8001ZM22.8007 20.8282C25.0951 20.8282 26.636 24.4482 27.3688 26.6842C27.9032 25.6177 27.9767 24.089 27.9496 23.4843C27.9487 22.5402 27.6792 21.4331 27.4528 20.6635C27.1663 19.6859 27.3527 18.6436 27.9632 17.8027C28.0169 17.7283 28.068 17.6547 28.1169 17.5818C28.8265 16.5226 29.2009 15.2507 29.2009 13.9018V13.1305C29.2009 11.2226 26.2738 11.2002 26.2441 11.2002C24.492 11.2002 23.4409 12.4802 23.4305 12.493C23.1273 12.8802 22.4736 12.8802 22.1705 12.493C22.1313 12.4443 21.1113 11.2002 19.3577 11.2002C19.2384 11.201 16.4008 11.2361 16.4008 13.1314V13.9026C16.4008 15.2515 16.7752 16.5234 17.484 17.5818C17.5336 17.6562 17.5841 17.7298 17.6377 17.8027C18.2489 18.6443 18.4353 19.6866 18.1488 20.6635C17.9225 21.4331 17.6529 22.5411 17.6529 23.4492C17.6266 24.0828 17.7025 25.6172 18.2337 26.6827C18.9665 24.4458 20.5072 20.8282 22.8007 20.8282Z" fill="#E6B012"/>
<path d="M20.3996 14.4002C19.9579 14.4002 19.5996 14.0418 19.5996 13.6003C19.5996 13.1586 19.9581 12.8003 20.3996 12.8003C21.0131 12.8003 21.8476 11.9412 22.1555 11.5259C22.4186 11.1706 22.9195 11.0955 23.2731 11.357C23.6283 11.6193 23.7051 12.1178 23.4435 12.4738C23.2994 12.6706 21.9843 14.4002 20.3996 14.4002Z" fill="#E6B012"/>
</g>
<defs>
<clipPath id="clip0">
<rect width="48" height="48" fill="white"/>
</clipPath>
</defs>
</svg>
