<svg width="48" height="48" viewBox="0 0 48 48" fill="none" xmlns="http://www.w3.org/2000/svg">
<g clip-path="url(#clip0)">
<path d="M47.1999 31.1998H0.799947C0.358306 31.1998 0 30.8413 0 30.3999V4.0006C0 2.2359 1.43592 0.799805 3.2008 0.799805H44.7992C46.5641 0.799805 48 2.23573 48 4.0006V30.3999C48 30.8415 47.6415 31.1998 47.1999 31.1998ZM1.60006 29.5999H46.4001V4.0006C46.4001 3.11732 45.6816 2.39987 44.7994 2.39987H3.2008C2.31836 2.39987 1.60006 3.11749 1.60006 4.0006V29.5999Z" fill="#E6B012"/>
<path d="M44.7992 37.6001H3.2008C1.43592 37.6001 0 36.164 0 34.3993V30.4C0 29.9584 0.358475 29.6001 0.799947 29.6001H47.1999C47.6415 29.6001 47.9998 29.9586 47.9998 30.4V34.3993C48 36.164 46.5639 37.6001 44.7992 37.6001ZM1.60006 31.2V34.3993C1.60006 35.2826 2.31853 36 3.2008 36H44.7992C45.6816 36 46.3999 35.2824 46.3999 34.3993V31.2H1.60006Z" fill="#E6B012"/>
<path d="M26.3998 34.3997H21.5998C21.1581 34.3997 20.7998 34.0412 20.7998 33.5998C20.7998 33.1583 21.1583 32.7998 21.5998 32.7998H26.3998C26.8414 32.7998 27.1997 33.1583 27.1997 33.5998C27.1997 34.0412 26.8414 34.3997 26.3998 34.3997Z" fill="#E6B012"/>
<path d="M44 31.1999H4.00014C3.5585 31.1999 3.2002 30.8414 3.2002 30.3999V4.79995C3.2002 4.35831 3.55867 4 4.00014 4H44.0002C44.4418 4 44.8001 4.35847 44.8001 4.79995V30.3999C44.8001 30.8416 44.4416 31.1999 44 31.1999ZM4.80009 29.6H43.2001V5.59989H4.80009V29.6Z" fill="#E6B012"/>
<path d="M34.4002 47.1999H13.6002C12.277 47.1999 11.2002 46.1232 11.2002 44.7999C11.2002 43.4767 12.277 42.3999 13.6002 42.3999H34.4002C35.7234 42.3999 36.8002 43.4767 36.8002 44.7999C36.8002 46.1232 35.7234 47.1999 34.4002 47.1999ZM13.6002 44C13.1586 44 12.8003 44.3591 12.8003 44.7999C12.8003 45.2407 13.1587 45.5999 13.6002 45.5999H34.4002C34.8418 45.5999 35.2001 45.2407 35.2001 44.7999C35.2001 44.3591 34.8416 44 34.4002 44H13.6002Z" fill="#E6B012"/>
<path d="M32.8003 43.9998H15.2003C14.7587 43.9998 14.4004 43.6413 14.4004 43.1998C14.4004 42.7582 14.7589 42.3999 15.2003 42.3999C17.8547 42.3999 19.2004 40.5159 19.2004 36.7999C19.2004 36.3583 19.5589 36 20.0004 36H28.0003C28.442 36 28.8003 36.3585 28.8003 36.7999C28.8003 40.5159 30.1459 42.3999 32.8003 42.3999C33.242 42.3999 33.6003 42.7584 33.6003 43.1998C33.6003 43.6415 33.242 43.9998 32.8003 43.9998ZM19.0972 42.3999H28.9043C27.9187 41.3086 27.3387 39.6839 27.2228 37.5999H20.7789C20.662 39.6838 20.082 41.3086 19.0972 42.3999Z" fill="#E6B012"/>
<path d="M27.9304 26.3998C27.8391 26.3998 27.7472 26.3887 27.6559 26.3662C27.2592 26.267 26.9439 25.9631 26.8327 25.571C26.0447 22.7871 24.8008 20.6062 23.9998 20.6062C23.199 20.6062 21.9551 22.7871 21.167 25.571C21.0558 25.9631 20.7405 26.267 20.3437 26.3662C19.947 26.4622 19.5278 26.3423 19.2477 26.0494C17.8189 24.555 17.8997 21.7422 17.9142 21.4271C17.9134 20.6566 18.0814 19.6607 18.4142 18.5046C18.539 18.0694 18.4559 17.6014 18.1846 17.2207C18.1254 17.1375 18.0686 17.0543 18.0142 16.971C17.2199 15.7583 16.7998 14.3102 16.7998 12.783V12.0823C16.7998 9.48538 19.507 8.7998 20.939 8.7998C22.3439 8.7998 23.3822 9.47256 23.9998 10.0271C24.6174 9.47272 25.6559 8.7998 27.0606 8.7998C28.4927 8.7998 31.1999 9.48538 31.1999 12.0829V12.7837C31.1999 14.3109 30.7798 15.7589 29.9854 16.9717C29.9318 17.054 29.8751 17.1373 29.8159 17.2205C29.5446 17.6021 29.4615 18.07 29.5863 18.5044C29.9183 19.6605 30.0863 20.6556 30.0863 21.462C30.0991 21.7428 30.1808 24.5548 28.7519 26.0491C28.536 26.2758 28.2369 26.3998 27.9304 26.3998ZM20.9392 10.3999C20.8377 10.4007 18.4 10.4334 18.4 12.0831V12.7838C18.4 13.9991 18.7297 15.1439 19.3528 16.095C19.3968 16.1621 19.4416 16.2286 19.4888 16.295C20.0424 17.0742 20.2111 18.0414 19.9512 18.9462C19.6647 19.9454 19.5127 20.815 19.5127 21.4623C19.4911 21.995 19.5463 23.2255 19.9264 24.1623C20.6111 22.1015 21.976 19.0071 24 19.0071C26.0225 19.0071 27.3872 22.0991 28.0719 24.159C28.4535 23.2127 28.508 21.9687 28.4871 21.4967C28.4862 20.8144 28.3351 19.9447 28.0478 18.9456C27.7879 18.04 27.9565 17.0736 28.511 16.2935C28.5574 16.2279 28.6023 16.1623 28.6455 16.096C29.2703 15.1432 29.6 13.9984 29.6 12.7832V12.0824C29.6 10.44 27.1816 10.4 27.0599 10.3992C25.5727 10.4 24.6655 11.6431 24.6567 11.656C24.3575 12.0856 23.6424 12.0856 23.3431 11.656C23.3097 11.6094 22.4281 10.3999 20.9392 10.3999Z" fill="#E6B012"/>
<path d="M21.5998 13.5998C21.1581 13.5998 20.7998 13.2413 20.7998 12.7999C20.7998 12.3582 21.1583 11.9999 21.5998 11.9999C22.0765 11.9999 22.9382 11.2447 23.3758 10.6991C23.6526 10.3551 24.1558 10.3 24.5006 10.5766C24.8446 10.8535 24.8997 11.3567 24.6231 11.7015C24.3687 12.0183 23.0254 13.5998 21.5998 13.5998Z" fill="#E6B012"/>
<path d="M7.20034 12.0002C6.7587 12.0002 6.40039 11.6417 6.40039 11.2003V8.00014C6.40039 7.5585 6.75887 7.2002 7.20034 7.2002H10.4003C10.8419 7.2002 11.2002 7.55867 11.2002 8.00014C11.2002 8.44178 10.8418 8.80009 10.4003 8.80009H8.00028V11.2001C8.00028 11.6417 7.64198 12.0002 7.20034 12.0002Z" fill="#E6B012"/>
<path d="M40.7997 28H37.5998C37.1581 28 36.7998 27.6416 36.7998 27.2001C36.7998 26.7585 37.1583 26.4001 37.5998 26.4001H39.9998V24.0001C39.9998 23.5585 40.3582 23.2002 40.7997 23.2002C41.2412 23.2002 41.5996 23.5587 41.5996 24.0001V27.2001C41.5996 27.6416 41.2413 28 40.7997 28Z" fill="#E6B012"/>
</g>
<defs>
<clipPath id="clip0">
<rect width="48" height="48" fill="white"/>
</clipPath>
</defs>
</svg>
