<svg width="48" height="48" viewBox="0 0 48 48" fill="none" xmlns="http://www.w3.org/2000/svg">
<g clip-path="url(#clip0)">
<path d="M28.4214 35.999C28.3246 35.999 28.2277 35.9871 28.1317 35.9638C27.7245 35.8614 27.3998 35.5502 27.2846 35.151C26.3726 32.0023 24.9607 29.6279 23.9998 29.6279C23.039 29.6279 21.627 32.0023 20.7151 35.1519C20.5999 35.551 20.2751 35.8622 19.8679 35.9646C19.4598 36.067 19.0248 35.9454 18.7319 35.6463C17.1464 34.0247 17.2375 30.9575 17.2527 30.6127C17.2519 29.7679 17.4406 28.6792 17.8128 27.4128C17.9583 26.9152 17.8608 26.3801 17.5432 25.9441C17.4767 25.8528 17.4136 25.7617 17.3527 25.6704C16.4679 24.3489 16 22.769 16 21.1018V20.3305C16 17.5378 18.9808 16.7993 20.5567 16.7993C22.1623 16.7993 23.335 17.5233 23.9998 18.0793C24.6646 17.5233 25.8382 16.7993 27.443 16.7993C29.0189 16.7993 31.9997 17.5368 31.9997 20.3305V21.1018C31.9997 22.7681 31.5317 24.3489 30.6452 25.6713C30.5869 25.76 30.5228 25.8513 30.4565 25.9425C30.1397 26.3793 30.0413 26.9145 30.1869 27.4122C30.5589 28.6785 30.7476 29.7673 30.7476 30.6482C30.762 30.9562 30.8532 34.0242 29.2677 35.6456C29.0437 35.8742 28.7365 35.999 28.4214 35.999ZM23.9998 28.0272C26.2942 28.0272 27.8342 31.6455 28.567 33.8823C29.0982 32.8175 29.1741 31.2887 29.1486 30.6831C29.1478 29.9302 28.9765 28.9672 28.6518 27.8631C28.3654 26.8864 28.5509 25.8439 29.1614 25.0023C29.2142 24.9294 29.2655 24.8567 29.3134 24.7838C30.0246 23.7231 30.3998 22.4503 30.3998 21.1014V20.3302C30.3998 18.443 27.583 18.3999 27.443 18.399C25.6886 18.399 24.6694 19.6429 24.627 19.6957C24.4742 19.8862 24.2551 19.9822 23.9966 19.9965C23.7527 19.995 23.5206 19.8837 23.3703 19.6917C23.3311 19.6429 22.3111 18.3988 20.5567 18.3988C20.4374 18.4004 17.5999 18.4356 17.5999 20.33V21.1013C17.5999 22.4501 17.975 23.7221 18.683 24.7804C18.7335 24.8557 18.7839 24.9292 18.8374 25.0021C19.4485 25.8428 19.6341 26.8852 19.347 27.8621C19.0229 28.966 18.851 29.9292 18.851 30.6468C18.8247 31.2804 18.9006 32.8155 19.4318 33.8803C20.1655 31.6455 21.7055 28.0272 23.9998 28.0272Z" fill="#E6B012"/>
<path d="M21.5997 21.6001C21.1581 21.6001 20.7998 21.2417 20.7998 20.8002C20.7998 20.3587 21.1583 20.0003 21.5997 20.0003C22.2133 20.0003 23.0478 19.1411 23.3556 18.7258C23.6179 18.3714 24.1188 18.2955 24.4741 18.557C24.8293 18.8193 24.9061 19.3178 24.6444 19.6737C24.4997 19.8706 23.1844 21.6001 21.5997 21.6001Z" fill="#E6B012"/>
<path d="M47.1991 48.0003H0.799932C0.3583 48.0003 0 47.6419 0 47.2004V5.6012C0 5.15957 0.358468 4.80127 0.799932 4.80127H47.1991C47.6407 4.80127 47.999 5.15974 47.999 5.6012V47.2004C47.999 47.6419 47.6407 48.0003 47.1991 48.0003ZM1.59986 46.4003H46.3991V6.40097H1.59986V46.4003Z" fill="#E6B012"/>
<path d="M8.00098 16.8004H4.80091C4.35928 16.8004 4.00098 16.442 4.00098 16.0005C4.00098 15.5589 4.35944 15.2006 4.80091 15.2006H8.00081C8.44244 15.2006 8.80074 15.559 8.80074 16.0005C8.80091 16.4421 8.44244 16.8004 8.00098 16.8004ZM11.2009 13.6005H4.80091C4.35928 13.6005 4.00098 13.2421 4.00098 12.8006C4.00098 12.359 4.35944 12.0007 4.80091 12.0007H11.2007C11.6423 12.0007 12.0006 12.3591 12.0006 12.8006C12.0008 13.2422 11.6425 13.6005 11.2009 13.6005ZM8.00098 10.4006H4.80091C4.35928 10.4006 4.00098 10.0422 4.00098 9.60071C4.00098 9.15908 4.35944 8.80078 4.80091 8.80078H8.00081C8.44244 8.80078 8.80074 9.15925 8.80074 9.60071C8.80091 10.0422 8.44244 10.4006 8.00098 10.4006Z" fill="#E6B012"/>
<path d="M43.1995 13.6004H42.3995C41.9579 13.6004 41.5996 13.2419 41.5996 12.8004C41.5996 12.3588 41.9581 12.0005 42.3995 12.0005H43.1995C43.6411 12.0005 43.9994 12.359 43.9994 12.8004C43.9996 13.2421 43.6411 13.6004 43.1995 13.6004Z" fill="#E6B012"/>
<path d="M40.0003 13.6004H39.2003C38.7587 13.6004 38.4004 13.2419 38.4004 12.8004C38.4004 12.3588 38.7589 12.0005 39.2003 12.0005H40.0003C40.4419 12.0005 40.8002 12.359 40.8002 12.8004C40.8002 13.2421 40.4419 13.6004 40.0003 13.6004Z" fill="#E6B012"/>
<path d="M36.7991 13.6004H35.9992C35.5575 13.6004 35.1992 13.2419 35.1992 12.8004C35.1992 12.3588 35.5577 12.0005 35.9992 12.0005H36.7991C37.2407 12.0005 37.599 12.359 37.599 12.8004C37.599 13.2421 37.2407 13.6004 36.7991 13.6004Z" fill="#E6B012"/>
<path d="M43.1991 10.4006H39.9991C39.5575 10.4006 39.1992 10.0422 39.1992 9.60071C39.1992 9.15908 39.5577 8.80078 39.9991 8.80078H43.1991C43.6407 8.80078 43.999 9.15925 43.999 9.60071C43.9992 10.0422 43.6407 10.4006 43.1991 10.4006Z" fill="#E6B012"/>
<path d="M43.199 44.0003H35.9992C35.5575 44.0003 35.1992 43.6418 35.1992 43.2003C35.1992 42.7587 35.5577 42.4004 35.9992 42.4004H43.199C43.6407 42.4004 43.999 42.7589 43.999 43.2003C43.9991 43.6418 43.6407 44.0003 43.199 44.0003Z" fill="#E6B012"/>
<path d="M43.1994 40.8001H29.5997C29.1581 40.8001 28.7998 40.4416 28.7998 40.0001C28.7998 39.5587 29.1583 39.2002 29.5997 39.2002H43.1994C43.6411 39.2002 43.9994 39.5587 43.9994 40.0001C43.9994 40.4416 43.6411 40.8001 43.1994 40.8001Z" fill="#E6B012"/>
<path d="M8.80049 42.3998C7.03564 42.3998 5.60059 40.9646 5.60059 39.1999C5.60059 37.4352 7.03581 36 8.80049 36C10.5652 36 12.0004 37.4352 12.0004 39.1999C12.0004 40.9646 10.5652 42.3998 8.80049 42.3998ZM8.80049 37.6C7.91806 37.6 7.20045 38.3176 7.20045 39.2001C7.20045 40.0825 7.91806 40.8001 8.80049 40.8001C9.68291 40.8001 10.4005 40.0825 10.4005 39.2001C10.4005 38.3176 9.68291 37.6 8.80049 37.6Z" fill="#E6B012"/>
<path d="M40.7995 23.2006C39.0347 23.2006 37.5996 21.7654 37.5996 20.0007C37.5996 18.236 39.0348 16.8008 40.7995 16.8008C42.5642 16.8008 43.9994 18.236 43.9994 20.0007C43.9994 21.7654 42.5643 23.2006 40.7995 23.2006ZM40.7995 18.4006C39.9171 18.4006 39.1995 19.1183 39.1995 20.0007C39.1995 20.8831 39.9171 21.6007 40.7995 21.6007C41.6819 21.6007 42.3995 20.8831 42.3995 20.0007C42.3995 19.1183 41.6819 18.4006 40.7995 18.4006Z" fill="#E6B012"/>
<path d="M8.79902 37.6003C8.66458 37.6003 8.52777 37.5668 8.40311 37.4947C8.01984 37.2756 7.88624 36.7867 8.10554 36.4035L11.3054 30.8036C11.5246 30.4203 12.0134 30.2876 12.3967 30.506C12.78 30.7252 12.9136 31.214 12.6943 31.5973L9.49437 37.1972C9.3471 37.4554 9.07669 37.6003 8.79902 37.6003Z" fill="#E6B012"/>
<path d="M18.0544 32.0003H12.0001C11.5585 32.0003 11.2002 31.6418 11.2002 31.2003C11.2002 30.7589 11.5587 30.4004 12.0001 30.4004H18.0544C18.4961 30.4004 18.8544 30.7589 18.8544 31.2003C18.8544 31.6418 18.4968 32.0003 18.0544 32.0003Z" fill="#E6B012"/>
<path d="M38.3998 25.6007C38.195 25.6007 37.9902 25.5222 37.8342 25.3664C37.5214 25.0536 37.5214 24.548 37.8342 24.2351L40.2341 21.8352C40.5462 21.5224 41.0533 21.5224 41.3654 21.8352C41.6781 22.1479 41.6781 22.6535 41.3654 22.9664L38.9654 25.3664C38.8094 25.5222 38.6046 25.6007 38.3998 25.6007Z" fill="#E6B012"/>
<path d="M38.4003 25.6004H30.4005C29.9589 25.6004 29.6006 25.2419 29.6006 24.8004C29.6006 24.359 29.9591 24.0005 30.4005 24.0005H38.4003C38.842 24.0005 39.2003 24.359 39.2003 24.8004C39.2003 25.2419 38.842 25.6004 38.4003 25.6004Z" fill="#E6B012"/>
<path d="M15.2012 6.40064C14.918 6.40064 14.6437 6.25017 14.4981 5.9838C14.2869 5.59582 14.4293 5.11015 14.8173 4.89828L23.617 0.0983458C24.005 -0.112855 24.4907 0.0312069 24.7026 0.417509C24.9138 0.805498 24.7714 1.29116 24.3834 1.50304L15.5836 6.30314C15.462 6.36943 15.3308 6.40064 15.2012 6.40064Z" fill="#E6B012"/>
<path d="M32.7987 6.40058C32.6691 6.40058 32.5379 6.36938 32.4162 6.30291L23.6165 1.50315C23.2285 1.2911 23.0853 0.805611 23.2973 0.417621C23.5085 0.0296322 23.9948 -0.11443 24.3828 0.0984581L33.1826 4.89839C33.5706 5.11044 33.7138 5.59593 33.5018 5.98392C33.3563 6.24944 33.0819 6.40058 32.7987 6.40058Z" fill="#E6B012"/>
</g>
<defs>
<clipPath id="clip0">
<rect width="48" height="48" fill="white"/>
</clipPath>
</defs>
</svg>
