<svg width="48" height="48" viewBox="0 0 48 48" fill="none" xmlns="http://www.w3.org/2000/svg">
<g clip-path="url(#clip0)">
<path d="M30.9117 48C30.7676 48 30.6221 47.9825 30.4765 47.9472C29.854 47.7935 29.3597 47.3153 29.1877 46.7001C27.5718 40.9433 23.7342 31.1996 19.5998 31.1996C15.4653 31.1996 11.628 40.9433 10.0127 46.7001C9.84 47.3153 9.34641 47.7928 8.72394 47.9472C8.09843 48.1 7.46078 47.916 7.01999 47.4504C3.28079 43.5057 3.58561 35.5034 3.6008 35.1643C3.59995 32.4659 4.35046 29.2556 4.98001 27.0437C5.46635 25.3342 5.14567 23.5014 4.09995 22.0165C3.94155 21.7917 3.78956 21.567 3.64398 21.3421C1.52185 18.0732 0.400391 14.1621 0.400391 10.0326V7.99983C0.400391 1.6719 7.20336 0 10.8002 0C15.3577 0 18.4033 1.98954 19.6 2.94231C20.7968 1.98954 23.8424 0 28.3997 0C31.9964 0 38.7995 1.6719 38.7995 7.99983V10.0326C38.7995 14.1621 37.6779 18.0732 35.5556 21.3419C35.41 21.5668 35.258 21.7915 35.0996 22.0164C34.0532 23.5012 33.7324 25.3338 34.2196 27.0435C34.8491 29.2554 35.5994 32.4658 35.5994 35.1994C35.6138 35.5034 35.9186 43.5056 32.1803 47.4504C31.8422 47.8079 31.3877 48 30.9117 48ZM19.6 29.5995C25.5846 29.5995 29.6301 42.3576 30.7278 46.268C30.7518 46.3544 30.8214 46.3841 30.8597 46.3937C30.9237 46.4097 30.9765 46.3946 31.0181 46.3505C34.2956 42.893 34.003 35.3116 33.9998 35.2348C33.9989 32.6516 33.2813 29.5965 32.6797 27.4821C32.0605 25.3053 32.4653 22.9774 33.7909 21.0958C33.9373 20.8878 34.078 20.6798 34.2125 20.4727C36.1668 17.4624 37.1996 13.8527 37.1996 10.0329V8.00017C37.1996 1.69062 28.759 1.60105 28.399 1.6002C23.2255 1.6002 20.1944 4.53779 20.1641 4.56731C19.8513 4.87686 19.3457 4.87686 19.0345 4.56579C19.0057 4.53779 15.9746 1.6002 10.8002 1.6002C10.4417 1.60105 2.00042 1.69062 2.00042 8.00017V10.0329C2.00042 13.8529 3.03315 17.4624 4.98592 20.4712C5.12188 20.68 5.2619 20.888 5.40832 21.096C6.73389 22.9784 7.13875 25.3055 6.51949 27.4823C5.91793 29.5967 5.20032 32.651 5.20032 35.1997C5.19627 35.3109 4.91068 42.8996 8.18109 46.3499C8.22343 46.3947 8.27708 46.4082 8.34034 46.3939C8.37947 46.3843 8.4483 46.3554 8.47225 46.2682C9.56976 42.3576 13.6153 29.5995 19.6 29.5995Z" fill="#E6B012"/>
<path d="M12.4005 9.59968C11.9589 9.59968 11.6006 9.24121 11.6006 8.79974C11.6006 8.35811 11.9591 7.99981 12.4005 7.99981C14.7133 7.99981 17.938 4.74222 18.986 3.48716C19.2693 3.14792 19.7732 3.10238 20.1124 3.38561C20.4516 3.66884 20.4972 4.17205 20.2148 4.51196C19.7812 5.03254 15.8749 9.59968 12.4005 9.59968Z" fill="#E6B012"/>
<path d="M22.7998 26.7309L19.2686 23.1997L22.7998 19.6685L26.331 23.1997L22.7998 26.7309ZM21.531 23.1997L22.7998 24.4684L24.0685 23.1997L22.7998 21.9309L21.531 23.1997Z" fill="#E6B012"/>
<path d="M22.7999 21.5993C22.3583 21.5993 22 21.2408 22 20.7994V19.1993C22 18.7577 22.3585 18.3994 22.7999 18.3994C23.2416 18.3994 23.5999 18.7579 23.5999 19.1993V20.7994C23.6 21.241 23.2416 21.5993 22.7999 21.5993Z" fill="#E6B012"/>
<path d="M26.7994 23.9998H25.1993C24.7577 23.9998 24.3994 23.6413 24.3994 23.1998C24.3994 22.7582 24.7579 22.3999 25.1993 22.3999H26.7994C27.241 22.3999 27.5993 22.7584 27.5993 23.1998C27.5993 23.6415 27.241 23.9998 26.7994 23.9998Z" fill="#E6B012"/>
<path d="M22.7999 27.9997C22.3583 27.9997 22 27.6412 22 27.1998V25.5997C22 25.1581 22.3585 24.7998 22.7999 24.7998C23.2416 24.7998 23.5999 25.1583 23.5999 25.5997V27.1998C23.6 27.6412 23.2416 27.9997 22.7999 27.9997Z" fill="#E6B012"/>
<path d="M20.4 23.9998H18.7999C18.3583 23.9998 18 23.6413 18 23.1998C18 22.7582 18.3585 22.3999 18.7999 22.3999H20.4C20.8416 22.3999 21.1999 22.7584 21.1999 23.1998C21.2001 23.6415 20.8416 23.9998 20.4 23.9998Z" fill="#E6B012"/>
<path d="M42.7988 34.7304L39.2676 31.1992L42.7988 27.668L46.33 31.1992L42.7988 34.7304ZM41.5301 31.1992L42.7988 32.4679L44.0675 31.1992L42.7988 29.9305L41.5301 31.1992Z" fill="#E6B012"/>
<path d="M42.7999 29.5993C42.3583 29.5993 42 29.2408 42 28.7994V27.1993C42 26.7577 42.3585 26.3994 42.7999 26.3994C43.2414 26.3994 43.5999 26.7579 43.5999 27.1993V28.7994C43.5999 29.2408 43.2416 29.5993 42.7999 29.5993Z" fill="#E6B012"/>
<path d="M46.7994 31.9993H45.1993C44.7577 31.9993 44.3994 31.6408 44.3994 31.1993C44.3994 30.7577 44.7579 30.3994 45.1993 30.3994H46.7994C47.241 30.3994 47.5993 30.7579 47.5993 31.1993C47.5993 31.6408 47.2409 31.9993 46.7994 31.9993Z" fill="#E6B012"/>
<path d="M42.7999 35.9997C42.3583 35.9997 42 35.6412 42 35.1998V33.5997C42 33.1581 42.3585 32.7998 42.7999 32.7998C43.2414 32.7998 43.5999 33.1583 43.5999 33.5997V35.1998C43.5999 35.6414 43.2416 35.9997 42.7999 35.9997Z" fill="#E6B012"/>
<path d="M40.399 31.9993H38.799C38.3573 31.9993 37.999 31.6408 37.999 31.1993C37.999 30.7577 38.3575 30.3994 38.799 30.3994H40.399C40.8406 30.3994 41.1989 30.7579 41.1989 31.1993C41.1989 31.6408 40.8406 31.9993 40.399 31.9993Z" fill="#E6B012"/>
<path d="M29.1996 19.1997C28.758 19.1997 28.3997 18.8412 28.3997 18.3998C28.3997 14.8711 26.2462 11.9998 23.5997 11.9998C23.1581 11.9998 22.7998 11.6413 22.7998 11.1999C22.7998 10.7582 23.1583 10.3999 23.5997 10.3999C26.2462 10.3999 28.3997 7.52881 28.3997 4.00013C28.3997 3.55849 28.7581 3.2002 29.1996 3.2002C29.6411 3.2002 29.9995 3.55866 29.9995 4.00013C29.9995 7.52881 32.153 10.3999 34.7995 10.3999C35.2411 10.3999 35.5994 10.7584 35.5994 11.1999C35.5994 11.6415 35.2409 11.9998 34.7995 11.9998C32.153 11.9998 29.9995 14.8709 29.9995 18.3998C29.9995 18.8412 29.6412 19.1997 29.1996 19.1997ZM26.3884 11.1997C27.5763 11.9213 28.5611 13.09 29.1994 14.5293C29.8386 13.0902 30.8226 11.9213 32.0105 11.1997C30.8226 10.478 29.8378 9.30934 29.1994 7.87007C28.5604 9.30934 27.5765 10.4782 26.3884 11.1997Z" fill="#E6B012"/>
</g>
<defs>
<clipPath id="clip0">
<rect width="48" height="48" fill="white"/>
</clipPath>
</defs>
</svg>
