<svg width="24" height="24" viewBox="0 0 24 24" fill="none" xmlns="http://www.w3.org/2000/svg">
<path d="M23.4956 6.20321C23.3563 5.70501 23.0906 5.25124 22.7244 4.88583C22.3582 4.52042 21.9039 4.25575 21.4054 4.11746C19.5341 3.61721 12.0116 3.61721 12.0116 3.61721C12.0116 3.61721 4.50339 3.60521 2.61264 4.11746C2.11494 4.25636 1.66149 4.5213 1.29611 4.88668C0.930737 5.25206 0.665794 5.70551 0.526894 6.20321C0.171544 8.11888 -0.00347103 10.0636 0.00414444 12.012C0.000677117 13.9509 0.175665 15.8861 0.526894 17.793C0.666244 18.2909 0.931265 18.7447 1.29651 19.1108C1.66176 19.4768 2.11498 19.7428 2.61264 19.8832C4.48389 20.3835 12.0116 20.3835 12.0116 20.3835C12.0116 20.3835 19.5154 20.3835 21.4054 19.8832C21.9039 19.7434 22.358 19.4777 22.724 19.1116C23.0901 18.7455 23.3558 18.2914 23.4956 17.793C23.8399 15.8872 24.0079 13.9492 23.9959 12.012C24.0079 10.062 23.8436 8.12096 23.4956 6.20321ZM9.60864 15.6022V8.40596L15.8704 12.012L9.60864 15.6022Z" fill="white"/>
</svg>
