<svg width="44" height="56" viewBox="0 0 44 56" fill="none" xmlns="http://www.w3.org/2000/svg">
<mask id="mask0" mask-type="alpha" maskUnits="userSpaceOnUse" x="0" y="0" width="44" height="52">
<path d="M11.6852 47.9586C10.3825 52.0856 6.23871 53.1155 4.96981 48.9782C3.93623 45.6124 4.32381 40.2736 4.7114 36.1533C4.96979 33.3679 5.16361 30.7565 4.96979 28.6093C4.84059 27.2746 4.06541 25.1275 3.16104 22.7482C0.641704 15.8425 -2.90792 5.74509 4.13329 1.74093C6.7172 0.290155 8.45702 0 10.9118 0C13.6249 0 16.9741 1.79896 18.7829 2.4373C20.0748 2.90155 20.9256 3.3658 21.8299 3.3658C22.7343 3.3658 23.9982 2.26321 25.2902 1.74093C27.0989 1.04456 29.731 0 32.4441 0C34.8988 0 36.3675 0.290155 38.9514 1.74093C45.9926 5.74509 42.889 15.9005 40.3696 22.7482C39.4653 25.1855 38.7547 27.2746 38.5609 28.6093C38.3671 30.7565 38.5609 33.3679 38.8193 36.1533C39.2069 40.2155 39.5298 44.4518 38.5609 47.8176C37.3265 51.1764 35.3407 51.6575 33.87 51.4564C32.5264 51.2721 31.3181 50.4599 30.5297 49.3566C30.0516 48.6874 29.504 47.721 28.9686 46.3383C27.9013 43.5813 27.2127 40.6747 25.9625 37.9957C24.326 34.489 22.7455 31.9171 21.7008 31.9171C20.3442 31.9171 16.5975 34.7606 14.4011 40.1575C13.5338 42.2887 12.5537 45.207 11.6852 47.9586ZM21.8299 30.1762C24.4139 30.1762 27.5705 35.399 29.3572 41.4922C30.4741 45.3012 31.6765 47.3271 32.3955 48.2906C32.7905 48.82 33.3528 49.2116 34.0101 49.2776C34.8448 49.3614 36.019 49.153 36.67 47.5855C37.5744 44.5099 37.3981 40.2155 37.0106 36.3275C36.7521 33.4839 36.4937 30.8145 36.7521 28.4933C36.8813 26.9264 37.7211 24.7793 38.6255 22.2259C40.951 15.9005 43.9519 6.67357 38.138 3.3658C35.8771 2.08912 34.0335 1.74093 31.9018 1.74093C29.5762 1.74093 27.8874 2.55337 26.2079 3.19171C24.7867 3.71399 23.1219 5.22281 21.8299 5.22281C20.538 5.22281 19.2862 4.2943 17.8651 3.77202C16.8904 3.4153 14.8624 2.64178 12.8681 2.02869C10.213 1.21245 7.45314 1.82591 5.03439 3.19171C-0.779454 6.49946 2.70885 15.8425 5.03439 22.2259C5.93875 24.7213 6.71394 26.9264 6.90775 28.4933C7.16612 30.8145 6.90775 33.4839 6.64934 36.3275C6.37774 39.6457 5.93417 44.5233 6.32861 47.0266C6.45115 47.8041 6.81505 49.0152 7.55511 49.2836C8.7669 49.7228 9.51048 48.5687 9.90895 47.343C10.5133 45.4836 11.5141 42.5515 12.7216 39.5772C15.0471 33.7741 19.246 30.1762 21.8299 30.1762Z" fill="white"/>
</mask>
<g mask="url(#mask0)">
<path d="M4.71185 36.1535L12.3147 36.8687L12.3151 36.8638L12.3156 36.8589L4.71185 36.1535ZM4.97025 28.6095L12.5757 27.923L12.5735 27.8984L12.5711 27.8737L4.97025 28.6095ZM3.16149 22.7483L-4.01239 25.3655L-3.99482 25.4137L-3.97661 25.4616L3.16149 22.7483ZM4.13374 1.74107L0.395183 -4.91755L0.376985 -4.90734L0.358842 -4.89702L4.13374 1.74107ZM18.7833 2.43744L21.3656 -4.74904L21.3452 -4.75639L21.3247 -4.76363L18.7833 2.43744ZM25.2906 1.74107L22.5469 -5.38539L22.4876 -5.36253L22.4286 -5.3387L25.2906 1.74107ZM38.9519 1.74107L42.7268 -4.89702L42.7086 -4.90734L42.6904 -4.91755L38.9519 1.74107ZM40.3701 22.7483L47.5295 25.4048L47.5332 25.395L47.5368 25.385L40.3701 22.7483ZM38.5613 28.6095L31.0042 27.5122L30.9745 27.717L30.9559 27.923L38.5613 28.6095ZM38.8198 36.1535L31.216 36.8589L31.2169 36.8689L31.2179 36.8788L38.8198 36.1535ZM38.5613 47.8178L45.729 50.4519L45.8237 50.1942L45.8997 49.9304L38.5613 47.8178ZM29.3577 41.4924L36.6855 39.3437L29.3577 41.4924ZM36.6705 47.5856L43.7228 50.5146L43.8806 50.1346L43.9967 49.7398L36.6705 47.5856ZM37.011 36.3276L29.406 37.0187L29.409 37.0519L29.4123 37.0851L37.011 36.3276ZM36.7526 28.4934L44.3421 29.3382L44.3541 29.2297L44.3631 29.121L36.7526 28.4934ZM38.6259 22.226L31.4586 19.591L31.4429 19.6336L31.4278 19.6765L38.6259 22.226ZM38.1384 3.36593L41.9147 -3.27137L41.904 -3.27748L41.8932 -3.28356L38.1384 3.36593ZM26.2084 3.19184L28.8425 10.3595L28.882 10.345L28.9213 10.33L26.2084 3.19184ZM17.8656 3.77216L20.4997 -3.39551L20.4949 -3.39726L20.4901 -3.39902L17.8656 3.77216ZM5.03484 22.226L12.2143 19.6241L12.2121 19.6181L12.2099 19.6121L5.03484 22.226ZM6.90821 28.4934L14.4977 27.6486L14.4925 27.6023L14.4868 27.5561L6.90821 28.4934ZM6.64979 36.3276L-0.955228 35.6365L-0.958323 35.6706L-0.961113 35.7046L6.64979 36.3276ZM12.722 39.5773L19.7975 42.4498L19.804 42.4339L19.8104 42.4179L12.722 39.5773ZM32.3959 48.2908L26.2759 52.858L32.3959 48.2908ZM34.0106 49.2777L34.7738 41.6796L34.0106 49.2777ZM28.9691 46.3384L21.8478 49.0955L28.9691 46.3384ZM25.9629 37.9958L19.0431 41.2253L25.9629 37.9958ZM9.9094 47.3431L17.1718 49.7036L9.9094 47.3431ZM33.8704 51.4565L32.8346 59.0221L33.8704 51.4565ZM30.5302 49.3567L24.3168 53.7963L30.5302 49.3567ZM12.2702 46.7367C12.1012 46.1865 11.9297 44.9478 11.9443 42.9031C11.9579 40.9824 12.1242 38.8932 12.3147 36.8687L-2.89095 35.4383C-3.0881 37.5341 -3.30942 40.1743 -3.32805 42.7945C-3.3458 45.2907 -3.1943 48.4044 -2.32967 51.2198L12.2702 46.7367ZM12.3156 36.8589C12.5664 34.1547 12.8416 30.8694 12.5757 27.923L-2.6352 29.2959C-2.51355 30.6438 -2.62593 32.5813 -2.89187 35.4481L12.3156 36.8589ZM12.5711 27.8737C12.4231 26.3455 11.9786 24.8247 11.624 23.7257C11.2355 22.5218 10.7539 21.2302 10.2996 20.0351L-3.97661 25.4616C-3.52651 26.6457 -3.1684 27.6173 -2.91087 28.4155C-2.78458 28.8069 -2.70326 29.0934 -2.65444 29.2915C-2.60089 29.5089 -2.61503 29.506 -2.6306 29.3452L12.5711 27.8737ZM10.3354 20.1312C9.01304 16.5065 7.89589 13.2194 7.67271 10.526C7.56784 9.26065 7.71898 8.65417 7.79051 8.46698C7.7953 8.45435 7.73283 8.47915 7.90862 8.37916L0.358842 -4.89702C-6.88989 -0.77486 -7.98423 6.52123 -7.54789 11.7872C-7.12672 16.87 -5.20938 22.0844 -4.01239 25.3655L10.3354 20.1312ZM7.87232 8.39968C8.69608 7.93717 9.1144 7.80908 9.34258 7.75471C9.59351 7.69484 9.98047 7.6365 10.9122 7.6365V-7.63623C7.38629 -7.63623 4.312 -7.1167 0.395183 -4.91755L7.87232 8.39968ZM10.9122 7.6365C10.7835 7.6365 10.8592 7.62036 11.2026 7.70512C11.53 7.78592 11.9527 7.92088 12.4896 8.12355C13.0294 8.32733 13.5687 8.55454 14.1961 8.82003C14.7311 9.04632 15.5213 9.38421 16.2419 9.6385L21.3247 -4.76363C21.1409 -4.82848 20.8342 -4.95489 20.1476 -5.24539C19.5536 -5.49678 18.7469 -5.83899 17.8842 -6.1647C16.3145 -6.75739 13.7188 -7.63623 10.9122 -7.63623V7.6365ZM16.2009 9.62394C16.4012 9.69587 16.5988 9.7729 16.8728 9.88113C17.1069 9.97353 17.4947 10.1282 17.8827 10.2669C18.6585 10.5441 20.0727 11.0023 21.8304 11.0023V-4.27043C22.2673 -4.27043 22.6108 -4.21314 22.8206 -4.16625C23.0124 -4.12336 23.1035 -4.0861 23.0216 -4.11533C22.9854 -4.12828 22.9279 -4.14962 22.8334 -4.18619C22.7346 -4.22444 22.6314 -4.26527 22.4818 -4.32437C22.2046 -4.43379 21.8114 -4.58888 21.3656 -4.74904L16.2009 9.62394ZM21.8304 11.0023C23.5126 11.0023 24.8423 10.5137 25.525 10.2273C26.2582 9.91977 26.8867 9.5628 27.2334 9.36267C27.786 9.04358 27.7535 9.05233 28.0762 8.87079C28.2668 8.76357 28.2655 8.77518 28.1526 8.82085L22.4286 -5.3387C21.6698 -5.03191 21.026 -4.68663 20.588 -4.44022C20.3619 -4.31304 20.1528 -4.1904 19.992 -4.09575C19.8114 -3.9894 19.7073 -3.92764 19.597 -3.86394C19.4953 -3.80522 19.4509 -3.78142 19.4399 -3.77565C19.4275 -3.76916 19.4932 -3.8045 19.6168 -3.85633C19.7367 -3.90665 19.9795 -4.00156 20.319 -4.08714C20.6575 -4.17249 21.1777 -4.27043 21.8304 -4.27043V11.0023ZM28.0343 8.86753C29.0056 8.4936 29.7869 8.19095 30.619 7.95407C31.4383 7.72085 32.0338 7.6365 32.4445 7.6365V-7.63623C28.0695 -7.63623 24.1009 -5.98367 22.5469 -5.38539L28.0343 8.86753ZM32.4445 7.6365C33.3766 7.6365 33.6441 7.69591 33.7653 7.72676C33.8934 7.75939 34.2647 7.86707 35.2133 8.39968L42.6904 -4.91755C41.0551 -5.83573 39.4001 -6.5985 37.5342 -7.07363C35.6614 -7.55055 33.9672 -7.63623 32.4445 -7.63623V7.6365ZM35.177 8.37916C35.3892 8.49986 35.3856 8.53102 35.4247 8.62704C35.5248 8.87323 35.6885 9.51657 35.621 10.766C35.4784 13.4014 34.461 16.6932 33.2034 20.1116L47.5368 25.385C48.7985 21.9558 50.5926 16.746 50.8714 11.5908C51.1585 6.2841 49.8337 -0.8555 42.7268 -4.89702L35.177 8.37916ZM33.2107 20.0918C32.3774 22.3375 31.3367 25.2226 31.0042 27.5122L46.1185 29.7067C46.1157 29.7258 46.1304 29.6248 46.1961 29.3682C46.259 29.1227 46.3509 28.803 46.4789 28.3992C46.7377 27.5824 47.0909 26.5868 47.5295 25.4048L33.2107 20.0918ZM30.9559 27.923C30.69 30.8694 30.9652 34.1547 31.216 36.8589L46.4234 35.4481C46.1575 32.5813 46.0451 30.6438 46.1668 29.2959L30.9559 27.923ZM31.2179 36.8788C31.6336 41.236 31.7206 43.9768 31.2231 45.7052L45.8997 49.9304C47.3401 44.9271 46.781 39.1954 46.4216 35.4282L31.2179 36.8788ZM31.3937 45.1836C31.1873 45.7452 31.2856 45.0958 32.2946 44.4733C33.3305 43.8341 34.3621 43.816 34.9062 43.8905L32.8346 59.0221C34.8494 59.298 37.6094 59.1397 40.3144 57.4709C42.9926 55.8184 44.701 53.249 45.729 50.4519L31.3937 45.1836ZM36.7435 44.9173C36.6844 44.8347 36.426 44.4481 36.0904 43.5813L21.8478 49.0955C22.5829 50.9942 23.4196 52.5404 24.3168 53.7963L36.7435 44.9173ZM32.8828 34.7664C32.0043 32.8838 31.0019 30.9422 29.9385 29.3677C29.422 28.6028 28.6954 27.6283 27.7565 26.7619C27.0571 26.1164 24.9321 24.2809 21.7012 24.2809V39.5536C20.2583 39.5536 19.1699 39.1133 18.5562 38.7899C17.9435 38.4669 17.5582 38.1328 17.3989 37.9859C17.1014 37.7113 17.0681 37.5989 17.2819 37.9154C17.679 38.5035 18.2851 39.6012 19.0431 41.2253L32.8828 34.7664ZM21.7012 24.2809C19.2086 24.2809 17.2302 25.3728 16.3259 25.9234C15.1312 26.6507 13.9931 27.5838 12.9574 28.6231C10.8702 30.7175 8.81414 33.6286 7.32851 37.2792L21.4747 43.0361C22.1854 41.2898 23.1009 40.0808 23.7752 39.4041C24.1203 39.0579 24.3105 38.9428 24.2685 38.9683C24.2474 38.9812 24.0754 39.0859 23.7584 39.2043C23.5033 39.2995 22.7633 39.5536 21.7012 39.5536V24.2809ZM7.32851 37.2792C6.33909 39.7104 5.28314 42.8733 4.40346 45.6599L18.9678 50.2574C19.8253 47.541 20.7295 44.8671 21.4747 43.0361L7.32851 37.2792ZM21.8304 37.8127C20.85 37.8127 20.0957 37.5634 19.6371 37.353C19.1919 37.1486 18.9487 36.9477 18.8962 36.9031C18.8215 36.8394 19.048 37.0264 19.4786 37.693C20.3213 38.9974 21.2882 41.1119 22.0299 43.6411L36.6855 39.3437C35.6404 35.7795 34.1357 32.236 32.3074 29.4057C31.4025 28.005 30.2437 26.5054 28.7945 25.2721C27.4356 24.1156 25.0434 22.5399 21.8304 22.5399V37.8127ZM22.0299 43.6411C23.3562 48.1643 24.9236 51.0457 26.2759 52.858L38.5159 43.7236C38.4303 43.6087 37.593 42.4384 36.6855 39.3437L22.0299 43.6411ZM33.2473 56.8758C34.5796 57.0097 36.6402 56.9639 38.8009 55.8927C41.1189 54.7437 42.7736 52.8 43.7228 50.5146L29.6181 44.6567C29.9164 43.9386 30.6585 42.8829 32.0179 42.209C33.2201 41.6131 34.2763 41.6296 34.7738 41.6796L33.2473 56.8758ZM43.9967 49.7398C45.3692 45.0722 44.9918 39.403 44.6097 35.5701L29.4123 37.0851C29.8054 41.0284 29.7805 43.9478 29.3443 45.4314L43.9967 49.7398ZM44.616 35.6365C44.3331 32.5233 44.1879 30.7235 44.3421 29.3382L29.1631 27.6486C28.8005 30.9058 29.1721 34.4449 29.406 37.0187L44.616 35.6365ZM44.3631 29.121C44.3524 29.2516 44.3636 29.0125 44.6665 28.0731C44.9613 27.1589 45.3153 26.2122 45.8241 24.7756L31.4278 19.6765C31.0322 20.7932 30.5142 22.1969 30.1307 23.3862C29.7553 24.5505 29.282 26.1684 29.142 27.8658L44.3631 29.121ZM45.7933 24.8611C46.9356 21.754 48.625 16.9882 49.0404 12.345C49.4468 7.80323 48.7745 0.631473 41.9147 -3.27137L34.3622 10.0033C34.0711 9.83766 33.8398 9.49326 33.7863 9.34038C33.7845 9.33523 33.8261 9.45461 33.8503 9.7477C33.8745 10.041 33.8764 10.4483 33.8285 10.9838C33.6157 13.3622 32.6418 16.3727 31.4586 19.591L45.7933 24.8611ZM41.8932 -3.28356C38.3314 -5.29477 35.1592 -5.89529 31.9022 -5.89529V9.37744C32.5395 9.37744 32.8972 9.42886 33.1603 9.4931C33.4137 9.55501 33.7898 9.68009 34.3837 10.0154L41.8932 -3.28356ZM31.9022 -5.89529C27.8309 -5.89529 24.5696 -4.35462 23.4954 -3.94635L28.9213 10.33C29.179 10.2321 29.4276 10.1344 29.6389 10.0511C29.8623 9.96309 30.0426 9.89187 30.2241 9.82198C30.5807 9.68467 30.8345 9.59451 31.0512 9.52808C31.4375 9.40966 31.6729 9.37744 31.9022 9.37744V-5.89529ZM23.5742 -3.97582C22.6188 -3.62471 21.8132 -3.18378 21.3181 -2.90089C21.0519 -2.74878 20.8008 -2.59847 20.6074 -2.48232C20.3928 -2.35344 20.2533 -2.26913 20.111 -2.18579C19.8057 -2.00693 19.7943 -2.01663 19.9288 -2.07253C20.0279 -2.11371 20.74 -2.41343 21.8304 -2.41343V12.8593C23.5668 12.8593 24.9715 12.371 25.7905 12.0306C26.6449 11.6755 27.3808 11.2559 27.8308 10.9923C28.546 10.5733 28.4684 10.6036 28.8948 10.36C29.1519 10.2131 29.0873 10.2695 28.8425 10.3595L23.5742 -3.97582ZM21.8304 -2.41343C22.4236 -2.41343 22.8507 -2.30669 23.0356 -2.25188C23.2037 -2.20208 23.2474 -2.17138 23.0653 -2.25442C22.9814 -2.29271 22.8787 -2.34142 22.7251 -2.41565C22.5948 -2.47857 22.3789 -2.58366 22.1833 -2.67673C21.7748 -2.87103 21.1832 -3.14432 20.4997 -3.39551L15.2314 10.9398C15.2585 10.9498 15.3563 10.9884 15.6226 11.1151C15.7571 11.1791 16.3471 11.4677 16.7275 11.6412C17.552 12.0172 19.4507 12.8593 21.8304 12.8593V-2.41343ZM20.4901 -3.39902C19.6449 -3.70836 17.3541 -4.58127 15.1125 -5.27043L10.6246 9.32805C12.3715 9.8651 14.1369 10.5392 15.241 10.9433L20.4901 -3.39902ZM1.25856 -3.44546C-5.81983 0.581766 -6.14198 8.05171 -5.59675 12.4873C-5.03289 17.0741 -3.21664 21.8852 -2.14021 24.84L12.2099 19.6121C10.9608 16.1834 9.8701 13.1313 9.56189 10.6239C9.49332 10.066 9.48054 9.64456 9.49469 9.34348C9.50885 9.04195 9.54677 8.93224 9.53812 8.95967C9.46817 9.18164 9.18532 9.61625 8.81114 9.82915L1.25856 -3.44546ZM-2.14455 24.828C-1.68863 26.086 -1.32404 27.1115 -1.05056 27.9863C-0.916975 28.4137 -0.821683 28.7532 -0.756576 29.0192C-0.724655 29.1497 -0.703065 29.25 -0.688902 29.3234C-0.674592 29.3975 -0.670315 29.4316 -0.670422 29.4308L14.4868 27.5561C14.1633 24.9401 13.0072 21.8118 12.2143 19.6241L-2.14455 24.828ZM-0.681291 29.3382C-0.527092 30.7235 -0.672326 32.5233 -0.955228 35.6365L14.2548 37.0187C14.4887 34.4449 14.8603 30.9058 14.4977 27.6486L-0.681291 29.3382ZM-0.961113 35.7046C-1.09155 37.2982 -1.28428 39.5045 -1.38752 41.6085C-1.48303 43.555 -1.54654 46.1064 -1.21424 48.2153L13.8724 45.8381C13.8102 45.4437 13.7713 44.3047 13.8669 42.357C13.9547 40.5669 14.1195 38.6752 14.2607 36.9506L-0.961113 35.7046ZM17.1718 49.7036C17.7461 47.9364 18.6842 45.1922 19.7975 42.4498L5.64653 36.7048C4.34487 39.9111 3.28133 43.031 2.647 44.9826L17.1718 49.7036ZM19.8104 42.4179C20.6009 40.4454 21.6552 39.0036 22.5154 38.1633C22.9461 37.7426 23.2224 37.5755 23.2697 37.55C23.3846 37.488 22.8666 37.8127 21.8304 37.8127V22.5399C17.5173 22.5399 13.9743 25.1564 11.8432 27.238C9.37664 29.6475 7.16871 32.9062 5.63365 36.7367L19.8104 42.4179ZM-1.21424 48.2153C-1.08398 49.0419 -0.810015 50.2657 -0.230531 51.5293C0.204231 52.4772 1.61233 55.2518 4.95295 56.4629L10.1582 42.1045C11.534 42.6033 12.4055 43.4193 12.8664 43.9569C13.3225 44.4889 13.555 44.9515 13.652 45.163C13.8339 45.5596 13.8646 45.789 13.8724 45.8381L-1.21424 48.2153ZM15.1125 -5.27043C9.87835 -6.87952 4.92444 -5.51551 1.28007 -3.45765L8.7896 9.84132C9.98276 9.16759 10.5485 9.30469 10.6246 9.32805L15.1125 -5.27043ZM-2.33048 51.2172C-1.65694 53.4134 -0.353761 55.7201 1.92413 57.3523C4.293 59.0496 7.1097 59.5663 9.73168 59.0715C14.6916 58.1353 17.7613 54.0793 18.9678 50.2574L4.40346 45.6599C4.30723 45.9648 4.65365 44.4876 6.89884 44.0637C8.16342 43.825 9.62482 44.0816 10.8191 44.9372C11.9225 45.7278 12.2319 46.6118 12.271 46.7393L-2.33048 51.2172ZM26.2759 52.858C27.604 54.6378 29.9406 56.5438 33.2473 56.8758L34.7738 41.6796C36.766 41.8797 37.978 43.0027 38.5159 43.7236L26.2759 52.858ZM36.0904 43.5813C35.6509 42.4461 35.3061 41.3275 34.7896 39.755C34.3137 38.3059 33.7124 36.544 32.8828 34.7664L19.0431 41.2253C19.4637 42.1266 19.8318 43.1576 20.2795 44.5208C20.6868 45.7606 21.22 47.4738 21.8478 49.0955L36.0904 43.5813ZM4.95295 56.4629C6.56656 57.0478 8.43716 57.225 10.3428 56.7174C12.179 56.2287 13.5296 55.2441 14.4348 54.34C16.0847 52.6916 16.8335 50.7441 17.1718 49.7036L2.647 44.9826C2.64827 44.9787 2.68631 44.8579 2.79266 44.6567C2.88853 44.4753 3.1414 44.034 3.64016 43.5357C4.15814 43.0181 5.07078 42.3164 6.41429 41.9587C7.82727 41.5826 9.1505 41.7392 10.1582 42.1045L4.95295 56.4629ZM34.9062 43.8905C35.9243 44.0299 36.4838 44.5538 36.7435 44.9173L24.3168 53.7963C26.1532 56.3662 29.1296 58.5151 32.8346 59.0221L34.9062 43.8905Z" fill="#B0B0B0"/>
</g>
<mask id="mask1" mask-type="alpha" maskUnits="userSpaceOnUse" x="13" y="9" width="17" height="16">
<path d="M29.0178 14.0508H24.1306V9.16357H18.6324V14.0508H13.7451V19.549H18.6324V24.4363H24.1306V19.549H29.0178V14.0508Z" fill="#D9D9D9"/>
</mask>
<g mask="url(#mask1)">
<path d="M10.7296 42.4382C10.2085 42.8309 9.18471 43.0233 8.35637 42.787C7.59177 42.5689 7.33997 42.4501 6.60719 41.6727C5.81377 40.831 5.29088 39.0409 5.29088 39.0409C5.29088 39.0409 4.51253 36.8599 4.24507 35.4606L3.58156 31.9894C3.49764 31.5504 3.28612 29.3722 3.08038 27.9492C2.86386 26.4515 2.74643 24.6495 1.73868 23.8742C0.891139 23.2223 1.05146 23.4156 -0.179846 22.7116C-3.04364 21.0743 -4.32102 19.6698 -4.74574 19.1529C-5.17048 18.636 -5.70502 17.4435 -5.7627 16.1962C-5.80918 15.1907 -5.42706 14.2949 -5.30457 13.8655C-5.19634 13.4861 -4.57974 12.162 -4.02775 11.5631C-3.42902 10.9134 -2.91391 10.5568 -2.39389 10.183C-1.4405 9.49767 0.356355 8.82715 0.495092 8.75068L7.14932 4.90527L22.1854 5.09169L28.2376 4.97187L32.421 6.16516L37.3333 6.33555L42.2386 5.88862C42.2386 5.88862 44.2148 10.5548 44.763 11.5316C45.2571 12.6982 45.477 13.3763 45.4265 15.0028C45.293 16.1955 44.9492 16.9179 44.7231 17.4688C44.7231 17.4688 44.0354 18.9136 42.7646 19.987C42.22 20.447 41.4842 20.8525 40.1498 21.9077C39.711 22.2547 39.1158 23.1171 38.8441 23.5866C36.2604 28.8832 35.45 30.4131 35.0424 31.1173C34.7783 31.5736 32.3433 35.7489 31.1831 37.4009C29.8628 39.2807 27.973 41.4081 27.973 41.4081C27.9189 41.5979 25.9311 43.4924 24.6764 43.5447C24.0489 43.5709 23.4402 43.4193 23.1472 43.1085C22.3538 42.2669 22.1084 41.4546 21.1386 36.3819C21.0556 35.948 20.9169 34.6457 19.9593 33.9944C18.9206 33.2878 17.9937 33.6388 17.9937 33.6388C17.5573 33.7195 16.7037 34.2964 15.9775 34.9098C15.2513 35.5232 14.8342 36.0195 13.7196 37.7529C13.6343 37.8857 12.7782 39.604 12.3346 40.4347C11.5195 41.8431 11.5195 41.8431 10.7297 42.4382L10.7296 42.4382Z" fill="url(#paint0_linear)"/>
</g>
<defs>
<linearGradient id="paint0_linear" x1="-9.03" y1="8.08499" x2="57.1638" y2="-10.3712" gradientUnits="userSpaceOnUse">
<stop stop-color="#362F1D"/>
<stop offset="0.0440107" stop-color="#4C4023"/>
<stop offset="0.0900167" stop-color="#3B3113"/>
<stop offset="0.129068" stop-color="#4C330A"/>
<stop offset="0.171043" stop-color="#604818"/>
<stop offset="0.217443" stop-color="#7D6131"/>
<stop offset="0.257919" stop-color="#BE995C"/>
<stop offset="0.291121" stop-color="#E8BF7D"/>
<stop offset="0.300607" stop-color="#EDC27E"/>
<stop offset="0.309061" stop-color="#EDC27D"/>
<stop offset="0.326115" stop-color="#ECBE73"/>
<stop offset="0.326215" stop-color="#E3BC77"/>
<stop offset="0.342976" stop-color="#D9AF66"/>
<stop offset="0.373254" stop-color="#AB8952"/>
<stop offset="0.406382" stop-color="#7A612F"/>
<stop offset="0.432309" stop-color="#6A5123"/>
<stop offset="0.480109" stop-color="#60471C"/>
<stop offset="0.521151" stop-color="#6B5022"/>
<stop offset="0.55799" stop-color="#926E3B"/>
<stop offset="0.601555" stop-color="#C4A262"/>
<stop offset="0.633881" stop-color="#E0C87E"/>
<stop offset="0.662733" stop-color="#A88D51"/>
<stop offset="0.689053" stop-color="#847044"/>
<stop offset="0.734956" stop-color="#5B502D"/>
<stop offset="0.862513" stop-color="#ACABA6"/>
<stop offset="0.870153" stop-color="#3E3633"/>
</linearGradient>
</defs>
</svg>
