<svg width="44" height="56" viewBox="0 0 44 56" fill="none" xmlns="http://www.w3.org/2000/svg">
<mask id="mask0" mask-type="alpha" maskUnits="userSpaceOnUse" x="12" y="21" width="18" height="6">
<path d="M14.3957 23.8695L13.0444 22.6414C12.7527 22.3762 12.9402 21.8909 13.3345 21.8909C13.8346 21.8909 14.3192 22.0647 14.7052 22.3825L15.4115 22.964C16.4209 23.795 17.5923 24.4067 18.8511 24.76L18.9769 24.7953C20.6119 25.2542 22.3416 25.2542 23.9766 24.7953L24.1529 24.7458C25.3761 24.4025 26.5061 23.7877 27.4589 22.9473L28.0332 22.4407C28.4349 22.0864 28.9521 21.8909 29.4877 21.8909C29.879 21.8909 30.0754 22.3636 29.7993 22.6409L28.8612 23.5831C27.6138 24.8362 26.0542 25.7332 24.3438 26.1812L24.0867 26.2486C22.2551 26.7284 20.3277 26.7023 18.5098 26.1732C16.981 25.7282 15.574 24.9403 14.3957 23.8695Z" fill="black"/>
</mask>
<g mask="url(#mask0)">
<path d="M16.3581 44.1121C16.0848 44.4579 15.472 44.7596 14.9249 44.748C14.4199 44.7372 14.2474 44.703 13.6889 44.3219C13.0843 43.9092 12.2821 41.3942 12.2821 41.3942C12.2821 41.3942 11.2896 40.3783 10.9397 39.5114C10.5056 38.436 10.9693 39.5997 10.5352 38.5244C10.4254 38.2523 10.0083 36.8675 9.69374 35.9744C9.36263 35.0345 9.05346 33.8789 8.32393 33.5465C7.71037 33.2669 7.83561 33.3655 6.97611 33.118C4.97705 32.5424 3.9971 31.8458 3.66473 31.5816C3.33236 31.3174 2.84305 30.6313 2.64376 29.8274C2.48308 29.1794 2.60386 28.5291 2.62395 28.2279C2.6417 27.9617 2.85253 26.9917 3.11805 26.5059C3.40605 25.979 3.68034 25.6577 3.95544 25.3244C4.45979 24.7132 5.49171 23.9666 5.56812 23.8928L9.21107 20.239L18.6054 17.7736L22.3611 16.6542L25.1243 16.713L28.2077 15.9791L31.2059 14.8435C31.2059 14.8435 33.0486 17.5481 33.5182 18.0911C33.9789 18.7672 34.2047 19.1718 34.3863 20.2418C34.4593 21.0429 34.3397 21.5734 34.271 21.9718C34.271 21.9718 34.0316 23.0328 33.3804 23.9518C33.1012 24.3456 32.6958 24.7368 32.0024 25.6549C31.7744 25.9568 31.5165 26.6218 31.4087 26.9749C30.4923 30.8753 30.1878 32.013 30.026 32.5426C29.9212 32.8857 28.9507 36.029 28.4441 37.3064C27.8675 38.76 26.9685 40.4733 26.9685 40.4733C26.9597 40.6064 25.9691 42.1845 25.1941 42.4345C24.8065 42.5596 24.4073 42.5654 24.184 42.413C23.5794 42.0004 23.3201 41.5126 22.0513 38.3697C21.9428 38.1009 21.6858 37.275 21.0037 37.0148C20.2639 36.7325 19.7323 37.121 19.7323 37.121C19.4709 37.2486 19.0145 37.772 18.6423 38.2971C18.2701 38.8223 18.0752 39.2179 17.6077 40.5406C17.5719 40.6419 17.2635 41.9103 17.0959 42.5287C16.7724 43.5879 16.7724 43.5879 16.3582 44.1121L16.3581 44.1121Z" fill="url(#paint0_linear)"/>
</g>
<mask id="mask1" mask-type="alpha" maskUnits="userSpaceOnUse" x="9" y="9" width="9" height="9">
<path d="M17.3092 13.1282C17.3092 15.409 15.5997 17.258 13.491 17.258C11.3823 17.258 9.67285 15.409 9.67285 13.1282C9.67285 10.8473 11.3823 9.16357 13.491 9.16357C15.5997 9.16357 17.3092 10.8473 17.3092 13.1282Z" fill="#C4C4C4"/>
</mask>
<g mask="url(#mask1)">
<path d="M6.14551 21.5866C5.91051 21.7781 5.44876 21.872 5.07523 21.7567C4.73041 21.6504 4.61685 21.5924 4.28638 21.2132C3.92856 20.8026 3.69274 19.9294 3.69274 19.9294C3.69274 19.9294 3.34173 18.8656 3.2211 18.183L2.92188 16.4898C2.88403 16.2756 2.78864 15.2132 2.69585 14.519C2.59821 13.7885 2.54525 12.9095 2.09077 12.5314C1.70855 12.2133 1.78085 12.3076 1.22556 11.9642C-0.065954 11.1656 -0.642026 10.4805 -0.833566 10.2283C-1.02511 9.97619 -1.26617 9.3945 -1.29219 8.78614C-1.31316 8.29568 -1.14083 7.85868 -1.08559 7.64919C-1.03679 7.46413 -0.758705 6.8183 -0.509764 6.52613C-0.239751 6.20922 -0.00744772 6.03527 0.227074 5.85296C0.657032 5.51869 1.46738 5.1916 1.52994 5.15428L4.53086 3.27856L11.3119 3.36949L14.0413 3.31104L15.9279 3.89311L18.1433 3.97624L20.3554 3.75822C20.3554 3.75822 21.2467 6.0343 21.4939 6.51081C21.7167 7.07982 21.8159 7.41057 21.7931 8.20399C21.7329 8.78578 21.5778 9.13818 21.4759 9.40687C21.4759 9.40687 21.1657 10.1116 20.5926 10.6352C20.3471 10.8596 20.0152 11.0574 19.4134 11.5721C19.2155 11.7414 18.9471 12.162 18.8246 12.391C17.6594 14.9746 17.2939 15.7209 17.1101 16.0644C16.991 16.287 15.8928 18.3237 15.3696 19.1294C14.7742 20.0464 13.9219 21.0841 13.9219 21.0841C13.8975 21.1767 13.0011 22.1008 12.4353 22.1263C12.1522 22.1391 11.8777 22.0652 11.7456 21.9136C11.3878 21.503 11.2771 21.1068 10.8397 18.6324C10.8023 18.4208 10.7397 17.7855 10.3079 17.4678C9.83947 17.1232 9.42145 17.2944 9.42145 17.2944C9.22464 17.3337 8.83972 17.6151 8.51222 17.9143C8.18472 18.2135 7.99656 18.4557 7.49393 19.3012C7.45545 19.3659 7.0694 20.2041 6.86933 20.6093C6.50172 21.2963 6.50172 21.2963 6.14556 21.5866L6.14551 21.5866Z" fill="url(#paint1_linear)"/>
<path d="M13.4911 15.7818C14.7563 15.7818 15.782 14.6422 15.782 13.2364C15.782 11.8306 14.7563 10.6909 13.4911 10.6909C12.2259 10.6909 11.2002 11.8306 11.2002 13.2364C11.2002 14.6422 12.2259 15.7818 13.4911 15.7818Z" fill="white"/>
</g>
<mask id="mask2" mask-type="alpha" maskUnits="userSpaceOnUse" x="25" y="9" width="9" height="9">
<path d="M33.0905 13.1282C33.0905 15.409 31.381 17.258 29.2723 17.258C27.1636 17.258 25.4541 15.409 25.4541 13.1282C25.4541 10.8473 27.1636 9.16357 29.2723 9.16357C31.381 9.16357 33.0905 10.8473 33.0905 13.1282Z" fill="#C4C4C4"/>
</mask>
<g mask="url(#mask2)">
<path d="M21.9267 21.5866C21.6917 21.7781 21.23 21.872 20.8565 21.7567C20.5116 21.6504 20.3981 21.5924 20.0676 21.2132C19.7098 20.8026 19.474 19.9294 19.474 19.9294C19.474 19.9294 19.123 18.8656 19.0023 18.183L18.7031 16.4898C18.6652 16.2756 18.5699 15.2132 18.4771 14.519C18.3794 13.7885 18.3265 12.9095 17.872 12.5314C17.4898 12.2133 17.5621 12.3076 17.0068 11.9642C15.7153 11.1656 15.1392 10.4805 14.9477 10.2283C14.7561 9.97619 14.515 9.3945 14.4891 8.78614C14.4681 8.29568 14.6404 7.85868 14.6957 7.64919C14.7444 7.46413 15.0225 6.8183 15.2714 6.52613C15.5415 6.20922 15.7738 6.03527 16.0083 5.85296C16.4383 5.51869 17.2486 5.1916 17.3112 5.15428L20.3121 3.27856L27.0931 3.36949L29.8225 3.31104L31.7091 3.89311L33.9245 3.97624L36.1366 3.75822C36.1366 3.75822 37.0279 6.0343 37.2751 6.51081C37.4979 7.07982 37.5971 7.41057 37.5743 8.20399C37.5141 8.78578 37.3591 9.13818 37.2571 9.40687C37.2571 9.40687 36.947 10.1116 36.3739 10.6352C36.1283 10.8596 35.7965 11.0574 35.1946 11.5721C34.9967 11.7414 34.7283 12.162 34.6058 12.391C33.4406 14.9746 33.0751 15.7209 32.8913 16.0644C32.7722 16.287 31.674 18.3237 31.1508 19.1294C30.5554 20.0464 29.7031 21.0841 29.7031 21.0841C29.6788 21.1767 28.7823 22.1008 28.2165 22.1263C27.9334 22.1391 27.6589 22.0652 27.5268 21.9136C27.169 21.503 27.0583 21.1068 26.621 18.6324C26.5835 18.4208 26.521 17.7855 26.0891 17.4678C25.6207 17.1232 25.2027 17.2944 25.2027 17.2944C25.0059 17.3337 24.6209 17.6151 24.2934 17.9143C23.9659 18.2135 23.7778 18.4557 23.2752 19.3012C23.2367 19.3659 22.8506 20.2041 22.6506 20.6093C22.2829 21.2963 22.2829 21.2963 21.9268 21.5866L21.9267 21.5866Z" fill="url(#paint2_linear)"/>
<path d="M29.2724 15.7818C30.5376 15.7818 31.5633 14.6422 31.5633 13.2364C31.5633 11.8306 30.5376 10.6909 29.2724 10.6909C28.0071 10.6909 26.9814 11.8306 26.9814 13.2364C26.9814 14.6422 28.0071 15.7818 29.2724 15.7818Z" fill="white"/>
</g>
<mask id="mask3" mask-type="alpha" maskUnits="userSpaceOnUse" x="0" y="0" width="44" height="52">
<path d="M11.6852 47.9586C10.3825 52.0856 6.23871 53.1155 4.96981 48.9782C3.93623 45.6124 4.32381 40.2736 4.7114 36.1533C4.96979 33.3679 5.16361 30.7565 4.96979 28.6093C4.84059 27.2746 4.06541 25.1275 3.16104 22.7482C0.641704 15.8425 -2.90792 5.74509 4.13329 1.74093C6.7172 0.290155 8.45702 0 10.9118 0C13.6249 0 16.9741 1.79896 18.7829 2.4373C20.0748 2.90155 20.9256 3.3658 21.8299 3.3658C22.7343 3.3658 23.9982 2.26321 25.2902 1.74093C27.0989 1.04456 29.731 0 32.4441 0C34.8988 0 36.3675 0.290155 38.9514 1.74093C45.9926 5.74509 42.889 15.9005 40.3696 22.7482C39.4653 25.1855 38.7547 27.2746 38.5609 28.6093C38.3671 30.7565 38.5609 33.3679 38.8193 36.1533C39.2069 40.2155 39.5298 44.4518 38.5609 47.8176C37.3265 51.1764 35.3407 51.6575 33.87 51.4564C32.5264 51.2721 31.3181 50.4599 30.5297 49.3566C30.0516 48.6874 29.504 47.721 28.9686 46.3383C27.9013 43.5813 27.2127 40.6747 25.9625 37.9957C24.326 34.489 22.7455 31.9171 21.7008 31.9171C20.3442 31.9171 16.5975 34.7606 14.4011 40.1575C13.5338 42.2887 12.5537 45.207 11.6852 47.9586ZM21.8299 30.1762C24.4139 30.1762 27.5705 35.399 29.3572 41.4922C30.4741 45.3012 31.6765 47.3271 32.3955 48.2906C32.7905 48.82 33.3528 49.2116 34.0101 49.2776C34.8448 49.3614 36.019 49.153 36.67 47.5855C37.5744 44.5099 37.3981 40.2155 37.0106 36.3275C36.7521 33.4839 36.4937 30.8145 36.7521 28.4933C36.8813 26.9264 37.7211 24.7793 38.6255 22.2259C40.951 15.9005 43.9519 6.67357 38.138 3.3658C35.8771 2.08912 34.0335 1.74093 31.9018 1.74093C29.5762 1.74093 27.8874 2.55337 26.2079 3.19171C24.7867 3.71399 23.1219 5.22281 21.8299 5.22281C20.538 5.22281 19.2862 4.2943 17.8651 3.77202C16.8904 3.4153 14.8624 2.64178 12.8681 2.02869C10.213 1.21245 7.45314 1.82591 5.03439 3.19171C-0.779454 6.49946 2.70885 15.8425 5.03439 22.2259C5.93875 24.7213 6.71394 26.9264 6.90775 28.4933C7.16612 30.8145 6.90775 33.4839 6.64934 36.3275C6.37774 39.6457 5.93417 44.5233 6.32861 47.0266C6.45115 47.8041 6.81505 49.0152 7.55511 49.2836C8.7669 49.7228 9.51048 48.5687 9.90895 47.343C10.5133 45.4836 11.5141 42.5515 12.7216 39.5772C15.0471 33.7741 19.246 30.1762 21.8299 30.1762Z" fill="white"/>
</mask>
<g mask="url(#mask3)">
<path d="M4.71185 36.1532L12.3147 36.8685L12.3151 36.8635L12.3156 36.8586L4.71185 36.1532ZM4.97025 28.6092L12.5757 27.9228L12.5735 27.8981L12.5711 27.8735L4.97025 28.6092ZM3.16149 22.7481L-4.01239 25.3652L-3.99482 25.4134L-3.97661 25.4613L3.16149 22.7481ZM4.13374 1.74082L0.395183 -4.9178L0.376985 -4.90758L0.358842 -4.89726L4.13374 1.74082ZM18.7833 2.43719L21.3656 -4.74929L21.3452 -4.75664L21.3247 -4.76387L18.7833 2.43719ZM25.2906 1.74082L22.5469 -5.38563L22.4876 -5.36277L22.4286 -5.33895L25.2906 1.74082ZM38.9519 1.74082L42.7268 -4.89726L42.7086 -4.90758L42.6904 -4.9178L38.9519 1.74082ZM40.3701 22.7481L47.5295 25.4046L47.5332 25.3947L47.5368 25.3848L40.3701 22.7481ZM38.5613 28.6092L31.0042 27.512L30.9745 27.7167L30.9559 27.9228L38.5613 28.6092ZM38.8198 36.1532L31.216 36.8586L31.2169 36.8686L31.2179 36.8786L38.8198 36.1532ZM38.5613 47.8175L45.729 50.4517L45.8237 50.194L45.8997 49.9301L38.5613 47.8175ZM29.3577 41.4921L36.6855 39.3434L29.3577 41.4921ZM36.6705 47.5854L43.7228 50.5143L43.8806 50.1344L43.9967 49.7396L36.6705 47.5854ZM37.011 36.3273L29.406 37.0184L29.409 37.0516L29.4123 37.0848L37.011 36.3273ZM36.7526 28.4932L44.3421 29.338L44.3541 29.2295L44.3631 29.1207L36.7526 28.4932ZM38.6259 22.2258L31.4586 19.5907L31.4429 19.6334L31.4278 19.6763L38.6259 22.2258ZM38.1384 3.36569L41.9147 -3.27161L41.904 -3.27772L41.8932 -3.2838L38.1384 3.36569ZM26.2084 3.1916L28.8425 10.3593L28.882 10.3447L28.9213 10.3298L26.2084 3.1916ZM17.8656 3.77191L20.4997 -3.39575L20.4949 -3.39751L20.4901 -3.39926L17.8656 3.77191ZM5.03484 22.2258L12.2143 19.6238L12.2121 19.6178L12.2099 19.6119L5.03484 22.2258ZM6.90821 28.4932L14.4977 27.6483L14.4925 27.602L14.4868 27.5558L6.90821 28.4932ZM6.64979 36.3273L-0.955228 35.6363L-0.958323 35.6703L-0.961113 35.7044L6.64979 36.3273ZM12.722 39.5771L19.7975 42.4496L19.804 42.4336L19.8104 42.4177L12.722 39.5771ZM32.3959 48.2905L26.2759 52.8578L32.3959 48.2905ZM34.0106 49.2775L34.7738 41.6793L34.0106 49.2775ZM28.9691 46.3382L21.8478 49.0952L28.9691 46.3382ZM25.9629 37.9956L19.0431 41.225L25.9629 37.9956ZM9.9094 47.3429L17.1718 49.7034L9.9094 47.3429ZM33.8704 51.4563L32.8346 59.0219L33.8704 51.4563ZM30.5302 49.3565L24.3168 53.796L30.5302 49.3565ZM12.2702 46.7364C12.1012 46.1863 11.9297 44.9476 11.9443 42.9029C11.9579 40.9822 12.1242 38.8929 12.3147 36.8685L-2.89095 35.4381C-3.0881 37.5338 -3.30942 40.174 -3.32805 42.7943C-3.3458 45.2905 -3.1943 48.4041 -2.32967 51.2195L12.2702 46.7364ZM12.3156 36.8586C12.5664 34.1545 12.8416 30.8692 12.5757 27.9228L-2.6352 29.2957C-2.51355 30.6436 -2.62593 32.581 -2.89187 35.4479L12.3156 36.8586ZM12.5711 27.8735C12.4231 26.3453 11.9786 24.8245 11.624 23.7255C11.2355 22.5216 10.7539 21.23 10.2996 20.0349L-3.97661 25.4613C-3.52651 26.6455 -3.1684 27.6171 -2.91087 28.4153C-2.78458 28.8067 -2.70326 29.0931 -2.65444 29.2913C-2.60089 29.5087 -2.61503 29.5057 -2.6306 29.345L12.5711 27.8735ZM10.3354 20.1309C9.01304 16.5063 7.89589 13.2191 7.67271 10.5258C7.56784 9.26041 7.71898 8.65393 7.79051 8.46673C7.7953 8.45411 7.73283 8.4789 7.90862 8.37892L0.358842 -4.89726C-6.88989 -0.775104 -7.98423 6.52099 -7.54789 11.787C-7.12672 16.8697 -5.20938 22.0842 -4.01239 25.3652L10.3354 20.1309ZM7.87232 8.39943C8.69608 7.93692 9.1144 7.80884 9.34258 7.75447C9.59351 7.6946 9.98047 7.63625 10.9122 7.63625V-7.63647C7.38629 -7.63647 4.312 -7.11695 0.395183 -4.9178L7.87232 8.39943ZM10.9122 7.63625C10.7835 7.63625 10.8592 7.62012 11.2026 7.70488C11.53 7.78567 11.9527 7.92063 12.4896 8.1233C13.0294 8.32709 13.5687 8.5543 14.1961 8.81979C14.7311 9.04608 15.5213 9.38396 16.2419 9.63826L21.3247 -4.76387C21.1409 -4.82873 20.8342 -4.95513 20.1476 -5.24563C19.5536 -5.49702 18.7469 -5.83923 17.8842 -6.16495C16.3145 -6.75763 13.7188 -7.63647 10.9122 -7.63647V7.63625ZM16.2009 9.6237C16.4012 9.69563 16.5988 9.77265 16.8728 9.88089C17.1069 9.97329 17.4947 10.128 17.8827 10.2666C18.6585 10.5438 20.0727 11.0021 21.8304 11.0021V-4.27068C22.2673 -4.27068 22.6108 -4.21338 22.8206 -4.1665C23.0124 -4.1236 23.1035 -4.08634 23.0216 -4.11557C22.9854 -4.12852 22.9279 -4.14987 22.8334 -4.18643C22.7346 -4.22468 22.6314 -4.26552 22.4818 -4.32462C22.2046 -4.43404 21.8114 -4.58912 21.3656 -4.74929L16.2009 9.6237ZM21.8304 11.0021C23.5126 11.0021 24.8423 10.5135 25.525 10.2271C26.2582 9.91953 26.8867 9.56255 27.2334 9.36243C27.786 9.04333 27.7535 9.05209 28.0762 8.87054C28.2668 8.76333 28.2655 8.77494 28.1526 8.8206L22.4286 -5.33895C21.6698 -5.03216 21.026 -4.68688 20.588 -4.44046C20.3619 -4.31328 20.1528 -4.19065 19.992 -4.09599C19.8114 -3.98965 19.7073 -3.92788 19.597 -3.86418C19.4953 -3.80546 19.4509 -3.78166 19.4399 -3.77589C19.4275 -3.7694 19.4932 -3.80474 19.6168 -3.85658C19.7367 -3.90689 19.9795 -4.0018 20.319 -4.08738C20.6575 -4.17273 21.1777 -4.27068 21.8304 -4.27068V11.0021ZM28.0343 8.86729C29.0056 8.49336 29.7869 8.19071 30.619 7.95382C31.4383 7.72061 32.0338 7.63625 32.4445 7.63625V-7.63647C28.0695 -7.63647 24.1009 -5.98391 22.5469 -5.38563L28.0343 8.86729ZM32.4445 7.63625C33.3766 7.63625 33.6441 7.69566 33.7653 7.72652C33.8934 7.75915 34.2647 7.86682 35.2133 8.39943L42.6904 -4.9178C41.0551 -5.83597 39.4001 -6.59874 37.5342 -7.07388C35.6614 -7.55079 33.9672 -7.63647 32.4445 -7.63647V7.63625ZM35.177 8.37892C35.3892 8.49962 35.3856 8.53078 35.4247 8.62679C35.5248 8.87299 35.6885 9.51633 35.621 10.7657C35.4784 13.4011 34.461 16.693 33.2034 20.1114L47.5368 25.3848C48.7985 21.9555 50.5926 16.7458 50.8714 11.5905C51.1585 6.28385 49.8337 -0.855744 42.7268 -4.89726L35.177 8.37892ZM33.2107 20.0915C32.3774 22.3373 31.3367 25.2224 31.0042 27.512L46.1185 29.7065C46.1157 29.7256 46.1304 29.6246 46.1961 29.3679C46.259 29.1225 46.3509 28.8027 46.4789 28.3989C46.7377 27.5822 47.0909 26.5866 47.5295 25.4046L33.2107 20.0915ZM30.9559 27.9228C30.69 30.8692 30.9652 34.1545 31.216 36.8586L46.4234 35.4479C46.1575 32.581 46.0451 30.6436 46.1668 29.2957L30.9559 27.9228ZM31.2179 36.8786C31.6336 41.2357 31.7206 43.9765 31.2231 45.7049L45.8997 49.9301C47.3401 44.9269 46.781 39.1951 46.4216 35.4279L31.2179 36.8786ZM31.3937 45.1833C31.1873 45.7449 31.2856 45.0955 32.2946 44.473C33.3305 43.8338 34.3621 43.8158 34.9062 43.8903L32.8346 59.0219C34.8494 59.2978 37.6094 59.1395 40.3144 57.4707C42.9926 55.8181 44.701 53.2488 45.729 50.4517L31.3937 45.1833ZM36.7435 44.9171C36.6844 44.8344 36.426 44.4479 36.0904 43.5811L21.8478 49.0952C22.5829 50.994 23.4196 52.5401 24.3168 53.796L36.7435 44.9171ZM32.8828 34.7662C32.0043 32.8836 31.0019 30.942 29.9385 29.3674C29.422 28.6026 28.6954 27.6281 27.7565 26.7617C27.0571 26.1162 24.9321 24.2806 21.7012 24.2806V39.5534C20.2583 39.5534 19.1699 39.1131 18.5562 38.7896C17.9435 38.4666 17.5582 38.1326 17.3989 37.9856C17.1014 37.7111 17.0681 37.5987 17.2819 37.9152C17.679 38.5033 18.2851 39.601 19.0431 41.225L32.8828 34.7662ZM21.7012 24.2806C19.2086 24.2806 17.2302 25.3725 16.3259 25.9231C15.1312 26.6505 13.9931 27.5836 12.9574 28.6228C10.8702 30.7172 8.81414 33.6284 7.32851 37.2789L21.4747 43.0359C22.1854 41.2895 23.1009 40.0805 23.7752 39.4039C24.1203 39.0577 24.3105 38.9425 24.2685 38.9681C24.2474 38.9809 24.0754 39.0857 23.7584 39.204C23.5033 39.2992 22.7633 39.5534 21.7012 39.5534V24.2806ZM7.32851 37.2789C6.33909 39.7102 5.28314 42.873 4.40346 45.6597L18.9678 50.2572C19.8253 47.5407 20.7295 44.8668 21.4747 43.0359L7.32851 37.2789ZM21.8304 37.8124C20.85 37.8124 20.0957 37.5632 19.6371 37.3527C19.1919 37.1484 18.9487 36.9475 18.8962 36.9028C18.8215 36.8392 19.048 37.0261 19.4786 37.6927C20.3213 38.9972 21.2882 41.1117 22.0299 43.6408L36.6855 39.3434C35.6404 35.7793 34.1357 32.2358 32.3074 29.4055C31.4025 28.0047 30.2437 26.5051 28.7945 25.2718C27.4356 24.1153 25.0434 22.5397 21.8304 22.5397V37.8124ZM22.0299 43.6408C23.3562 48.1641 24.9236 51.0454 26.2759 52.8578L38.5159 43.7233C38.4303 43.6085 37.593 42.4381 36.6855 39.3434L22.0299 43.6408ZM33.2473 56.8755C34.5796 57.0094 36.6402 56.9636 38.8009 55.8925C41.1189 54.7435 42.7736 52.7998 43.7228 50.5143L29.6181 44.6564C29.9164 43.9384 30.6585 42.8827 32.0179 42.2088C33.2201 41.6129 34.2763 41.6294 34.7738 41.6793L33.2473 56.8755ZM43.9967 49.7396C45.3692 45.072 44.9918 39.4027 44.6097 35.5699L29.4123 37.0848C29.8054 41.0282 29.7805 43.9475 29.3443 45.4312L43.9967 49.7396ZM44.616 35.6363C44.3331 32.523 44.1879 30.7232 44.3421 29.338L29.1631 27.6483C28.8005 30.9055 29.1721 34.4446 29.406 37.0184L44.616 35.6363ZM44.3631 29.1207C44.3524 29.2513 44.3636 29.0123 44.6665 28.0728C44.9613 27.1586 45.3153 26.212 45.8241 24.7753L31.4278 19.6763C31.0322 20.793 30.5142 22.1966 30.1307 23.386C29.7553 24.5502 29.282 26.1681 29.142 27.8656L44.3631 29.1207ZM45.7933 24.8609C46.9356 21.7538 48.625 16.988 49.0404 12.3447C49.4468 7.80298 48.7745 0.631228 41.9147 -3.27161L34.3622 10.003C34.0711 9.83741 33.8398 9.49301 33.7863 9.34013C33.7845 9.33499 33.8261 9.45437 33.8503 9.74745C33.8745 10.0408 33.8764 10.448 33.8285 10.9835C33.6157 13.362 32.6418 16.3725 31.4586 19.5907L45.7933 24.8609ZM41.8932 -3.2838C38.3314 -5.29501 35.1592 -5.89554 31.9022 -5.89554V9.37719C32.5395 9.37719 32.8972 9.42861 33.1603 9.49286C33.4137 9.55476 33.7898 9.67985 34.3837 10.0152L41.8932 -3.2838ZM31.9022 -5.89554C27.8309 -5.89554 24.5696 -4.35487 23.4954 -3.94659L28.9213 10.3298C29.179 10.2319 29.4276 10.1341 29.6389 10.0509C29.8623 9.96285 30.0426 9.89163 30.2241 9.82173C30.5807 9.68443 30.8345 9.59427 31.0512 9.52783C31.4375 9.40942 31.6729 9.37719 31.9022 9.37719V-5.89554ZM23.5742 -3.97606C22.6188 -3.62495 21.8132 -3.18403 21.3181 -2.90113C21.0519 -2.74903 20.8008 -2.59871 20.6074 -2.48256C20.3928 -2.35369 20.2533 -2.26937 20.111 -2.18603C19.8057 -2.00718 19.7943 -2.01687 19.9288 -2.07277C20.0279 -2.11395 20.74 -2.41368 21.8304 -2.41368V12.8591C23.5668 12.8591 24.9715 12.3708 25.7905 12.0303C26.6449 11.6752 27.3808 11.2556 27.8308 10.992C28.546 10.573 28.4684 10.6033 28.8948 10.3597C29.1519 10.2128 29.0873 10.2693 28.8425 10.3593L23.5742 -3.97606ZM21.8304 -2.41368C22.4236 -2.41368 22.8507 -2.30694 23.0356 -2.25212C23.2037 -2.20232 23.2474 -2.17163 23.0653 -2.25466C22.9814 -2.29295 22.8787 -2.34166 22.7251 -2.41589C22.5948 -2.47882 22.3789 -2.5839 22.1833 -2.67697C21.7748 -2.87128 21.1832 -3.14456 20.4997 -3.39575L15.2314 10.9396C15.2585 10.9495 15.3563 10.9882 15.6226 11.1148C15.7571 11.1788 16.3471 11.4675 16.7275 11.641C17.552 12.017 19.4507 12.8591 21.8304 12.8591V-2.41368ZM20.4901 -3.39926C19.6449 -3.70861 17.3541 -4.58152 15.1125 -5.27068L10.6246 9.32781C12.3715 9.86485 14.1369 10.539 15.241 10.9431L20.4901 -3.39926ZM1.25856 -3.4457C-5.81983 0.581522 -6.14198 8.05147 -5.59675 12.487C-5.03289 17.0739 -3.21664 21.885 -2.14021 24.8397L12.2099 19.6119C10.9608 16.1832 9.8701 13.1311 9.56189 10.6236C9.49332 10.0657 9.48054 9.64431 9.49469 9.34324C9.50885 9.0417 9.54677 8.93199 9.53812 8.95943C9.46817 9.18139 9.18532 9.61601 8.81114 9.82891L1.25856 -3.4457ZM-2.14455 24.8278C-1.68863 26.0858 -1.32404 27.1112 -1.05056 27.9861C-0.916975 28.4134 -0.821683 28.7529 -0.756576 29.019C-0.724655 29.1494 -0.703065 29.2498 -0.688902 29.3231C-0.674592 29.3973 -0.670315 29.4314 -0.670422 29.4305L14.4868 27.5558C14.1633 24.9399 13.0072 21.8116 12.2143 19.6238L-2.14455 24.8278ZM-0.681291 29.338C-0.527092 30.7232 -0.672326 32.523 -0.955228 35.6363L14.2548 37.0184C14.4887 34.4446 14.8603 30.9055 14.4977 27.6483L-0.681291 29.338ZM-0.961113 35.7044C-1.09155 37.298 -1.28428 39.5042 -1.38752 41.6082C-1.48303 43.5548 -1.54654 46.1061 -1.21424 48.215L13.8724 45.8378C13.8102 45.4435 13.7713 44.3044 13.8669 42.3568C13.9547 40.5666 14.1195 38.675 14.2607 36.9503L-0.961113 35.7044ZM17.1718 49.7034C17.7461 47.9362 18.6842 45.1919 19.7975 42.4496L5.64653 36.7046C4.34487 39.9108 3.28133 43.0308 2.647 44.9824L17.1718 49.7034ZM19.8104 42.4177C20.6009 40.4451 21.6552 39.0033 22.5154 38.163C22.9461 37.7423 23.2224 37.5752 23.2697 37.5497C23.3846 37.4878 22.8666 37.8124 21.8304 37.8124V22.5397C17.5173 22.5397 13.9743 25.1561 11.8432 27.2378C9.37664 29.6473 7.16871 32.906 5.63365 36.7365L19.8104 42.4177ZM-1.21424 48.215C-1.08398 49.0417 -0.810015 50.2655 -0.230531 51.5291C0.204231 52.477 1.61233 55.2515 4.95295 56.4627L10.1582 42.1043C11.534 42.603 12.4055 43.419 12.8664 43.9566C13.3225 44.4886 13.555 44.9512 13.652 45.1627C13.8339 45.5593 13.8646 45.7888 13.8724 45.8378L-1.21424 48.215ZM15.1125 -5.27068C9.87835 -6.87976 4.92444 -5.51575 1.28007 -3.4579L8.7896 9.84108C9.98276 9.16735 10.5485 9.30444 10.6246 9.32781L15.1125 -5.27068ZM-2.33048 51.217C-1.65694 53.4132 -0.353761 55.7199 1.92413 57.352C4.293 59.0493 7.1097 59.5661 9.73168 59.0712C14.6916 58.135 17.7613 54.0791 18.9678 50.2572L4.40346 45.6597C4.30723 45.9645 4.65365 44.4873 6.89884 44.0635C8.16342 43.8248 9.62482 44.0813 10.8191 44.937C11.9225 45.7275 12.2319 46.6115 12.271 46.739L-2.33048 51.217ZM26.2759 52.8578C27.604 54.6376 29.9406 56.5436 33.2473 56.8755L34.7738 41.6793C36.766 41.8794 37.978 43.0025 38.5159 43.7233L26.2759 52.8578ZM36.0904 43.5811C35.6509 42.4459 35.3061 41.3272 34.7896 39.7548C34.3137 38.3056 33.7124 36.5438 32.8828 34.7662L19.0431 41.225C19.4637 42.1264 19.8318 43.1574 20.2795 44.5205C20.6868 45.7604 21.22 47.4735 21.8478 49.0952L36.0904 43.5811ZM4.95295 56.4627C6.56656 57.0476 8.43716 57.2248 10.3428 56.7172C12.179 56.2285 13.5296 55.2439 14.4348 54.3397C16.0847 52.6913 16.8335 50.7438 17.1718 49.7034L2.647 44.9824C2.64827 44.9784 2.68631 44.8576 2.79266 44.6564C2.88853 44.475 3.1414 44.0338 3.64016 43.5354C4.15814 43.0179 5.07078 42.3161 6.41429 41.9585C7.82727 41.5824 9.1505 41.7389 10.1582 42.1043L4.95295 56.4627ZM34.9062 43.8903C35.9243 44.0296 36.4838 44.5535 36.7435 44.9171L24.3168 53.796C26.1532 56.3659 29.1296 58.5148 32.8346 59.0219L34.9062 43.8903Z" fill="#B0B0B0"/>
</g>
<defs>
<linearGradient id="paint0_linear" x1="-0.454694" y1="25.0972" x2="39.927" y2="4.74104" gradientUnits="userSpaceOnUse">
<stop stop-color="#362F1D"/>
<stop offset="0.0440107" stop-color="#4C4023"/>
<stop offset="0.0900167" stop-color="#3B3113"/>
<stop offset="0.129068" stop-color="#4C330A"/>
<stop offset="0.171043" stop-color="#604818"/>
<stop offset="0.217443" stop-color="#7D6131"/>
<stop offset="0.257919" stop-color="#BE995C"/>
<stop offset="0.291121" stop-color="#E8BF7D"/>
<stop offset="0.300607" stop-color="#EDC27E"/>
<stop offset="0.309061" stop-color="#EDC27D"/>
<stop offset="0.326115" stop-color="#ECBE73"/>
<stop offset="0.326215" stop-color="#E3BC77"/>
<stop offset="0.342976" stop-color="#D9AF66"/>
<stop offset="0.373254" stop-color="#AB8952"/>
<stop offset="0.406382" stop-color="#7A612F"/>
<stop offset="0.432309" stop-color="#6A5123"/>
<stop offset="0.480109" stop-color="#60471C"/>
<stop offset="0.521151" stop-color="#6B5022"/>
<stop offset="0.55799" stop-color="#926E3B"/>
<stop offset="0.601555" stop-color="#C4A262"/>
<stop offset="0.633881" stop-color="#E0C87E"/>
<stop offset="0.662733" stop-color="#A88D51"/>
<stop offset="0.689053" stop-color="#847044"/>
<stop offset="0.734956" stop-color="#5B502D"/>
<stop offset="0.862513" stop-color="#ACABA6"/>
<stop offset="0.870153" stop-color="#3E3633"/>
</linearGradient>
<linearGradient id="paint1_linear" x1="-2.76569" y1="4.82958" x2="27.4024" y2="-2.94721" gradientUnits="userSpaceOnUse">
<stop stop-color="#362F1D"/>
<stop offset="0.0440107" stop-color="#4C4023"/>
<stop offset="0.0900167" stop-color="#3B3113"/>
<stop offset="0.129068" stop-color="#4C330A"/>
<stop offset="0.171043" stop-color="#604818"/>
<stop offset="0.217443" stop-color="#7D6131"/>
<stop offset="0.257919" stop-color="#BE995C"/>
<stop offset="0.291121" stop-color="#E8BF7D"/>
<stop offset="0.300607" stop-color="#EDC27E"/>
<stop offset="0.309061" stop-color="#EDC27D"/>
<stop offset="0.326115" stop-color="#ECBE73"/>
<stop offset="0.326215" stop-color="#E3BC77"/>
<stop offset="0.342976" stop-color="#D9AF66"/>
<stop offset="0.373254" stop-color="#AB8952"/>
<stop offset="0.406382" stop-color="#7A612F"/>
<stop offset="0.432309" stop-color="#6A5123"/>
<stop offset="0.480109" stop-color="#60471C"/>
<stop offset="0.521151" stop-color="#6B5022"/>
<stop offset="0.55799" stop-color="#926E3B"/>
<stop offset="0.601555" stop-color="#C4A262"/>
<stop offset="0.633881" stop-color="#E0C87E"/>
<stop offset="0.662733" stop-color="#A88D51"/>
<stop offset="0.689053" stop-color="#847044"/>
<stop offset="0.734956" stop-color="#5B502D"/>
<stop offset="0.862513" stop-color="#ACABA6"/>
<stop offset="0.870153" stop-color="#3E3633"/>
</linearGradient>
<linearGradient id="paint2_linear" x1="13.0156" y1="4.82958" x2="43.1837" y2="-2.94721" gradientUnits="userSpaceOnUse">
<stop stop-color="#362F1D"/>
<stop offset="0.0440107" stop-color="#4C4023"/>
<stop offset="0.0900167" stop-color="#3B3113"/>
<stop offset="0.129068" stop-color="#4C330A"/>
<stop offset="0.171043" stop-color="#604818"/>
<stop offset="0.217443" stop-color="#7D6131"/>
<stop offset="0.257919" stop-color="#BE995C"/>
<stop offset="0.291121" stop-color="#E8BF7D"/>
<stop offset="0.300607" stop-color="#EDC27E"/>
<stop offset="0.309061" stop-color="#EDC27D"/>
<stop offset="0.326115" stop-color="#ECBE73"/>
<stop offset="0.326215" stop-color="#E3BC77"/>
<stop offset="0.342976" stop-color="#D9AF66"/>
<stop offset="0.373254" stop-color="#AB8952"/>
<stop offset="0.406382" stop-color="#7A612F"/>
<stop offset="0.432309" stop-color="#6A5123"/>
<stop offset="0.480109" stop-color="#60471C"/>
<stop offset="0.521151" stop-color="#6B5022"/>
<stop offset="0.55799" stop-color="#926E3B"/>
<stop offset="0.601555" stop-color="#C4A262"/>
<stop offset="0.633881" stop-color="#E0C87E"/>
<stop offset="0.662733" stop-color="#A88D51"/>
<stop offset="0.689053" stop-color="#847044"/>
<stop offset="0.734956" stop-color="#5B502D"/>
<stop offset="0.862513" stop-color="#ACABA6"/>
<stop offset="0.870153" stop-color="#3E3633"/>
</linearGradient>
</defs>
</svg>
