<svg width="83" height="56" viewBox="0 0 83 56" fill="none" xmlns="http://www.w3.org/2000/svg">
<path d="M10.6201 0H12.5399C15.1148 0.428235 17.3749 1.79346 19.7631 2.75425C20.5098 3.05072 21.2986 3.49542 22.1257 3.29961C23.0756 2.98118 23.8112 2.25464 24.7135 1.83739C26.5728 0.980915 28.52 0.27451 30.5587 0H32.4986C33.5216 0.126275 34.5501 0.318431 35.4889 0.763137C36.9108 1.43294 38.3255 2.2583 39.2844 3.53752C40.4465 4.99059 40.9352 6.83895 41.1474 8.65438C41.3305 7.11346 41.6324 5.5451 42.4578 4.20549C43.2795 2.7817 44.641 1.76967 46.0959 1.05961C47.2708 0.439216 48.5812 0.135425 49.8952 0H51.7051C54.2745 0.442876 56.5328 1.80261 58.9229 2.75791C59.6714 3.05621 60.4675 3.50458 61.2965 3.29229C62.2353 2.96654 62.9673 2.24549 63.8677 1.83373C65.7637 0.971765 67.7475 0.223268 69.8319 0H71.662C73.7244 0.170196 75.6497 1.09072 77.2693 2.34065C79.0463 3.78275 79.9906 6.02275 80.2303 8.25725C80.5634 11.0646 80.0967 13.8847 79.5093 16.6243C80.1937 16.6627 81.1051 16.4139 81.5663 17.08C82.0183 17.64 81.7072 18.5788 81.0209 18.7728C80.3255 18.879 79.6173 18.8131 78.9182 18.8332C78.1349 21.7375 76.9874 24.532 76.2847 27.4583C75.9388 28.8327 75.9901 30.262 76.0175 31.6674C76.1639 35.9333 76.8758 40.1846 76.5812 44.4614C76.4586 45.8322 76.3305 47.2358 75.7906 48.5169C75.3422 49.5637 74.6852 50.616 73.6293 51.1302C72.5349 51.6646 71.1953 51.4102 70.2235 50.7312C68.937 49.8803 68.2471 48.4327 67.6797 47.0528C66.5689 44.1668 65.9942 41.1014 64.7919 38.2465C64.0507 36.4897 63.2803 34.7292 62.2353 33.1278C61.8803 32.6429 61.5142 32.0701 60.9122 31.8779C60.171 31.8614 59.5506 32.3812 58.9869 32.8058C57.0214 34.4656 55.6342 36.7093 54.6149 39.0463C53.5077 41.7712 52.6988 44.6078 51.8716 47.4261C51.5459 48.7072 51.0115 50.023 49.9281 50.8465C49.1613 51.4852 47.9901 51.6939 47.1171 51.1467C46.1691 50.5446 45.7464 49.4209 45.5158 48.3705C44.9705 45.7919 45.0034 43.1328 45.1132 40.5122C45.2688 36.7642 45.8397 33.0327 45.6988 29.2737C45.6567 27.7035 45.159 26.1992 44.6868 24.715C44.0335 22.7605 43.3655 20.8078 42.7799 18.8314C41.7788 18.8387 40.7778 18.8497 39.7767 18.8369C38.9935 21.6753 37.9027 24.4222 37.1799 27.279C36.8962 28.3514 36.8505 29.4659 36.8541 30.5694C36.8907 35.7558 37.9888 40.9459 37.2604 46.1286C37.0261 47.8434 36.4259 49.646 35.0478 50.7807C34.0303 51.617 32.5224 51.5786 31.4152 50.9362C29.9731 50.1584 29.1788 48.634 28.5877 47.1736C27.4531 44.2912 26.8803 41.2186 25.6944 38.3545C25.0282 36.7569 24.3218 35.1684 23.4416 33.675C22.9969 32.9869 22.5558 32.1744 21.7542 31.8614C20.7916 31.9346 20.034 32.6374 19.3422 33.2468C17.2706 35.2397 15.8505 37.8274 14.8988 40.5213C14.0149 43.0029 13.2737 45.5302 12.5417 48.0593C12.1739 49.3331 11.4327 50.5958 10.2102 51.2071C9.35555 51.6444 8.23006 51.5182 7.55294 50.8173C6.60131 49.8748 6.37072 48.4858 6.16209 47.2212C5.36601 41.4309 6.63425 35.635 6.57385 29.8374C6.61411 27.8609 5.95529 25.9741 5.34771 24.1221C4.74379 22.3689 4.17464 20.6047 3.63294 18.8314C2.86248 18.8058 2.08653 18.8826 1.32157 18.782C0.424834 18.5788 0.245488 17.2356 1.04157 16.7854C1.65464 16.4999 2.36653 16.6518 3.02353 16.6115C2.35006 13.8756 1.81019 11.0463 2.07921 8.21699C2.26588 6.18196 3.0034 4.11399 4.52418 2.6902C6.20052 1.1749 8.37464 0.236078 10.6201 0ZM6.20235 3.43686C4.66144 4.52941 3.91843 6.41621 3.75189 8.24444C3.47921 11.0756 4.1234 13.892 4.83163 16.617C8.80836 16.6188 12.7851 16.628 16.7637 16.6115C16.7728 15.1383 16.76 13.6669 16.7691 12.1937C20.1456 12.1882 23.5239 12.1882 26.9004 12.1937C26.9077 13.6688 26.8931 15.1438 26.9022 16.6207C30.8149 16.628 34.7257 16.6042 38.6366 16.6316C39.2753 14.2599 39.6797 11.7929 39.5718 9.3315C39.4821 7.33307 38.8397 5.23216 37.2769 3.89255C35.3535 2.35163 32.8463 1.58301 30.3885 1.75137C28.6371 1.84654 27.034 2.62065 25.4583 3.32523C24.2541 3.87974 23.2897 4.94667 21.9556 5.20471C20.6471 5.26693 19.5929 4.36471 18.4455 3.88157C16.7874 3.18431 15.1184 2.49804 13.4037 1.94902C10.9386 1.21699 8.25568 1.99843 6.20235 3.43686ZM45.1425 3.59425C43.6272 4.78196 42.983 6.74196 42.8604 8.60314C42.6939 11.319 43.2813 14.011 43.9804 16.617C47.9498 16.6261 51.9192 16.6115 55.8886 16.6261C55.9326 15.1456 55.8648 13.6633 55.9216 12.1827C59.2962 12.2047 62.6709 12.1791 66.0455 12.1956C66.051 13.6706 66.04 15.1438 66.0491 16.6188C69.9655 16.6225 73.88 16.617 77.7963 16.6225C78.4424 14.0677 78.9072 11.4159 78.6693 8.77333C78.5009 6.92497 77.8055 5.01621 76.3268 3.81569C74.171 2.13752 71.3051 1.40549 68.6094 1.86667C67.246 2.10275 65.9924 2.71399 64.7352 3.26118C63.531 3.7919 62.5812 4.80758 61.2965 5.16627C60.4162 5.35477 59.578 4.89543 58.8204 4.50562C57.5723 3.79739 56.2144 3.3234 54.8912 2.78353C53.5315 2.28392 52.1644 1.66536 50.6894 1.66536C48.6946 1.66353 46.7273 2.40105 45.1425 3.59425ZM41.2078 11.3171C41.0322 13.0996 40.7412 14.8638 40.3806 16.617C40.9736 16.5841 41.5702 16.5877 42.1631 16.6261C41.7294 14.8784 41.3927 13.1088 41.2078 11.3171ZM18.1344 13.634C18.1362 14.1922 18.1325 14.754 18.182 15.3103C18.0593 16.2565 18.1399 17.2154 18.1563 18.1652C18.0465 19.3859 18.2058 20.6084 18.1527 21.829C18.7328 21.8437 19.3129 21.8437 19.8949 21.8327C20.2756 21.84 20.6562 21.8437 21.0369 21.8418C21.2949 21.84 21.5548 21.8382 21.8128 21.8382C23.0499 21.851 24.2852 21.8601 25.5224 21.8437C25.5132 21.7302 25.4949 21.5033 25.4857 21.3898C25.4986 20.8792 25.5407 20.365 25.4876 19.8562C25.5041 19.4829 25.559 19.1004 25.4674 18.7344C25.5498 17.8395 25.5095 16.9409 25.4711 16.046C25.5315 15.2756 25.5187 14.5033 25.4803 13.7328C25.1161 13.7292 24.7501 13.7255 24.3859 13.7218C24.0693 13.7255 23.7545 13.7255 23.4397 13.7291C23.1963 13.7291 22.9529 13.7273 22.7095 13.7255C22.4735 13.7273 22.2356 13.7292 21.9995 13.7273C20.7587 13.7365 19.5142 13.6925 18.2735 13.7786L18.1344 13.634ZM57.3033 13.6285C57.2758 14.4667 57.2502 15.314 57.3527 16.1467C57.2831 16.811 57.2246 17.4899 57.3234 18.1561C57.2209 19.3786 57.3069 20.6065 57.3124 21.8309C57.898 21.84 58.4837 21.8418 59.0711 21.8418C59.245 21.8382 59.5945 21.8345 59.7684 21.8309C60.1637 21.8418 60.5626 21.8473 60.9597 21.8418C62.195 21.8455 63.4303 21.862 64.6674 21.8455C64.6601 21.7302 64.6473 21.4996 64.64 21.3843C64.6766 20.8188 64.6784 20.2515 64.6492 19.686C64.6382 18.9522 64.7242 18.2055 64.6162 17.479C64.6437 17.0617 64.7132 16.6298 64.6089 16.2199C64.6912 15.3927 64.6803 14.5618 64.6455 13.7328C64.285 13.7292 63.9263 13.7237 63.5676 13.7218C63.359 13.731 63.1522 13.7365 62.9472 13.7383C62.6031 13.7328 62.2609 13.7273 61.9187 13.7218C61.6643 13.7255 61.4099 13.7273 61.1574 13.7291C59.902 13.7273 58.6447 13.709 57.3893 13.7676L57.3033 13.6285ZM5.47764 18.8314C6.12732 20.9231 6.85751 22.9893 7.49072 25.0884C8.01778 26.8013 8.40941 28.5728 8.35634 30.3773C8.30876 35.5069 7.43032 40.6055 7.63163 45.7425C7.69934 46.771 7.77072 47.8672 8.33072 48.7658C8.64366 49.2983 9.44706 49.4923 9.94117 49.0952C10.6037 48.5827 10.8434 47.7391 11.0758 46.9705C11.8719 44.2784 12.7467 41.6065 13.7367 38.9786C14.7414 36.4165 16.1689 33.977 18.1582 32.0554C19.119 31.1569 20.2518 30.2931 21.5969 30.1393C22.8633 30.0863 23.7765 31.1422 24.4957 32.0481C26.2855 34.4931 27.3762 37.3699 28.2656 40.245C28.9409 42.7137 29.6217 45.2136 30.8808 47.4609C31.201 48.0227 31.5396 48.6193 32.1142 48.9579C32.9469 49.4648 34.1383 49.2159 34.7148 48.4327C35.3095 47.7025 35.4029 46.7326 35.5621 45.8376C36.0452 42.2818 35.7323 38.6839 35.4358 35.1263C35.2327 32.3665 34.938 29.5427 35.5731 26.8178C36.2758 24.1184 37.2824 21.5088 38.0546 18.8295C34.3378 18.8241 30.6227 18.8259 26.9059 18.8295C26.8894 20.3448 26.9095 21.862 26.8949 23.3773C23.5239 23.3754 20.1529 23.3736 16.782 23.3791C16.7454 21.8675 16.7746 20.354 16.7673 18.8424C13.0047 18.8094 9.24209 18.8314 5.47764 18.8314ZM44.6282 18.8314C45.5158 21.8272 46.7035 24.7425 47.3148 27.8152C47.6826 30.2986 47.4337 32.8186 47.2562 35.3074C47.0055 38.5412 46.7072 41.7804 46.7438 45.0269C46.8023 46.2604 46.8042 47.5744 47.4209 48.6852C47.7156 49.2745 48.5629 49.5161 49.0899 49.0897C49.8824 48.451 50.08 47.3932 50.3637 46.4708C51.2037 43.7276 52.0784 40.9898 53.1435 38.3234C54.2965 35.6607 55.8978 33.1022 58.1982 31.285C59.0876 30.6408 60.16 29.9801 61.3038 30.1814C62.4878 30.5035 63.2729 31.5467 63.9629 32.4946C65.5733 34.8902 66.611 37.6188 67.4418 40.3694C68.1739 43.0431 68.9242 45.7773 70.4358 48.1344C70.8878 48.892 71.7974 49.4081 72.6868 49.1702C73.7757 48.9634 74.3631 47.8471 74.526 46.8387C75.3422 42.6112 74.8152 38.2868 74.4912 34.0337C74.321 31.4771 74.1307 28.8455 74.8371 26.3475C75.5399 23.8146 76.4659 21.3514 77.1979 18.8277C73.481 18.8259 69.766 18.8241 66.0491 18.8295C66.0363 20.3448 66.0565 21.8601 66.0437 23.3754C62.6617 23.3736 59.2816 23.3846 55.9014 23.3699C55.8941 21.8565 55.9069 20.343 55.8959 18.8295C52.1407 18.8259 48.3835 18.8222 44.6282 18.8314Z" fill="#AFAFAF"/>
<path d="M18.1338 13.634L18.2729 13.7786C18.8274 14.6808 19.1348 15.7148 19.6527 16.6408C20.3207 18.3959 21.2229 20.0521 21.8122 21.8382C21.5542 21.8382 21.2943 21.84 21.0363 21.8419C20.1304 19.6458 19.1275 17.49 18.1814 15.3104C18.132 14.754 18.1356 14.1922 18.1338 13.634Z" fill="#987742"/>
<path d="M22.709 13.7256C22.9524 13.7274 23.1958 13.7292 23.4392 13.7292C23.6881 14.4247 23.9662 15.1109 24.3249 15.7588C24.8721 16.6848 24.9801 17.781 25.4669 18.7345C25.5584 19.1005 25.5035 19.483 25.487 19.8563C24.9984 19.0913 24.583 18.2788 24.314 17.4095C23.9113 16.1248 23.1153 15.0103 22.709 13.7256Z" fill="#987742"/>
<path d="M18.2734 13.7786C19.5142 13.6926 20.7587 13.7365 21.9994 13.7274C22.3435 14.4741 22.5832 15.2665 22.9913 15.9839C23.5678 16.9959 23.7929 18.1653 24.4096 19.1572C24.8598 19.8599 24.9184 20.7567 25.4857 21.3899C25.4949 21.5033 25.5132 21.7303 25.5223 21.8437C24.2852 21.8602 23.0499 21.8511 21.8128 21.8382C21.2235 20.0521 20.3213 18.3959 19.6533 16.6409C19.1354 15.7148 18.8279 14.6809 18.2734 13.7786Z" fill="#664C1F"/>
<path d="M57.3887 13.7677C58.6441 13.7091 59.9014 13.7274 61.1568 13.7292C61.5484 14.7504 61.9968 15.7478 62.5074 16.7159C62.9283 17.5998 63.1223 18.5807 63.6365 19.4226C64.0153 20.0539 64.1691 20.8043 64.6394 21.3844C64.6467 21.4997 64.6595 21.7303 64.6668 21.8456C63.4297 21.862 62.1944 21.8456 60.9591 21.8419C60.7102 21.2746 60.4888 20.6963 60.2637 20.1198C60.0185 19.4756 59.5921 18.9175 59.3761 18.2605C59.1163 17.5083 58.7923 16.7818 58.441 16.068C58.0621 15.3141 57.8498 14.4814 57.3887 13.7677Z" fill="#664C1F"/>
<path d="M21.999 13.7274C22.2351 13.7292 22.473 13.7274 22.7091 13.7256C23.1154 15.0103 23.9114 16.1248 24.3141 17.4095C24.5831 18.2788 24.9985 19.0913 25.4871 19.8563C25.5402 20.3651 25.4981 20.8793 25.4853 21.3899C24.918 20.7567 24.8594 19.86 24.4092 19.1572C23.7925 18.1653 23.5674 16.9959 22.9909 15.9839C22.5828 15.2665 22.3431 14.4741 21.999 13.7274Z" fill="#7F622F"/>
<path d="M61.1572 13.7292C61.4098 13.7274 61.6642 13.7256 61.9185 13.7219C62.3449 14.7431 62.7659 15.7679 63.2746 16.7525C63.7706 17.7133 63.8932 18.8699 64.649 19.6861C64.6783 20.2516 64.6764 20.8189 64.6398 21.3844C64.1695 20.8043 64.0158 20.0539 63.637 19.4226C63.1227 18.5807 62.9287 17.5998 62.5078 16.7159C61.9972 15.7478 61.5489 14.7504 61.1572 13.7292Z" fill="#7F622F"/>
<path d="M23.4395 13.7292C23.7542 13.7256 24.069 13.7256 24.3856 13.7219C24.6564 14.5326 24.8504 15.4166 25.4708 16.0461C25.5093 16.941 25.5495 17.8396 25.4672 18.7345C24.9804 17.781 24.8724 16.6848 24.3252 15.7588C23.9665 15.1109 23.6883 14.4247 23.4395 13.7292Z" fill="#BD9B5C"/>
<path d="M24.3857 13.7219C24.7499 13.7256 25.1159 13.7292 25.4801 13.7329C25.5186 14.5034 25.5314 15.2757 25.471 16.0461C24.8506 15.4166 24.6566 14.5326 24.3857 13.7219Z" fill="#DDC37A"/>
<path d="M63.5674 13.7219C63.9261 13.7238 64.2848 13.7292 64.6453 13.7329C64.6801 14.5619 64.691 15.3928 64.6087 16.22C64.1493 15.4367 63.8035 14.5967 63.5674 13.7219Z" fill="#DDC37A"/>
<path d="M57.3028 13.6284L57.3888 13.7675C57.8499 14.4812 58.0622 15.3139 58.4411 16.0679C58.7924 16.7816 59.1164 17.5082 59.3762 18.2603C59.5922 18.9173 60.0186 19.4755 60.2638 20.1197C60.4889 20.6961 60.7103 21.2744 60.9592 21.8417C60.5621 21.8472 60.1632 21.8417 59.7679 21.8308C59.4037 20.2734 58.4649 18.9539 57.9652 17.4478C57.7987 16.9976 57.5626 16.5767 57.3522 16.1466C57.2497 15.3139 57.2753 14.4666 57.3028 13.6284Z" fill="#A3824A"/>
<path d="M61.918 13.7217C62.2602 13.7272 62.6024 13.7327 62.9465 13.7381C63.296 15.0704 63.9438 16.2874 64.6155 17.4788C64.7235 18.2053 64.6374 18.952 64.6484 19.6859C63.8926 18.8696 63.77 17.713 63.274 16.7523C62.7653 15.7677 62.3444 14.7429 61.918 13.7217Z" fill="#A3824A"/>
<path d="M62.9473 13.7384C63.1522 13.7366 63.359 13.7311 63.5677 13.7219C63.8037 14.5967 64.1496 15.4367 64.609 16.22C64.7133 16.6299 64.6437 17.0618 64.6163 17.479C63.9447 16.2877 63.2968 15.0707 62.9473 13.7384Z" fill="#C39F5F"/>
<path d="M18.1811 15.3103C19.1272 17.4899 20.1301 19.6457 21.0359 21.8418C20.6553 21.8436 20.2746 21.84 19.894 21.8327C19.4859 20.5351 18.9515 19.2742 18.1554 18.1652C18.139 17.2154 18.0584 16.2564 18.1811 15.3103Z" fill="#C9A562"/>
<path d="M57.3523 16.1467C57.5628 16.5768 57.7988 16.9977 57.9654 17.4479C58.465 18.954 59.4038 20.2735 59.768 21.8309C59.5941 21.8346 59.2446 21.8382 59.0707 21.8419C58.4906 20.6103 58.0587 19.3091 57.323 18.1561C57.2242 17.49 57.2828 16.811 57.3523 16.1467Z" fill="#DDB267"/>
<path d="M18.1558 18.165C18.9519 19.2741 19.4863 20.535 19.8944 21.8325C19.3124 21.8435 18.7323 21.8435 18.1521 21.8288C18.2052 20.6082 18.046 19.3857 18.1558 18.165Z" fill="#ECC17C"/>
<path d="M57.3234 18.156C58.0591 19.3089 58.491 20.6101 59.0711 21.8418C58.4837 21.8418 57.898 21.8399 57.3124 21.8308C57.3069 20.6065 57.2209 19.3785 57.3234 18.156Z" fill="#ECC17C"/>
</svg>
