<svg width="60" height="56" viewBox="0 0 60 56" fill="none" xmlns="http://www.w3.org/2000/svg">
<mask id="mask0" mask-type="alpha" maskUnits="userSpaceOnUse" x="0" y="0" width="44" height="52">
<path d="M11.6852 47.9586C10.3825 52.0856 6.23871 53.1155 4.96981 48.9782C3.93623 45.6124 4.32381 40.2736 4.7114 36.1533C4.96979 33.3679 5.16361 30.7565 4.96979 28.6093C4.84059 27.2746 4.06541 25.1275 3.16104 22.7482C0.641704 15.8425 -2.90792 5.74509 4.13329 1.74093C6.7172 0.290155 8.45702 0 10.9118 0C13.6249 0 16.9741 1.79896 18.7829 2.4373C20.0748 2.90155 20.9256 3.3658 21.8299 3.3658C22.7343 3.3658 23.9982 2.26321 25.2902 1.74093C27.0989 1.04456 29.731 0 32.4441 0C34.8988 0 36.3675 0.290155 38.9514 1.74093C45.9926 5.74509 42.889 15.9005 40.3696 22.7482C39.4653 25.1855 38.7547 27.2746 38.5609 28.6093C38.3671 30.7565 38.5609 33.3679 38.8193 36.1533C39.2069 40.2155 39.5298 44.4518 38.5609 47.8176C37.3265 51.1764 35.3407 51.6575 33.87 51.4564C32.5264 51.2721 31.3181 50.4599 30.5297 49.3566C30.0516 48.6874 29.504 47.721 28.9686 46.3383C27.9013 43.5813 27.2127 40.6747 25.9625 37.9957C24.326 34.489 22.7455 31.9171 21.7008 31.9171C20.3442 31.9171 16.5975 34.7606 14.4011 40.1575C13.5338 42.2887 12.5537 45.207 11.6852 47.9586ZM21.8299 30.1762C24.4139 30.1762 27.5705 35.399 29.3572 41.4922C30.4741 45.3012 31.6765 47.3271 32.3955 48.2906C32.7905 48.82 33.3528 49.2116 34.0101 49.2776C34.8448 49.3614 36.019 49.153 36.67 47.5855C37.5744 44.5099 37.3981 40.2155 37.0106 36.3275C36.7521 33.4839 36.4937 30.8145 36.7521 28.4933C36.8813 26.9264 37.7211 24.7793 38.6255 22.2259C40.951 15.9005 43.9519 6.67357 38.138 3.3658C35.8771 2.08912 34.0335 1.74093 31.9018 1.74093C29.5762 1.74093 27.8874 2.55337 26.2079 3.19171C24.7867 3.71399 23.1219 5.22281 21.8299 5.22281C20.538 5.22281 19.2862 4.2943 17.8651 3.77202C16.8904 3.4153 14.8624 2.64178 12.8681 2.02869C10.213 1.21245 7.45314 1.82591 5.03439 3.19171C-0.779454 6.49946 2.70885 15.8425 5.03439 22.2259C5.93875 24.7213 6.71394 26.9264 6.90775 28.4933C7.16612 30.8145 6.90775 33.4839 6.64934 36.3275C6.37774 39.6457 5.93417 44.5233 6.32861 47.0266C6.45115 47.8041 6.81505 49.0152 7.55511 49.2836C8.7669 49.7228 9.51048 48.5687 9.90895 47.343C10.5133 45.4836 11.5141 42.5515 12.7216 39.5772C15.0471 33.7741 19.246 30.1762 21.8299 30.1762Z" fill="white"/>
</mask>
<g mask="url(#mask0)">
<path d="M4.71185 36.1532L12.3147 36.8685L12.3151 36.8635L12.3156 36.8586L4.71185 36.1532ZM4.97025 28.6092L12.5757 27.9228L12.5735 27.8981L12.5711 27.8735L4.97025 28.6092ZM3.16149 22.7481L-4.01239 25.3652L-3.99482 25.4134L-3.97661 25.4613L3.16149 22.7481ZM4.13374 1.74082L0.395183 -4.9178L0.376985 -4.90758L0.358842 -4.89726L4.13374 1.74082ZM18.7833 2.43719L21.3656 -4.74929L21.3452 -4.75664L21.3247 -4.76387L18.7833 2.43719ZM25.2906 1.74082L22.5469 -5.38563L22.4876 -5.36277L22.4286 -5.33895L25.2906 1.74082ZM38.9519 1.74082L42.7268 -4.89726L42.7086 -4.90758L42.6904 -4.9178L38.9519 1.74082ZM40.3701 22.7481L47.5295 25.4046L47.5332 25.3947L47.5368 25.3848L40.3701 22.7481ZM38.5613 28.6092L31.0042 27.512L30.9745 27.7167L30.9559 27.9228L38.5613 28.6092ZM38.8198 36.1532L31.216 36.8586L31.2169 36.8686L31.2179 36.8786L38.8198 36.1532ZM38.5613 47.8175L45.729 50.4517L45.8237 50.194L45.8997 49.9301L38.5613 47.8175ZM29.3577 41.4921L36.6855 39.3434L29.3577 41.4921ZM36.6705 47.5854L43.7228 50.5143L43.8806 50.1344L43.9967 49.7396L36.6705 47.5854ZM37.011 36.3273L29.406 37.0184L29.409 37.0516L29.4123 37.0848L37.011 36.3273ZM36.7526 28.4932L44.3421 29.338L44.3541 29.2295L44.3631 29.1207L36.7526 28.4932ZM38.6259 22.2258L31.4586 19.5907L31.4429 19.6334L31.4278 19.6763L38.6259 22.2258ZM38.1384 3.36569L41.9147 -3.27161L41.904 -3.27772L41.8932 -3.2838L38.1384 3.36569ZM26.2084 3.1916L28.8425 10.3593L28.882 10.3447L28.9213 10.3298L26.2084 3.1916ZM17.8656 3.77191L20.4997 -3.39575L20.4949 -3.39751L20.4901 -3.39926L17.8656 3.77191ZM5.03484 22.2258L12.2143 19.6238L12.2121 19.6178L12.2099 19.6119L5.03484 22.2258ZM6.90821 28.4932L14.4977 27.6483L14.4925 27.602L14.4868 27.5558L6.90821 28.4932ZM6.64979 36.3273L-0.955228 35.6363L-0.958323 35.6703L-0.961113 35.7044L6.64979 36.3273ZM12.722 39.5771L19.7975 42.4496L19.804 42.4336L19.8104 42.4177L12.722 39.5771ZM32.3959 48.2905L26.2759 52.8578L32.3959 48.2905ZM34.0106 49.2775L34.7738 41.6793L34.0106 49.2775ZM28.9691 46.3382L21.8478 49.0952L28.9691 46.3382ZM25.9629 37.9956L19.0431 41.225L25.9629 37.9956ZM9.9094 47.3429L17.1718 49.7034L9.9094 47.3429ZM33.8704 51.4563L32.8346 59.0219L33.8704 51.4563ZM30.5302 49.3565L24.3168 53.796L30.5302 49.3565ZM12.2702 46.7364C12.1012 46.1863 11.9297 44.9476 11.9443 42.9029C11.9579 40.9822 12.1242 38.8929 12.3147 36.8685L-2.89095 35.4381C-3.0881 37.5338 -3.30942 40.174 -3.32805 42.7943C-3.3458 45.2905 -3.1943 48.4041 -2.32967 51.2195L12.2702 46.7364ZM12.3156 36.8586C12.5664 34.1545 12.8416 30.8692 12.5757 27.9228L-2.6352 29.2957C-2.51355 30.6436 -2.62593 32.581 -2.89187 35.4479L12.3156 36.8586ZM12.5711 27.8735C12.4231 26.3453 11.9786 24.8245 11.624 23.7255C11.2355 22.5216 10.7539 21.23 10.2996 20.0349L-3.97661 25.4613C-3.52651 26.6455 -3.1684 27.6171 -2.91087 28.4153C-2.78458 28.8067 -2.70326 29.0931 -2.65444 29.2913C-2.60089 29.5087 -2.61503 29.5057 -2.6306 29.345L12.5711 27.8735ZM10.3354 20.1309C9.01304 16.5063 7.89589 13.2191 7.67271 10.5258C7.56784 9.26041 7.71898 8.65393 7.79051 8.46673C7.7953 8.45411 7.73283 8.4789 7.90862 8.37892L0.358842 -4.89726C-6.88989 -0.775104 -7.98423 6.52099 -7.54789 11.787C-7.12672 16.8697 -5.20938 22.0842 -4.01239 25.3652L10.3354 20.1309ZM7.87232 8.39943C8.69608 7.93692 9.1144 7.80884 9.34258 7.75447C9.59351 7.6946 9.98047 7.63625 10.9122 7.63625V-7.63647C7.38629 -7.63647 4.312 -7.11695 0.395183 -4.9178L7.87232 8.39943ZM10.9122 7.63625C10.7835 7.63625 10.8592 7.62012 11.2026 7.70488C11.53 7.78567 11.9527 7.92063 12.4896 8.1233C13.0294 8.32709 13.5687 8.5543 14.1961 8.81979C14.7311 9.04608 15.5213 9.38396 16.2419 9.63826L21.3247 -4.76387C21.1409 -4.82873 20.8342 -4.95513 20.1476 -5.24563C19.5536 -5.49702 18.7469 -5.83923 17.8842 -6.16495C16.3145 -6.75763 13.7188 -7.63647 10.9122 -7.63647V7.63625ZM16.2009 9.6237C16.4012 9.69563 16.5988 9.77265 16.8728 9.88089C17.1069 9.97329 17.4947 10.128 17.8827 10.2666C18.6585 10.5438 20.0727 11.0021 21.8304 11.0021V-4.27068C22.2673 -4.27068 22.6108 -4.21338 22.8206 -4.1665C23.0124 -4.1236 23.1035 -4.08634 23.0216 -4.11557C22.9854 -4.12852 22.9279 -4.14987 22.8334 -4.18643C22.7346 -4.22468 22.6314 -4.26552 22.4818 -4.32462C22.2046 -4.43404 21.8114 -4.58912 21.3656 -4.74929L16.2009 9.6237ZM21.8304 11.0021C23.5126 11.0021 24.8423 10.5135 25.525 10.2271C26.2582 9.91953 26.8867 9.56255 27.2334 9.36243C27.786 9.04333 27.7535 9.05209 28.0762 8.87054C28.2668 8.76333 28.2655 8.77494 28.1526 8.8206L22.4286 -5.33895C21.6698 -5.03216 21.026 -4.68688 20.588 -4.44046C20.3619 -4.31328 20.1528 -4.19065 19.992 -4.09599C19.8114 -3.98965 19.7073 -3.92788 19.597 -3.86418C19.4953 -3.80546 19.4509 -3.78166 19.4399 -3.77589C19.4275 -3.7694 19.4932 -3.80474 19.6168 -3.85658C19.7367 -3.90689 19.9795 -4.0018 20.319 -4.08738C20.6575 -4.17273 21.1777 -4.27068 21.8304 -4.27068V11.0021ZM28.0343 8.86729C29.0056 8.49336 29.7869 8.19071 30.619 7.95382C31.4383 7.72061 32.0338 7.63625 32.4445 7.63625V-7.63647C28.0695 -7.63647 24.1009 -5.98391 22.5469 -5.38563L28.0343 8.86729ZM32.4445 7.63625C33.3766 7.63625 33.6441 7.69566 33.7653 7.72652C33.8934 7.75915 34.2647 7.86682 35.2133 8.39943L42.6904 -4.9178C41.0551 -5.83597 39.4001 -6.59874 37.5342 -7.07388C35.6614 -7.55079 33.9672 -7.63647 32.4445 -7.63647V7.63625ZM35.177 8.37892C35.3892 8.49962 35.3856 8.53078 35.4247 8.62679C35.5248 8.87299 35.6885 9.51633 35.621 10.7657C35.4784 13.4011 34.461 16.693 33.2034 20.1114L47.5368 25.3848C48.7985 21.9555 50.5926 16.7458 50.8714 11.5905C51.1585 6.28385 49.8337 -0.855744 42.7268 -4.89726L35.177 8.37892ZM33.2107 20.0915C32.3774 22.3373 31.3367 25.2224 31.0042 27.512L46.1185 29.7065C46.1157 29.7256 46.1304 29.6246 46.1961 29.3679C46.259 29.1225 46.3509 28.8027 46.4789 28.3989C46.7377 27.5822 47.0909 26.5866 47.5295 25.4046L33.2107 20.0915ZM30.9559 27.9228C30.69 30.8692 30.9652 34.1545 31.216 36.8586L46.4234 35.4479C46.1575 32.581 46.0451 30.6436 46.1668 29.2957L30.9559 27.9228ZM31.2179 36.8786C31.6336 41.2357 31.7206 43.9765 31.2231 45.7049L45.8997 49.9301C47.3401 44.9269 46.781 39.1951 46.4216 35.4279L31.2179 36.8786ZM31.3937 45.1833C31.1873 45.7449 31.2856 45.0955 32.2946 44.473C33.3305 43.8338 34.3621 43.8158 34.9062 43.8903L32.8346 59.0219C34.8494 59.2978 37.6094 59.1395 40.3144 57.4707C42.9926 55.8181 44.701 53.2488 45.729 50.4517L31.3937 45.1833ZM36.7435 44.9171C36.6844 44.8344 36.426 44.4479 36.0904 43.5811L21.8478 49.0952C22.5829 50.994 23.4196 52.5401 24.3168 53.796L36.7435 44.9171ZM32.8828 34.7662C32.0043 32.8836 31.0019 30.942 29.9385 29.3674C29.422 28.6026 28.6954 27.6281 27.7565 26.7617C27.0571 26.1162 24.9321 24.2806 21.7012 24.2806V39.5534C20.2583 39.5534 19.1699 39.1131 18.5562 38.7896C17.9435 38.4666 17.5582 38.1326 17.3989 37.9856C17.1014 37.7111 17.0681 37.5987 17.2819 37.9152C17.679 38.5033 18.2851 39.601 19.0431 41.225L32.8828 34.7662ZM21.7012 24.2806C19.2086 24.2806 17.2302 25.3725 16.3259 25.9231C15.1312 26.6505 13.9931 27.5836 12.9574 28.6228C10.8702 30.7172 8.81414 33.6284 7.32851 37.2789L21.4747 43.0359C22.1854 41.2895 23.1009 40.0805 23.7752 39.4039C24.1203 39.0577 24.3105 38.9425 24.2685 38.9681C24.2474 38.9809 24.0754 39.0857 23.7584 39.204C23.5033 39.2992 22.7633 39.5534 21.7012 39.5534V24.2806ZM7.32851 37.2789C6.33909 39.7102 5.28314 42.873 4.40346 45.6597L18.9678 50.2572C19.8253 47.5407 20.7295 44.8668 21.4747 43.0359L7.32851 37.2789ZM21.8304 37.8124C20.85 37.8124 20.0957 37.5632 19.6371 37.3527C19.1919 37.1484 18.9487 36.9475 18.8962 36.9028C18.8215 36.8392 19.048 37.0261 19.4786 37.6927C20.3213 38.9972 21.2882 41.1117 22.0299 43.6408L36.6855 39.3434C35.6404 35.7793 34.1357 32.2358 32.3074 29.4055C31.4025 28.0047 30.2437 26.5051 28.7945 25.2718C27.4356 24.1153 25.0434 22.5397 21.8304 22.5397V37.8124ZM22.0299 43.6408C23.3562 48.1641 24.9236 51.0454 26.2759 52.8578L38.5159 43.7233C38.4303 43.6085 37.593 42.4381 36.6855 39.3434L22.0299 43.6408ZM33.2473 56.8755C34.5796 57.0094 36.6402 56.9636 38.8009 55.8925C41.1189 54.7435 42.7736 52.7998 43.7228 50.5143L29.6181 44.6564C29.9164 43.9384 30.6585 42.8827 32.0179 42.2088C33.2201 41.6129 34.2763 41.6294 34.7738 41.6793L33.2473 56.8755ZM43.9967 49.7396C45.3692 45.072 44.9918 39.4027 44.6097 35.5699L29.4123 37.0848C29.8054 41.0282 29.7805 43.9475 29.3443 45.4312L43.9967 49.7396ZM44.616 35.6363C44.3331 32.523 44.1879 30.7232 44.3421 29.338L29.1631 27.6483C28.8005 30.9055 29.1721 34.4446 29.406 37.0184L44.616 35.6363ZM44.3631 29.1207C44.3524 29.2513 44.3636 29.0123 44.6665 28.0728C44.9613 27.1586 45.3153 26.212 45.8241 24.7753L31.4278 19.6763C31.0322 20.793 30.5142 22.1966 30.1307 23.386C29.7553 24.5502 29.282 26.1681 29.142 27.8656L44.3631 29.1207ZM45.7933 24.8609C46.9356 21.7538 48.625 16.988 49.0404 12.3447C49.4468 7.80298 48.7745 0.631228 41.9147 -3.27161L34.3622 10.003C34.0711 9.83741 33.8398 9.49301 33.7863 9.34013C33.7845 9.33499 33.8261 9.45437 33.8503 9.74745C33.8745 10.0408 33.8764 10.448 33.8285 10.9835C33.6157 13.362 32.6418 16.3725 31.4586 19.5907L45.7933 24.8609ZM41.8932 -3.2838C38.3314 -5.29501 35.1592 -5.89554 31.9022 -5.89554V9.37719C32.5395 9.37719 32.8972 9.42861 33.1603 9.49286C33.4137 9.55476 33.7898 9.67985 34.3837 10.0152L41.8932 -3.2838ZM31.9022 -5.89554C27.8309 -5.89554 24.5696 -4.35487 23.4954 -3.94659L28.9213 10.3298C29.179 10.2319 29.4276 10.1341 29.6389 10.0509C29.8623 9.96285 30.0426 9.89163 30.2241 9.82173C30.5807 9.68443 30.8345 9.59427 31.0512 9.52783C31.4375 9.40942 31.6729 9.37719 31.9022 9.37719V-5.89554ZM23.5742 -3.97606C22.6188 -3.62495 21.8132 -3.18403 21.3181 -2.90113C21.0519 -2.74903 20.8008 -2.59871 20.6074 -2.48256C20.3928 -2.35369 20.2533 -2.26937 20.111 -2.18603C19.8057 -2.00718 19.7943 -2.01687 19.9288 -2.07277C20.0279 -2.11395 20.74 -2.41368 21.8304 -2.41368V12.8591C23.5668 12.8591 24.9715 12.3708 25.7905 12.0303C26.6449 11.6752 27.3808 11.2556 27.8308 10.992C28.546 10.573 28.4684 10.6033 28.8948 10.3597C29.1519 10.2128 29.0873 10.2693 28.8425 10.3593L23.5742 -3.97606ZM21.8304 -2.41368C22.4236 -2.41368 22.8507 -2.30694 23.0356 -2.25212C23.2037 -2.20232 23.2474 -2.17163 23.0653 -2.25466C22.9814 -2.29295 22.8787 -2.34166 22.7251 -2.41589C22.5948 -2.47882 22.3789 -2.5839 22.1833 -2.67697C21.7748 -2.87128 21.1832 -3.14456 20.4997 -3.39575L15.2314 10.9396C15.2585 10.9495 15.3563 10.9882 15.6226 11.1148C15.7571 11.1788 16.3471 11.4675 16.7275 11.641C17.552 12.017 19.4507 12.8591 21.8304 12.8591V-2.41368ZM20.4901 -3.39926C19.6449 -3.70861 17.3541 -4.58152 15.1125 -5.27068L10.6246 9.32781C12.3715 9.86485 14.1369 10.539 15.241 10.9431L20.4901 -3.39926ZM1.25856 -3.4457C-5.81983 0.581522 -6.14198 8.05147 -5.59675 12.487C-5.03289 17.0739 -3.21664 21.885 -2.14021 24.8397L12.2099 19.6119C10.9608 16.1832 9.8701 13.1311 9.56189 10.6236C9.49332 10.0657 9.48054 9.64431 9.49469 9.34324C9.50885 9.0417 9.54677 8.93199 9.53812 8.95943C9.46817 9.18139 9.18532 9.61601 8.81114 9.82891L1.25856 -3.4457ZM-2.14455 24.8278C-1.68863 26.0858 -1.32404 27.1112 -1.05056 27.9861C-0.916975 28.4134 -0.821683 28.7529 -0.756576 29.019C-0.724655 29.1494 -0.703065 29.2498 -0.688902 29.3231C-0.674592 29.3973 -0.670315 29.4314 -0.670422 29.4305L14.4868 27.5558C14.1633 24.9399 13.0072 21.8116 12.2143 19.6238L-2.14455 24.8278ZM-0.681291 29.338C-0.527092 30.7232 -0.672326 32.523 -0.955228 35.6363L14.2548 37.0184C14.4887 34.4446 14.8603 30.9055 14.4977 27.6483L-0.681291 29.338ZM-0.961113 35.7044C-1.09155 37.298 -1.28428 39.5042 -1.38752 41.6082C-1.48303 43.5548 -1.54654 46.1061 -1.21424 48.215L13.8724 45.8378C13.8102 45.4435 13.7713 44.3044 13.8669 42.3568C13.9547 40.5666 14.1195 38.675 14.2607 36.9503L-0.961113 35.7044ZM17.1718 49.7034C17.7461 47.9362 18.6842 45.1919 19.7975 42.4496L5.64653 36.7046C4.34487 39.9108 3.28133 43.0308 2.647 44.9824L17.1718 49.7034ZM19.8104 42.4177C20.6009 40.4451 21.6552 39.0033 22.5154 38.163C22.9461 37.7423 23.2224 37.5752 23.2697 37.5497C23.3846 37.4878 22.8666 37.8124 21.8304 37.8124V22.5397C17.5173 22.5397 13.9743 25.1561 11.8432 27.2378C9.37664 29.6473 7.16871 32.906 5.63365 36.7365L19.8104 42.4177ZM-1.21424 48.215C-1.08398 49.0417 -0.810015 50.2655 -0.230531 51.5291C0.204231 52.477 1.61233 55.2515 4.95295 56.4627L10.1582 42.1043C11.534 42.603 12.4055 43.419 12.8664 43.9566C13.3225 44.4886 13.555 44.9512 13.652 45.1627C13.8339 45.5593 13.8646 45.7888 13.8724 45.8378L-1.21424 48.215ZM15.1125 -5.27068C9.87835 -6.87976 4.92444 -5.51575 1.28007 -3.4579L8.7896 9.84108C9.98276 9.16735 10.5485 9.30444 10.6246 9.32781L15.1125 -5.27068ZM-2.33048 51.217C-1.65694 53.4132 -0.353761 55.7199 1.92413 57.352C4.293 59.0493 7.1097 59.5661 9.73168 59.0712C14.6916 58.135 17.7613 54.0791 18.9678 50.2572L4.40346 45.6597C4.30723 45.9645 4.65365 44.4873 6.89884 44.0635C8.16342 43.8248 9.62482 44.0813 10.8191 44.937C11.9225 45.7275 12.2319 46.6115 12.271 46.739L-2.33048 51.217ZM26.2759 52.8578C27.604 54.6376 29.9406 56.5436 33.2473 56.8755L34.7738 41.6793C36.766 41.8794 37.978 43.0025 38.5159 43.7233L26.2759 52.8578ZM36.0904 43.5811C35.6509 42.4459 35.3061 41.3272 34.7896 39.7548C34.3137 38.3056 33.7124 36.5438 32.8828 34.7662L19.0431 41.225C19.4637 42.1264 19.8318 43.1574 20.2795 44.5205C20.6868 45.7604 21.22 47.4735 21.8478 49.0952L36.0904 43.5811ZM4.95295 56.4627C6.56656 57.0476 8.43716 57.2248 10.3428 56.7172C12.179 56.2285 13.5296 55.2439 14.4348 54.3397C16.0847 52.6913 16.8335 50.7438 17.1718 49.7034L2.647 44.9824C2.64827 44.9784 2.68631 44.8576 2.79266 44.6564C2.88853 44.475 3.1414 44.0338 3.64016 43.5354C4.15814 43.0179 5.07078 42.3161 6.41429 41.9585C7.82727 41.5824 9.1505 41.7389 10.1582 42.1043L4.95295 56.4627ZM34.9062 43.8903C35.9243 44.0296 36.4838 44.5535 36.7435 44.9171L24.3168 53.796C26.1532 56.3659 29.1296 58.5148 32.8346 59.0219L34.9062 43.8903Z" fill="#B0B0B0"/>
<path d="M42.5094 39.9635C51.2254 39.9635 58.2912 32.8978 58.2912 24.1817C58.2912 15.4657 51.2254 8.3999 42.5094 8.3999C33.7933 8.3999 26.7275 15.4657 26.7275 24.1817C26.7275 32.8978 33.7933 39.9635 42.5094 39.9635Z" fill="white" stroke="#B0B0B0" stroke-width="3"/>
<path d="M40.8131 21.3837C40.9551 21.3783 41.0948 21.4276 41.2266 21.5797C41.3688 21.7439 41.5142 22.0464 41.5786 22.5525C41.5965 22.6931 41.6131 22.8187 41.628 22.9312C41.6774 23.3047 41.7078 23.5346 41.7047 23.6986C41.7046 23.7013 41.7045 23.7039 41.7044 23.7065C41.5257 23.7452 41.1618 23.7917 40.7742 23.8013C40.5536 23.8067 40.352 23.7992 40.1988 23.7777C40.1422 23.7698 40.0993 23.7609 40.0686 23.7526C40.0576 23.7271 40.0417 23.6849 40.0241 23.6208C39.9872 23.4864 39.9577 23.3096 39.9414 23.1122C39.9079 22.7054 39.9381 22.3057 40.0106 22.0859C40.1837 21.6054 40.4806 21.3968 40.8131 21.3837ZM40.0229 23.7373C40.0229 23.7373 40.0239 23.7377 40.0258 23.7387C40.0237 23.7378 40.0228 23.7373 40.0229 23.7373Z" stroke="#B0B0B0" stroke-width="2"/>
</g>
<mask id="mask1" mask-type="alpha" maskUnits="userSpaceOnUse" x="37" y="21" width="3" height="3">
<path d="M39.2666 22.1748C39.2666 22.1748 38.3713 20.9562 37.9236 21.1187C37.476 21.2812 37.1337 22.8827 37.2522 23.2077C37.3838 23.5442 37.6998 23.8576 38.029 23.904C38.3581 23.9504 39.2007 23.8692 39.2007 23.8692C39.2007 23.8692 39.0954 23.4746 39.1085 23.0104C39.1217 22.6622 39.2666 22.1748 39.2666 22.1748Z" fill="white"/>
</mask>
<g mask="url(#mask1)">
<path d="M39.2662 22.1747L40.2422 22.4647L40.3863 21.9797L40.0867 21.5718L39.2662 22.1747ZM37.2518 23.2076L36.2952 23.5564L36.2993 23.5675L36.3036 23.5785L37.2518 23.2076ZM39.2004 23.8691L39.2981 24.8826L40.494 24.7673L40.1841 23.6065L39.2004 23.8691ZM39.1082 23.0103L38.0907 22.9718L38.0905 22.9766L38.0904 22.9815L39.1082 23.0103ZM39.2662 22.1747C40.0867 21.5718 40.0866 21.5717 40.0865 21.5716C40.0865 21.5715 40.0864 21.5714 40.0863 21.5713C40.0862 21.5711 40.086 21.5709 40.0858 21.5707C40.0855 21.5702 40.0851 21.5696 40.0846 21.569C40.0837 21.5678 40.0826 21.5662 40.0812 21.5644C40.0784 21.5607 40.0749 21.5559 40.0704 21.55C40.0616 21.5382 40.0494 21.5221 40.0343 21.5023C40.004 21.4629 39.9612 21.4084 39.9089 21.3441C39.8059 21.2174 39.658 21.0441 39.4884 20.8716C39.3266 20.7071 39.107 20.5044 38.8598 20.3506C38.6753 20.2357 38.1644 19.9479 37.5759 20.1615L38.2707 22.0757C38.0758 22.1464 37.9164 22.1194 37.8496 22.1018C37.7855 22.0849 37.7617 22.0657 37.784 22.0796C37.8306 22.1085 37.9188 22.1799 38.0368 22.2998C38.1469 22.4117 38.2509 22.5328 38.3297 22.6296C38.3682 22.677 38.399 22.7164 38.4194 22.7429C38.4296 22.7562 38.4371 22.7661 38.4416 22.7721C38.4438 22.7751 38.4453 22.7771 38.446 22.778C38.4463 22.7785 38.4465 22.7787 38.4464 22.7786C38.4464 22.7786 38.4463 22.7785 38.4462 22.7783C38.4461 22.7782 38.446 22.7781 38.4459 22.778C38.4459 22.7779 38.4458 22.7778 38.4458 22.7778C38.4457 22.7777 38.4456 22.7776 39.2662 22.1747ZM37.5759 20.1615C37.296 20.2631 37.1055 20.4433 36.9915 20.5749C36.8715 20.7135 36.7799 20.8634 36.7107 20.9957C36.5722 21.2604 36.468 21.5608 36.3934 21.8324C36.3175 22.1088 36.261 22.3966 36.2321 22.6526C36.2176 22.7801 36.2083 22.9152 36.2102 23.0462C36.2118 23.1536 36.2208 23.3523 36.2952 23.5564L38.2083 22.8588C38.2349 22.9316 38.2425 22.9849 38.2444 22.9997C38.2469 23.0187 38.2465 23.0255 38.2463 23.0162C38.2461 22.9968 38.2475 22.9522 38.2555 22.8813C38.2714 22.7405 38.3062 22.5568 38.3571 22.3719C38.4091 22.1822 38.4671 22.0314 38.5149 21.94C38.5389 21.8942 38.5466 21.8899 38.5305 21.9084C38.5205 21.9201 38.4387 22.0147 38.2707 22.0757L37.5759 20.1615ZM36.3036 23.5785C36.4274 23.8952 36.6294 24.1853 36.8752 24.4124C37.1162 24.6351 37.4606 24.8521 37.8864 24.9121L38.1708 22.8957C38.2224 22.903 38.253 22.9176 38.2623 22.9225C38.2716 22.9274 38.2685 22.9272 38.2571 22.9167C38.2461 22.9065 38.2331 22.892 38.2212 22.8746C38.2092 22.8572 38.2026 22.8433 38.2 22.8367L36.3036 23.5785ZM37.8864 24.9121C38.1679 24.9518 38.5628 24.9339 38.7964 24.9204C38.9327 24.9125 39.0569 24.9032 39.1467 24.8958C39.1918 24.8922 39.2287 24.8889 39.2547 24.8866C39.2678 24.8854 39.2781 24.8844 39.2854 24.8838C39.2891 24.8834 39.292 24.8832 39.2941 24.883C39.2952 24.8829 39.2961 24.8828 39.2967 24.8827C39.297 24.8827 39.2973 24.8827 39.2975 24.8826C39.2976 24.8826 39.2977 24.8826 39.2979 24.8826C39.2979 24.8826 39.298 24.8826 39.298 24.8826C39.298 24.8826 39.2981 24.8826 39.2004 23.8691C39.1026 22.8556 39.1027 22.8556 39.1027 22.8556H39.1028C39.1028 22.8556 39.1028 22.8556 39.1029 22.8556C39.1029 22.8556 39.1028 22.8556 39.1028 22.8556C39.1026 22.8556 39.1023 22.8557 39.1017 22.8557C39.1006 22.8558 39.0987 22.856 39.0961 22.8562C39.091 22.8567 39.0829 22.8574 39.0723 22.8584C39.0509 22.8603 39.0195 22.8631 38.9804 22.8663C38.9019 22.8727 38.7948 22.8808 38.6794 22.8874C38.5626 22.8941 38.4443 22.899 38.3417 22.8999C38.2906 22.9004 38.2482 22.8997 38.2149 22.8984C38.1792 22.8969 38.1664 22.8951 38.1708 22.8957L37.8864 24.9121ZM39.2004 23.8691C40.1841 23.6065 40.1841 23.6067 40.1842 23.6068C40.1842 23.6069 40.1842 23.607 40.1842 23.6071C40.1843 23.6073 40.1843 23.6075 40.1844 23.6077C40.1845 23.608 40.1846 23.6084 40.1847 23.6087C40.1848 23.6094 40.185 23.6099 40.1851 23.6104C40.1853 23.6114 40.1855 23.612 40.1856 23.6122C40.1857 23.6128 40.1855 23.6119 40.185 23.6098C40.184 23.6057 40.1818 23.5964 40.1788 23.5828C40.1728 23.5554 40.1639 23.5114 40.1551 23.4553C40.1369 23.3398 40.1217 23.1906 40.1259 23.0392L38.0904 22.9815C38.0815 23.2942 38.1124 23.5744 38.1435 23.7723C38.1594 23.8729 38.176 23.9565 38.1894 24.0176C38.1961 24.0482 38.202 24.0735 38.2067 24.0926C38.2091 24.1022 38.2111 24.1104 38.2127 24.1169C38.2136 24.1201 38.2143 24.123 38.215 24.1255C38.2153 24.1267 38.2156 24.1279 38.2159 24.1289C38.216 24.1294 38.2161 24.1299 38.2162 24.1304C38.2163 24.1306 38.2164 24.1308 38.2164 24.131C38.2165 24.1312 38.2165 24.1313 38.2165 24.1314C38.2166 24.1315 38.2166 24.1317 39.2004 23.8691ZM40.1256 23.0488C40.1285 22.9728 40.1503 22.8391 40.1846 22.6891C40.2001 22.6217 40.2152 22.5628 40.2264 22.5213C40.232 22.5007 40.2364 22.4849 40.2393 22.475C40.2406 22.47 40.2417 22.4666 40.2422 22.4648C40.2424 22.464 40.2426 22.4635 40.2426 22.4635C40.2426 22.4635 40.2425 22.4635 40.2425 22.4638C40.2424 22.4639 40.2424 22.464 40.2424 22.4641C40.2423 22.4642 40.2423 22.4643 40.2423 22.4644C40.2423 22.4644 40.2423 22.4645 40.2422 22.4645C40.2422 22.4646 40.2422 22.4647 39.2662 22.1747C38.2902 21.8847 38.2902 21.8848 38.2901 21.8849C38.2901 21.8849 38.2901 21.885 38.2901 21.8851C38.29 21.8852 38.29 21.8853 38.29 21.8854C38.2899 21.8857 38.2897 21.886 38.2896 21.8864C38.2895 21.8871 38.2892 21.8878 38.289 21.8887C38.2884 21.8906 38.2878 21.8929 38.2869 21.8957C38.2853 21.9012 38.2832 21.9086 38.2806 21.9177C38.2754 21.9358 38.2685 21.9608 38.2602 21.9913C38.2439 22.0521 38.222 22.1368 38.1996 22.2348C38.1582 22.4156 38.101 22.6997 38.0907 22.9718L40.1256 23.0488Z" fill="#B0B0B0"/>
<path d="M36.5352 22.1818C36.5426 22.1916 36.5499 22.2011 36.5569 22.2104C36.5551 22.2231 36.5532 22.2362 36.5515 22.2497C36.5324 22.3931 36.5118 22.5969 36.5191 22.7893C36.5202 22.9476 36.5444 23.1233 36.5681 23.2612C36.5564 23.2685 36.5445 23.2757 36.5324 23.283C36.4511 23.3318 36.3729 23.3721 36.3071 23.3973C36.3068 23.3974 36.3065 23.3975 36.3062 23.3976C36.2575 23.2857 36.2193 23.1395 36.1623 22.9214C36.1468 22.8624 36.13 22.7982 36.1113 22.7279L36.1096 22.7215L36.1077 22.7152C36.0417 22.4914 35.9948 22.0822 36.0096 21.7118C36.0116 21.6632 36.0145 21.6174 36.0183 21.5747C36.0739 21.6307 36.1324 21.6936 36.1923 21.7614C36.323 21.9094 36.4449 22.0633 36.5352 22.1818ZM36.6778 22.3749C36.6779 22.3749 36.6779 22.3749 36.6778 22.3749V22.3749Z" stroke="#B0B0B0" stroke-width="2"/>
</g>
<mask id="mask2" mask-type="alpha" maskUnits="userSpaceOnUse" x="34" y="21" width="2" height="3">
<path d="M35.2907 22.0354C35.2907 22.0354 34.514 21.165 34.3164 21.2694C34.119 21.3855 34.2506 22.3487 34.4481 22.6969C34.6456 23.0451 34.7114 23.4629 34.9747 23.5093C35.2249 23.5557 35.4751 23.4745 35.4751 23.4745C35.4751 23.4745 35.3171 23.0683 35.2775 22.7781C35.238 22.488 35.2907 22.0354 35.2907 22.0354Z" fill="white"/>
</mask>
<g mask="url(#mask2)">
<path d="M35.2903 22.0354L36.3017 22.1531L36.3545 21.6987L36.05 21.3575L35.2903 22.0354ZM34.316 21.2694L33.84 20.3694L33.8199 20.3801L33.8002 20.3916L34.316 21.2694ZM34.9744 23.5093L35.1601 22.5082L35.1556 22.5073L35.1512 22.5066L34.9744 23.5093ZM35.4747 23.4745L35.7892 24.4429L36.8143 24.11L36.4236 23.1054L35.4747 23.4745ZM35.2903 22.0354C36.05 21.3575 36.05 21.3574 36.0499 21.3573C36.0499 21.3573 36.0498 21.3572 36.0497 21.3571C36.0496 21.357 36.0495 21.3568 36.0494 21.3567C36.0491 21.3564 36.0488 21.3561 36.0484 21.3557C36.0477 21.3549 36.0468 21.3539 36.0457 21.3527C36.0435 21.3502 36.0406 21.347 36.037 21.343C36.0298 21.335 36.0197 21.3239 36.0072 21.3103C35.9822 21.2829 35.947 21.245 35.9044 21.2C35.8203 21.1115 35.7019 20.9903 35.5724 20.8693C35.4506 20.7554 35.2865 20.611 35.1155 20.4973C35.0337 20.4429 34.9042 20.364 34.7458 20.3095C34.6234 20.2674 34.2448 20.1553 33.84 20.3694L34.7921 22.1695C34.6093 22.2661 34.4363 22.2827 34.3203 22.2783C34.2081 22.2739 34.125 22.2495 34.0835 22.2352C34.0053 22.2083 33.9689 22.1803 33.9877 22.1928C34.0179 22.2129 34.0851 22.2665 34.1821 22.3572C34.2716 22.4408 34.3596 22.5306 34.4274 22.602C34.4607 22.6371 34.4877 22.6662 34.5059 22.6861C34.515 22.6961 34.5219 22.7036 34.5261 22.7083C34.5282 22.7106 34.5297 22.7123 34.5305 22.7131C34.5309 22.7135 34.5311 22.7138 34.5311 22.7138C34.5311 22.7138 34.5311 22.7138 34.531 22.7137C34.531 22.7137 34.5309 22.7136 34.5309 22.7136C34.5309 22.7135 34.5308 22.7135 34.5308 22.7135C34.5307 22.7134 34.5307 22.7133 35.2903 22.0354ZM33.8002 20.3916C33.4939 20.5716 33.362 20.8426 33.3087 20.9788C33.2492 21.131 33.2251 21.2761 33.2135 21.381C33.1899 21.5947 33.2008 21.8179 33.2217 22.0076C33.2601 22.3561 33.362 22.8464 33.5621 23.1992L35.3334 22.1946C35.3438 22.213 35.342 22.2137 35.3324 22.1876C35.3237 22.1642 35.3127 22.1297 35.3009 22.0848C35.277 21.9936 35.257 21.8862 35.2459 21.7846C35.2404 21.7348 35.2376 21.6917 35.2368 21.6573C35.2364 21.6403 35.2365 21.6269 35.2369 21.6172C35.2372 21.6073 35.2377 21.603 35.2376 21.604C35.2376 21.6044 35.2365 21.6142 35.2328 21.6312C35.2293 21.6474 35.2214 21.6791 35.2051 21.7207C35.1893 21.7611 35.1596 21.8263 35.1061 21.8999C35.0517 21.9745 34.964 22.0696 34.8319 22.1473L33.8002 20.3916ZM33.5621 23.1992C33.5825 23.2353 33.6057 23.2842 33.6403 23.3651C33.6669 23.427 33.719 23.5541 33.769 23.658C33.8398 23.805 34.1151 24.3917 34.7976 24.512L35.1512 22.5066C35.2472 22.5235 35.3354 22.5583 35.4108 22.6039C35.4835 22.6479 35.5334 22.695 35.5636 22.7284C35.5931 22.761 35.6083 22.7853 35.6117 22.7908C35.6152 22.7965 35.6126 22.7931 35.6037 22.7745C35.5947 22.7559 35.5835 22.7309 35.5675 22.6936C35.5597 22.6752 35.5516 22.656 35.5422 22.6339C35.5331 22.6124 35.5229 22.5881 35.5123 22.5633C35.4708 22.4665 35.4117 22.3326 35.3334 22.1946L33.5621 23.1992ZM34.7886 24.5104C35.0673 24.5621 35.3171 24.5398 35.4739 24.5155C35.5573 24.5026 35.6278 24.487 35.6803 24.4738C35.7068 24.4671 35.7295 24.4609 35.7477 24.4556C35.7568 24.4529 35.7648 24.4505 35.7717 24.4484C35.7752 24.4473 35.7784 24.4463 35.7813 24.4454C35.7827 24.4449 35.7842 24.4445 35.7854 24.4441C35.7861 24.4439 35.7868 24.4437 35.7874 24.4435C35.7877 24.4434 35.788 24.4433 35.7883 24.4432C35.7884 24.4431 35.7886 24.443 35.7887 24.443C35.7889 24.443 35.7892 24.4429 35.4747 23.4745C35.1602 22.5061 35.1604 22.506 35.1606 22.5059C35.1607 22.5059 35.1609 22.5058 35.161 22.5058C35.1613 22.5057 35.1616 22.5056 35.1619 22.5055C35.1625 22.5054 35.163 22.5052 35.1635 22.505C35.1646 22.5046 35.1656 22.5043 35.1666 22.504C35.1685 22.5034 35.1702 22.5029 35.1718 22.5024C35.175 22.5014 35.1774 22.5007 35.1792 22.5002C35.1827 22.4991 35.1838 22.4989 35.183 22.4991C35.1808 22.4997 35.1732 22.5014 35.1627 22.5031C35.132 22.5078 35.1316 22.5029 35.1601 22.5082L34.7886 24.5104ZM35.4747 23.4745C36.4236 23.1054 36.4236 23.1054 36.4236 23.1055L36.4237 23.1056C36.4237 23.1057 36.4238 23.1058 36.4238 23.1059C36.4238 23.106 36.4239 23.1061 36.4239 23.1062C36.424 23.1064 36.424 23.1065 36.424 23.1066C36.4241 23.1066 36.4239 23.1063 36.4237 23.1056C36.4232 23.1043 36.4221 23.1015 36.4206 23.0975C36.4176 23.0895 36.4128 23.0767 36.4067 23.0599C36.3944 23.0259 36.3775 22.9777 36.3598 22.9227C36.3196 22.798 36.2933 22.6936 36.2861 22.6408L34.2683 22.9155C34.3006 23.1528 34.373 23.3965 34.4217 23.5476C34.4484 23.6303 34.4735 23.7018 34.492 23.7531C34.5014 23.7789 34.5092 23.8 34.515 23.8154C34.5178 23.823 34.5202 23.8293 34.5221 23.8341C34.523 23.8364 34.5238 23.8384 34.5244 23.84C34.5247 23.8408 34.5249 23.8415 34.5252 23.8421C34.5253 23.8424 34.5254 23.8426 34.5255 23.8429C34.5255 23.843 34.5256 23.8431 34.5256 23.8432C34.5256 23.8433 34.5257 23.8434 34.5257 23.8434C34.5257 23.8435 34.5257 23.8436 35.4747 23.4745ZM36.2861 22.6408C36.28 22.5964 36.278 22.491 36.2856 22.354C36.2889 22.2944 36.2932 22.2415 36.2966 22.2039C36.2983 22.1853 36.2998 22.1709 36.3007 22.162C36.3012 22.1575 36.3016 22.1545 36.3017 22.1529C36.3018 22.1522 36.3019 22.1517 36.3019 22.1518C36.3019 22.1518 36.3019 22.1519 36.3018 22.1521C36.3018 22.1522 36.3018 22.1524 36.3018 22.1525C36.3018 22.1526 36.3018 22.1527 36.3018 22.1528C36.3017 22.1528 36.3017 22.1529 36.3017 22.1529C36.3017 22.153 36.3017 22.1531 35.2903 22.0354C34.279 21.9177 34.279 21.9178 34.279 21.9179C34.2789 21.9179 34.2789 21.918 34.2789 21.9181C34.2789 21.9182 34.2789 21.9183 34.2789 21.9184C34.2789 21.9187 34.2788 21.919 34.2788 21.9193C34.2787 21.92 34.2786 21.9207 34.2785 21.9216C34.2783 21.9234 34.2781 21.9256 34.2778 21.9282C34.2772 21.9333 34.2764 21.9403 34.2756 21.9488C34.2738 21.9657 34.2715 21.989 34.2688 22.0174C34.2637 22.0738 34.2572 22.1521 34.2523 22.242C34.2434 22.4037 34.2348 22.6697 34.2683 22.9155L36.2861 22.6408Z" fill="#B0B0B0"/>
</g>
<mask id="mask3" mask-type="alpha" maskUnits="userSpaceOnUse" x="33" y="21" width="2" height="3">
<path d="M34.1579 22.5227C33.9604 22.1629 33.6181 21.3505 33.5128 21.3854C33.4075 21.4202 33.5786 22.5459 33.6576 22.9057C33.7235 23.2654 33.763 23.3815 33.9604 23.4163C34.1579 23.4512 34.4213 23.4163 34.4608 23.3699C34.5002 23.3119 34.1579 22.5227 34.1579 22.5227Z" fill="white"/>
</mask>
<g mask="url(#mask3)">
<path d="M34.1586 22.5229L35.0927 22.1178L35.0738 22.0744L35.0511 22.033L34.1586 22.5229ZM33.6583 22.9059L34.6598 22.7227L34.6566 22.705L34.6528 22.6875L33.6583 22.9059ZM34.4614 23.3701L35.2369 24.0299L35.2723 23.9883L35.3031 23.9431L34.4614 23.3701ZM35.0511 22.033C34.9586 21.8644 34.8665 21.6557 34.7098 21.3462C34.6466 21.2215 34.5668 21.0695 34.4845 20.943C34.4478 20.8865 34.3776 20.7829 34.2789 20.6853C34.2311 20.6381 34.1329 20.548 33.9872 20.476C33.8386 20.4025 33.5435 20.3033 33.1939 20.4189L33.833 22.3523C33.4965 22.4635 33.2164 22.3666 33.0845 22.3013C32.9555 22.2375 32.8757 22.1616 32.8477 22.1341C32.7886 22.0757 32.764 22.0326 32.7773 22.053C32.795 22.0803 32.8329 22.1474 32.8931 22.2663C32.9502 22.379 33.0092 22.5017 33.074 22.6346C33.1342 22.7581 33.2029 22.898 33.266 23.0128L35.0511 22.033ZM33.1939 20.4189C32.7727 20.5581 32.608 20.8965 32.565 20.994C32.5081 21.1232 32.4878 21.2384 32.4794 21.2945C32.461 21.4159 32.4609 21.5329 32.4626 21.6089C32.4661 21.7749 32.4848 21.9689 32.5057 22.1446C32.5481 22.4994 32.6155 22.9045 32.6638 23.1243L34.6528 22.6875C34.622 22.5475 34.5643 22.2099 34.5277 21.9031C34.5092 21.7481 34.4999 21.6317 34.4985 21.5655C34.4976 21.5255 34.5008 21.546 34.493 21.5978C34.4898 21.6191 34.4765 21.7062 34.4286 21.8148C34.3947 21.8919 34.2411 22.2174 33.833 22.3523L33.1939 20.4189ZM32.6567 23.0892C32.6817 23.2258 32.7301 23.521 32.8667 23.7711C32.9541 23.9311 33.0857 24.0953 33.2799 24.2231C33.4646 24.3447 33.6487 24.3953 33.7843 24.4193L34.1379 22.4138C34.1747 22.4203 34.2798 22.4434 34.3996 22.5222C34.5287 22.6072 34.6093 22.7134 34.6539 22.795C34.6903 22.8617 34.6982 22.9041 34.6913 22.8775C34.6852 22.8539 34.6759 22.8104 34.6598 22.7227L32.6567 23.0892ZM33.7843 24.4193C33.9987 24.4571 34.2128 24.4539 34.3782 24.4363C34.4629 24.4272 34.5639 24.4115 34.6666 24.383C34.7171 24.369 34.7893 24.346 34.8687 24.3088C34.9282 24.2809 35.0919 24.2003 35.2369 24.0299L33.6859 22.7103C33.7603 22.6228 33.8346 22.5666 33.8821 22.5346C33.932 22.5009 33.9753 22.4786 34.0046 22.4649C34.0613 22.4383 34.1049 22.4255 34.122 22.4208C34.1581 22.4107 34.1735 22.4102 34.1628 22.4114C34.1373 22.414 34.1209 22.4108 34.1379 22.4138L33.7843 24.4193ZM35.3031 23.9431C35.4209 23.7699 35.4565 23.6043 35.4694 23.5233C35.4839 23.4328 35.4837 23.3578 35.4819 23.3127C35.4786 23.2234 35.4648 23.1499 35.457 23.112C35.4402 23.0302 35.4167 22.9532 35.3996 22.9003C35.363 22.787 35.3145 22.6591 35.272 22.5513C35.228 22.4396 35.1833 22.3316 35.1501 22.2527C35.1334 22.2129 35.1193 22.1798 35.1093 22.1563C35.1042 22.1446 35.1003 22.1353 35.0974 22.1288C35.096 22.1255 35.0949 22.1229 35.0941 22.1211C35.0937 22.1201 35.0934 22.1194 35.0931 22.1188C35.093 22.1186 35.0929 22.1183 35.0928 22.1182C35.0928 22.1181 35.0928 22.118 35.0927 22.1179C35.0927 22.1179 35.0927 22.1178 35.0927 22.1178C35.0927 22.1178 35.0927 22.1178 34.1586 22.5229C33.2245 22.9281 33.2245 22.9281 33.2245 22.928C33.2245 22.928 33.2244 22.928 33.2244 22.928C33.2244 22.928 33.2245 22.928 33.2245 22.9281C33.2246 22.9284 33.2248 22.9287 33.225 22.9293C33.2255 22.9305 33.2263 22.9323 33.2274 22.9348C33.2296 22.9398 33.2329 22.9475 33.2371 22.9575C33.2457 22.9775 33.258 23.0065 33.2728 23.0416C33.3026 23.1125 33.341 23.2054 33.3776 23.2982C33.4157 23.395 33.4454 23.4753 33.4619 23.5263C33.4713 23.5555 33.4681 23.5496 33.4624 23.5221C33.4602 23.5113 33.4497 23.4608 33.447 23.3893C33.4457 23.3532 33.4451 23.2859 33.4585 23.2019C33.4705 23.1273 33.5043 22.9667 33.6197 22.7972L35.3031 23.9431Z" fill="#B0B0B0"/>
</g>
<mask id="mask4" mask-type="alpha" maskUnits="userSpaceOnUse" x="32" y="21" width="2" height="3">
<path d="M32.9341 21.3972C32.7762 21.4785 32.7367 22.0819 32.8683 22.4533C33 22.8247 33.2501 23.0684 33.3687 23.022C33.5003 22.9756 33.4213 22.3605 33.3291 22.0239C33.2501 21.699 32.9341 21.3972 32.9341 21.3972Z" fill="white"/>
</mask>
<g mask="url(#mask4)">
<path d="M32.9337 21.3971L33.637 20.6607L33.1127 20.1602L32.4682 20.4916L32.9337 21.3971ZM33.3683 23.0219L33.0297 22.0616L33.0132 22.0675L32.9968 22.0738L33.3683 23.0219ZM33.3287 22.0238L32.3394 22.2643L32.3428 22.2785L32.3467 22.2927L33.3287 22.0238ZM32.4682 20.4916C32.2329 20.6126 32.0947 20.7887 32.0217 20.9031C31.9451 21.0233 31.8986 21.1409 31.8695 21.2309C31.8114 21.4108 31.7861 21.5952 31.7761 21.7518C31.7567 22.0569 31.7848 22.4451 31.9083 22.7934L33.8276 22.113C33.828 22.114 33.8255 22.107 33.822 22.0907C33.8185 22.0748 33.8151 22.0542 33.8123 22.0294C33.8065 21.9782 33.8056 21.925 33.8084 21.8808C33.8116 21.83 33.8175 21.8251 33.8071 21.8574C33.8018 21.8736 33.7834 21.9279 33.7387 21.998C33.6976 22.0625 33.5951 22.2019 33.3994 22.3026L32.4682 20.4916ZM31.9083 22.7934C32.0151 23.0948 32.1779 23.3716 32.3751 23.5851C32.4709 23.6888 32.6074 23.813 32.7856 23.9065C32.937 23.9859 33.3077 24.1391 33.7396 23.9699L32.9968 22.0738C33.3695 21.9278 33.6645 22.068 33.7316 22.1032C33.8254 22.1524 33.8689 22.2012 33.8709 22.2033C33.8805 22.2137 33.8524 22.1829 33.8276 22.113L31.9083 22.7934ZM33.7068 23.9821C34.088 23.8477 34.2634 23.5539 34.3303 23.4111C34.4014 23.2591 34.4274 23.1176 34.439 23.034C34.4633 22.8601 34.4573 22.6857 34.4479 22.5571C34.4281 22.2881 34.3738 21.9851 34.3108 21.7549L32.3467 22.2927C32.3758 22.399 32.4071 22.5719 32.417 22.7062C32.4224 22.7792 32.4172 22.7883 32.4221 22.7533C32.4241 22.7392 32.4353 22.656 32.4859 22.5478C32.5323 22.4489 32.6814 22.1844 33.0297 22.0616L33.7068 23.9821ZM34.3181 21.7833C34.229 21.4167 34.03 21.1262 33.91 20.9696C33.8425 20.8813 33.7792 20.8092 33.7319 20.758C33.7079 20.7321 33.6872 20.7107 33.6712 20.6944C33.6631 20.6863 33.6561 20.6794 33.6504 20.6737C33.6475 20.6709 33.6449 20.6684 33.6427 20.6662C33.6416 20.6652 33.6405 20.6642 33.6396 20.6632C33.6391 20.6628 33.6386 20.6623 33.6382 20.6619C33.638 20.6617 33.6378 20.6615 33.6376 20.6613C33.6375 20.6612 33.6373 20.6611 33.6373 20.661C33.6371 20.6608 33.637 20.6607 32.9337 21.3971C32.2306 22.1334 32.2304 22.1333 32.2303 22.1332C32.2302 22.1331 32.2301 22.133 32.23 22.1329C32.2298 22.1327 32.2296 22.1325 32.2295 22.1324C32.2291 22.132 32.2288 22.1317 32.2284 22.1314C32.2277 22.1307 32.2272 22.1302 32.2267 22.1297C32.2256 22.1287 32.2248 22.1279 32.2243 22.1274C32.2232 22.1263 32.2231 22.1262 32.2238 22.1269C32.2253 22.1285 32.23 22.1332 32.2369 22.1406C32.2512 22.1561 32.2719 22.1798 32.2933 22.2076C32.351 22.2831 32.3495 22.3059 32.3394 22.2643L34.3181 21.7833Z" fill="#B0B0B0"/>
</g>
<mask id="mask5" mask-type="alpha" maskUnits="userSpaceOnUse" x="32" y="23" width="2" height="3">
<path d="M33.0042 23.9513C32.7571 23.9795 32.419 24.5149 32.328 24.9563C32.237 25.3884 32.6271 25.5669 32.8481 25.4729C33.0822 25.379 32.9781 25.0972 33.1992 24.6933C33.2903 24.5149 33.6934 24.2425 33.6673 24.158C33.6283 24.0828 33.2513 23.9325 33.0042 23.9513Z" fill="white"/>
</mask>
<g mask="url(#mask5)">
<path d="M33.0046 23.9514L32.9274 22.9361L32.9083 22.9376L32.8892 22.9398L33.0046 23.9514ZM32.3284 24.9564L33.3247 25.1663L33.3256 25.162L32.3284 24.9564ZM32.8485 25.473L32.4694 24.528L32.4598 24.5318L32.4504 24.5359L32.8485 25.473ZM33.1997 24.6934L34.0928 25.1823L34.0999 25.1693L34.1067 25.156L33.1997 24.6934ZM33.6678 24.158L34.6409 23.8586L34.6139 23.7706L34.5715 23.6889L33.6678 24.158ZM32.8892 22.9398C32.518 22.9821 32.2566 23.1843 32.1265 23.3013C31.9756 23.4371 31.853 23.5941 31.7576 23.739C31.5696 24.0244 31.4061 24.3874 31.3312 24.7507L33.3256 25.162C33.3322 25.1301 33.3471 25.0798 33.3734 25.0185C33.3993 24.9582 33.4297 24.9024 33.4583 24.8589C33.4898 24.8111 33.5037 24.8015 33.4885 24.8152C33.4798 24.8229 33.4505 24.8483 33.3992 24.8766C33.3493 24.9041 33.2539 24.9478 33.12 24.963L32.8892 22.9398ZM31.3321 24.7465C31.2095 25.3284 31.413 25.8848 31.8535 26.2212C32.2217 26.5023 32.7587 26.6174 33.2467 26.4101L32.4504 24.5359C32.7173 24.4224 32.9488 24.4953 33.0893 24.6027C33.1777 24.6702 33.2553 24.768 33.2987 24.8893C33.3426 25.0117 33.3359 25.1132 33.3247 25.1663L31.3321 24.7465ZM33.2277 26.4179C33.504 26.3071 33.715 26.1153 33.8521 25.8788C33.9625 25.6881 34.0051 25.4968 34.0206 25.4303C34.0615 25.2545 34.0633 25.2362 34.0928 25.1823L32.3065 24.2045C32.115 24.5544 32.0582 24.879 32.0373 24.9686C32.0316 24.9928 32.0318 24.9895 32.0364 24.9751C32.0415 24.9595 32.0572 24.9147 32.0901 24.8579C32.1252 24.7973 32.1773 24.7275 32.2514 24.6627C32.3256 24.5978 32.4024 24.5549 32.4694 24.528L33.2277 26.4179ZM34.1067 25.156C34.0564 25.2546 34.0073 25.295 34.0471 25.2538C34.0734 25.2266 34.1075 25.195 34.1698 25.1371C34.2145 25.0958 34.3056 25.0122 34.3812 24.9267C34.4171 24.886 34.4891 24.8016 34.5517 24.6876C34.5905 24.6167 34.7714 24.2827 34.6409 23.8586L32.6946 24.4575C32.6294 24.2455 32.6493 24.0613 32.6759 23.9465C32.702 23.8336 32.7425 23.7515 32.7661 23.7084C32.8112 23.6261 32.8553 23.5783 32.8557 23.5777C32.8627 23.5698 32.8621 23.5712 32.8463 23.5866C32.8315 23.6009 32.8128 23.6184 32.7854 23.6438C32.7388 23.6869 32.6567 23.7621 32.5825 23.8389C32.5437 23.8791 32.4972 23.9298 32.4508 23.9879C32.4067 24.0432 32.3461 24.126 32.2927 24.2308L34.1067 25.156ZM34.5715 23.6889C34.4632 23.4805 34.3112 23.3602 34.2621 23.3221C34.1908 23.2668 34.1218 23.2257 34.0697 23.1974C33.9635 23.1395 33.8502 23.0926 33.7446 23.0564C33.5561 22.9917 33.2489 22.9117 32.9274 22.9361L33.0818 24.9667C33.0309 24.9705 33.0101 24.9643 33.028 24.9675C33.0411 24.9699 33.0618 24.975 33.0838 24.9826C33.1083 24.991 33.1119 24.9945 33.0952 24.9854C33.0879 24.9814 33.0567 24.9643 33.0143 24.9315C32.9927 24.9146 32.9579 24.8859 32.9186 24.8446C32.8823 24.8063 32.8196 24.734 32.7641 24.6272L34.5715 23.6889Z" fill="#B0B0B0"/>
</g>
<mask id="mask6" mask-type="alpha" maskUnits="userSpaceOnUse" x="49" y="21" width="2" height="3">
<path d="M49.4568 22.0354C49.4568 22.0354 50.2336 21.165 50.4311 21.2694C50.6286 21.3855 50.4969 22.3487 50.2994 22.6969C50.1019 23.0451 50.0361 23.4629 49.7728 23.5093C49.5226 23.5557 49.2725 23.4745 49.2725 23.4745C49.2725 23.4745 49.4305 23.0683 49.47 22.7781C49.5095 22.488 49.4568 22.0354 49.4568 22.0354Z" fill="white"/>
</mask>
<g mask="url(#mask6)">
<path d="M49.4566 22.0354L48.6969 21.3575L48.3924 21.6987L48.4452 22.1531L49.4566 22.0354ZM50.4309 21.2694L50.9468 20.3916L50.927 20.3801L50.9069 20.3694L50.4309 21.2694ZM49.7726 23.5093L49.5958 22.5066L49.5913 22.5073L49.5868 22.5082L49.7726 23.5093ZM49.2722 23.4745L48.3233 23.1054L47.9326 24.11L48.9578 24.4429L49.2722 23.4745ZM49.4566 22.0354C50.2162 22.7133 50.2162 22.7134 50.2161 22.7135C50.2161 22.7135 50.216 22.7135 50.216 22.7136C50.216 22.7136 50.2159 22.7137 50.2159 22.7137C50.2158 22.7138 50.2158 22.7138 50.2158 22.7138C50.2158 22.7138 50.216 22.7135 50.2165 22.7131C50.2172 22.7123 50.2187 22.7106 50.2208 22.7083C50.2251 22.7036 50.2319 22.6961 50.241 22.6861C50.2592 22.6662 50.2862 22.6371 50.3195 22.602C50.3873 22.5306 50.4754 22.4408 50.5649 22.3572C50.6619 22.2665 50.7291 22.2129 50.7592 22.1928C50.778 22.1803 50.7416 22.2083 50.6634 22.2352C50.6219 22.2495 50.5388 22.2739 50.4266 22.2783C50.3106 22.2827 50.1376 22.2661 49.9548 22.1695L50.9069 20.3694C50.5022 20.1553 50.1235 20.2674 50.0012 20.3095C49.8427 20.364 49.7132 20.4429 49.6314 20.4973C49.4604 20.611 49.2964 20.7554 49.1745 20.8693C49.045 20.9903 48.9266 21.1115 48.8426 21.2C48.8 21.245 48.7647 21.2829 48.7397 21.3103C48.7272 21.3239 48.7171 21.335 48.7099 21.343C48.7063 21.347 48.7034 21.3502 48.7012 21.3527C48.7001 21.3539 48.6992 21.3549 48.6985 21.3557C48.6981 21.3561 48.6978 21.3564 48.6976 21.3567C48.6974 21.3568 48.6973 21.357 48.6972 21.3571C48.6972 21.3572 48.6971 21.3573 48.6971 21.3573C48.697 21.3574 48.6969 21.3575 49.4566 22.0354ZM49.915 22.1473C49.7829 22.0696 49.6952 21.9745 49.6409 21.8999C49.5873 21.8263 49.5576 21.7611 49.5418 21.7207C49.5255 21.6791 49.5177 21.6474 49.5141 21.6312C49.5104 21.6142 49.5094 21.6044 49.5093 21.604C49.5092 21.603 49.5097 21.6073 49.51 21.6172C49.5104 21.6269 49.5105 21.6403 49.5101 21.6573C49.5094 21.6917 49.5066 21.7348 49.5011 21.7846C49.4899 21.8862 49.47 21.9936 49.446 22.0848C49.4342 22.1297 49.4232 22.1642 49.4145 22.1876C49.4049 22.2137 49.4031 22.213 49.4136 22.1946L51.1846 23.1992C51.3852 22.8464 51.487 22.3561 51.5252 22.0076C51.546 21.8179 51.5567 21.5947 51.5333 21.381C51.5221 21.2761 51.4977 21.131 51.4381 20.9788C51.3847 20.8426 51.2528 20.5716 50.9468 20.3916L49.915 22.1473ZM49.4136 22.1946C49.3353 22.3326 49.2762 22.4665 49.2347 22.5633C49.224 22.5881 49.2138 22.6124 49.2047 22.6339C49.1953 22.656 49.1873 22.6752 49.1794 22.6936C49.1634 22.7309 49.1522 22.7559 49.1432 22.7745C49.1343 22.7931 49.1317 22.7965 49.1352 22.7908C49.1386 22.7853 49.1538 22.761 49.1833 22.7284C49.2135 22.695 49.2634 22.6479 49.3361 22.6039C49.4115 22.5583 49.4997 22.5235 49.5958 22.5066L49.9493 24.512C50.6319 24.3917 50.9071 23.805 50.9779 23.658C51.0278 23.5541 51.0802 23.427 51.1067 23.3651C51.1413 23.2842 51.1642 23.2353 51.1846 23.1992L49.4136 22.1946ZM49.5868 22.5082C49.6154 22.5029 49.615 22.5078 49.5842 22.5031C49.5738 22.5014 49.5661 22.4997 49.5639 22.4991C49.5631 22.4989 49.5642 22.4991 49.5678 22.5002C49.5695 22.5007 49.5719 22.5014 49.5751 22.5024C49.5767 22.5029 49.5784 22.5034 49.5803 22.504C49.5813 22.5043 49.5823 22.5046 49.5834 22.505C49.584 22.5052 49.5845 22.5054 49.585 22.5055C49.5853 22.5056 49.5856 22.5057 49.5859 22.5058C49.586 22.5058 49.5862 22.5059 49.5863 22.5059C49.5866 22.506 49.5868 22.5061 49.2722 23.4745C48.9578 24.4429 48.958 24.443 48.9582 24.443C48.9583 24.443 48.9585 24.4431 48.9586 24.4432C48.9589 24.4433 48.9593 24.4434 48.9596 24.4435C48.9602 24.4437 48.9608 24.4439 48.9615 24.4441C48.9628 24.4445 48.9642 24.4449 48.9656 24.4454C48.9685 24.4463 48.9717 24.4473 48.9752 24.4484C48.9821 24.4505 48.9902 24.4529 48.9993 24.4556C49.0174 24.4609 49.0401 24.4671 49.0666 24.4738C49.1191 24.487 49.1896 24.5026 49.273 24.5155C49.4299 24.5398 49.6796 24.5621 49.9583 24.5104L49.5868 22.5082ZM49.2722 23.4745C50.2212 23.8436 50.2212 23.8435 50.2212 23.8434C50.2212 23.8434 50.2213 23.8433 50.2213 23.8432C50.2213 23.8431 50.2214 23.843 50.2214 23.8429C50.2215 23.8426 50.2216 23.8424 50.2217 23.8421C50.222 23.8415 50.2223 23.8408 50.2226 23.84C50.2232 23.8384 50.2239 23.8364 50.2249 23.8341C50.2267 23.8293 50.2291 23.823 50.232 23.8154C50.2377 23.8 50.2456 23.7789 50.2549 23.7531C50.2735 23.7018 50.2986 23.6303 50.3252 23.5476C50.374 23.3965 50.4463 23.1528 50.4786 22.9155L48.4609 22.6408C48.4537 22.6936 48.4273 22.798 48.3871 22.9227C48.3694 22.9777 48.3525 23.0259 48.3402 23.0599C48.3341 23.0767 48.3293 23.0895 48.3263 23.0975C48.3248 23.1015 48.3238 23.1043 48.3232 23.1056C48.323 23.1063 48.3228 23.1066 48.3229 23.1066C48.3229 23.1065 48.3229 23.1064 48.323 23.1062C48.323 23.1061 48.3231 23.106 48.3231 23.1059C48.3231 23.1058 48.3232 23.1057 48.3232 23.1056L48.3233 23.1055C48.3233 23.1054 48.3233 23.1054 49.2722 23.4745ZM50.4786 22.9155C50.5121 22.6697 50.5035 22.4037 50.4946 22.242C50.4897 22.1521 50.4833 22.0738 50.4781 22.0174C50.4755 21.989 50.4731 21.9657 50.4714 21.9488C50.4705 21.9403 50.4697 21.9333 50.4691 21.9282C50.4689 21.9256 50.4686 21.9234 50.4684 21.9216C50.4683 21.9207 50.4682 21.92 50.4681 21.9193C50.4681 21.919 50.468 21.9187 50.468 21.9184C50.468 21.9183 50.468 21.9182 50.468 21.9181C50.468 21.918 50.468 21.9179 50.468 21.9179C50.4679 21.9178 50.4679 21.9177 49.4566 22.0354C48.4452 22.1531 48.4452 22.153 48.4452 22.1529C48.4452 22.1529 48.4452 22.1528 48.4452 22.1528C48.4452 22.1527 48.4452 22.1526 48.4452 22.1525C48.4452 22.1524 48.4451 22.1522 48.4451 22.1521C48.4451 22.1519 48.4451 22.1518 48.4451 22.1518C48.4451 22.1517 48.4451 22.1522 48.4452 22.1529C48.4454 22.1545 48.4457 22.1575 48.4462 22.162C48.4472 22.1709 48.4486 22.1853 48.4503 22.2039C48.4538 22.2415 48.4581 22.2944 48.4614 22.354C48.4689 22.491 48.4669 22.5964 48.4609 22.6408L50.4786 22.9155Z" fill="#B0B0B0"/>
</g>
<mask id="mask7" mask-type="alpha" maskUnits="userSpaceOnUse" x="50" y="21" width="2" height="3">
<path d="M50.5892 22.5227C50.7867 22.1629 51.1289 21.3505 51.2343 21.3854C51.3397 21.4202 51.1686 22.5459 51.0897 22.9057C51.0235 23.2654 50.9843 23.3815 50.7867 23.4163C50.5892 23.4512 50.3259 23.4163 50.2864 23.3699C50.2469 23.3119 50.5892 22.5227 50.5892 22.5227Z" fill="white"/>
</mask>
<g mask="url(#mask7)">
<path d="M50.5898 22.5229L49.6973 22.033L49.6745 22.0744L49.6557 22.1178L50.5898 22.5229ZM51.0903 22.9059L50.0956 22.6875L50.0918 22.705L50.0885 22.7227L51.0903 22.9059ZM50.287 23.3701L49.4453 23.9431L49.4761 23.9883L49.5115 24.0299L50.287 23.3701ZM51.4823 23.0128C51.5455 22.898 51.6142 22.7581 51.6743 22.6346C51.7389 22.5017 51.798 22.379 51.8555 22.2663C51.9156 22.1474 51.9532 22.0803 51.9711 22.053C51.9843 22.0326 51.9599 22.0757 51.9008 22.1341C51.8728 22.1616 51.7929 22.2375 51.6641 22.3013C51.5317 22.3666 51.2517 22.4635 50.9152 22.3523L51.5546 20.4189C51.2049 20.3033 50.9096 20.4025 50.7611 20.476C50.6155 20.548 50.5173 20.6381 50.4695 20.6853C50.3707 20.7829 50.3006 20.8865 50.2638 20.943C50.1816 21.0695 50.1018 21.2215 50.0386 21.3462C49.8819 21.6557 49.7898 21.8644 49.6973 22.033L51.4823 23.0128ZM50.9152 22.3523C50.5073 22.2174 50.3537 21.8919 50.3197 21.8148C50.2719 21.7062 50.2586 21.6191 50.2554 21.5978C50.2475 21.546 50.2507 21.5255 50.2499 21.5655C50.2485 21.6317 50.2391 21.7481 50.2207 21.9031C50.184 22.2099 50.1264 22.5475 50.0956 22.6875L52.0846 23.1243C52.133 22.9045 52.2002 22.4994 52.2424 22.1446C52.2638 21.9689 52.2821 21.7749 52.2857 21.6089C52.2872 21.5329 52.2872 21.4159 52.2689 21.2945C52.2607 21.2384 52.2404 21.1232 52.1834 20.994C52.1406 20.8965 51.9756 20.5581 51.5546 20.4189L50.9152 22.3523ZM50.0885 22.7227C50.0725 22.8104 50.0632 22.8539 50.0571 22.8775C50.0502 22.9041 50.0581 22.8617 50.0945 22.795C50.139 22.7134 50.2196 22.6072 50.3488 22.5222C50.4685 22.4434 50.5736 22.4203 50.6105 22.4138L50.9641 24.4193C51.0995 24.3953 51.2838 24.3447 51.4686 24.2231C51.6626 24.0953 51.7944 23.9311 51.8815 23.7711C52.0184 23.521 52.0668 23.2258 52.0917 23.0892L50.0885 22.7227ZM50.6105 22.4138C50.6275 22.4108 50.6111 22.414 50.5856 22.4114C50.5748 22.4102 50.5903 22.4107 50.6263 22.4208C50.6435 22.4255 50.6871 22.4383 50.7438 22.4649C50.773 22.4786 50.8164 22.5009 50.8663 22.5346C50.9137 22.5666 50.988 22.6228 51.0623 22.7103L49.5115 24.0299C49.6565 24.2003 49.8201 24.2809 49.8796 24.3088C49.9591 24.346 50.0313 24.369 50.0818 24.383C50.1845 24.4115 50.2855 24.4272 50.3702 24.4363C50.5356 24.4539 50.7497 24.4571 50.9641 24.4193L50.6105 22.4138ZM51.1285 22.7972C51.2441 22.9667 51.2777 23.1273 51.2899 23.2019C51.3031 23.2859 51.3026 23.3532 51.3011 23.3893C51.2986 23.4608 51.2884 23.5113 51.2858 23.5221C51.2802 23.5496 51.2772 23.5555 51.2863 23.5263C51.3031 23.4753 51.3327 23.395 51.3708 23.2982C51.4075 23.2054 51.4457 23.1125 51.4757 23.0416C51.4905 23.0065 51.5027 22.9775 51.5114 22.9575C51.5154 22.9475 51.519 22.9398 51.521 22.9348C51.522 22.9323 51.5231 22.9305 51.5236 22.9293C51.5236 22.9287 51.5236 22.9284 51.5241 22.9281C51.5241 22.928 51.5241 22.928 51.5241 22.928C51.5241 22.928 51.5241 22.928 51.5241 22.928C51.5241 22.9281 51.5241 22.9281 50.5898 22.5229C49.6557 22.1178 49.6557 22.1178 49.6557 22.1178C49.6557 22.1178 49.6557 22.1179 49.6556 22.1179C49.6556 22.118 49.6556 22.1181 49.6555 22.1182C49.6555 22.1183 49.6554 22.1186 49.6553 22.1188C49.655 22.1194 49.6546 22.1201 49.6543 22.1211C49.6535 22.1229 49.6524 22.1255 49.6509 22.1288C49.6481 22.1353 49.6441 22.1446 49.6391 22.1563C49.6291 22.1798 49.615 22.2129 49.5983 22.2527C49.5651 22.3316 49.5204 22.4396 49.4764 22.5513C49.4339 22.6591 49.3853 22.787 49.3487 22.9003C49.3317 22.9532 49.3082 23.0302 49.2914 23.112C49.2835 23.1499 49.2698 23.2234 49.2664 23.3127C49.2647 23.3578 49.2645 23.4328 49.2789 23.5233C49.2919 23.6043 49.3275 23.7699 49.4453 23.9431L51.1285 22.7972Z" fill="#B0B0B0"/>
</g>
<mask id="mask8" mask-type="alpha" maskUnits="userSpaceOnUse" x="51" y="21" width="1" height="3">
<path d="M51.801 21.3972C51.9588 21.4785 51.9985 22.0819 51.8666 22.4533C51.7353 22.8247 51.4848 23.0684 51.3667 23.022C51.2349 22.9756 51.3138 22.3605 51.4059 22.0239C51.4981 21.699 51.801 21.3972 51.801 21.3972Z" fill="white"/>
</mask>
<g mask="url(#mask8)">
<path d="M51.8006 21.3971L52.2665 20.4916L51.6072 20.1526L51.0818 20.6758L51.8006 21.3971ZM51.3664 23.0218L51.7375 22.0738L51.7212 22.0674L51.7049 22.0616L51.3664 23.0218ZM51.4056 22.0238L50.4261 21.7459L50.4249 21.7504L50.4237 21.7548L51.4056 22.0238ZM51.3348 22.3025C51.1393 22.2019 51.037 22.0624 50.9958 21.998C50.951 21.9278 50.9326 21.8736 50.9276 21.8574C50.9169 21.8251 50.923 21.8299 50.926 21.8808C50.9291 21.9249 50.9281 21.9782 50.922 22.0294C50.9194 22.0541 50.9158 22.0748 50.9123 22.0907C50.909 22.1069 50.9064 22.114 50.9068 22.1129L52.826 22.7933C52.9497 22.4451 52.9777 22.0568 52.9583 21.7518C52.9486 21.5952 52.9232 21.4108 52.8652 21.2309C52.8356 21.1408 52.7893 21.0232 52.7129 20.9031C52.6396 20.7886 52.5017 20.6126 52.2665 20.4916L51.3348 22.3025ZM50.9068 22.1129C50.882 22.1829 50.8539 22.2136 50.8635 22.2033C50.8654 22.2011 50.909 22.1523 51.0029 22.1031C51.0701 22.0679 51.3649 21.9278 51.7375 22.0738L50.9948 23.9699C51.4265 24.1391 51.7976 23.9858 51.9488 23.9064C52.127 23.813 52.2634 23.6887 52.3591 23.585C52.5566 23.3716 52.719 23.0948 52.826 22.7933L50.9068 22.1129ZM51.7049 22.0616C52.0532 22.1844 52.2023 22.4488 52.2486 22.5478C52.299 22.6559 52.3102 22.7391 52.3123 22.7532C52.3174 22.7883 52.3123 22.7792 52.3174 22.7062C52.3276 22.5718 52.3586 22.399 52.3876 22.2927L50.4237 21.7548C50.3606 21.9851 50.3063 22.2881 50.2866 22.557C50.2771 22.6857 50.2712 22.86 50.2954 23.034C50.307 23.1175 50.333 23.2591 50.4042 23.4111C50.4709 23.5538 50.6464 23.8477 51.0278 23.9821L51.7049 22.0616ZM52.3851 22.3016C52.381 22.3163 52.3937 22.2776 52.4518 22.2003C52.4747 22.1699 52.4961 22.1445 52.5108 22.1279C52.518 22.1199 52.523 22.1146 52.5251 22.1127C52.5256 22.1118 52.5256 22.1118 52.5251 22.1126C52.5246 22.1131 52.5241 22.1138 52.523 22.1147C52.5225 22.1152 52.522 22.1157 52.5215 22.1163C52.521 22.1166 52.5205 22.1169 52.5205 22.1173C52.52 22.1174 52.52 22.1176 52.52 22.1178C52.52 22.1178 52.5195 22.118 52.5195 22.118C52.5195 22.1181 52.5195 22.1183 51.8006 21.3971C51.0818 20.6758 51.0818 20.6759 51.0818 20.6761C51.0818 20.6761 51.0813 20.6763 51.0813 20.6764C51.0813 20.6765 51.0808 20.6767 51.0808 20.677C51.0803 20.6774 51.0798 20.6778 51.0798 20.6782C51.0788 20.6791 51.0777 20.6801 51.0767 20.6811C51.0747 20.6832 51.0721 20.6857 51.0696 20.6884C51.064 20.6939 51.0579 20.7006 51.0502 20.7086C51.035 20.7244 51.0156 20.7453 50.9927 20.7707C50.9479 20.8208 50.8882 20.8912 50.8238 20.9768C50.7075 21.1316 50.5225 21.4062 50.4261 21.7459L52.3851 22.3016Z" fill="#B0B0B0"/>
</g>
<mask id="mask9" mask-type="alpha" maskUnits="userSpaceOnUse" x="51" y="23" width="2" height="3">
<path d="M51.7375 23.9513C51.9865 23.9795 52.3276 24.5149 52.4192 24.9563C52.5114 25.3884 52.1178 25.5669 51.8948 25.4729C51.6586 25.379 51.7635 25.0972 51.5405 24.6933C51.4489 24.5149 51.0421 24.2425 51.0818 24.158C51.0945 24.0828 51.4881 23.9325 51.7375 23.9513Z" fill="white"/>
</mask>
<g mask="url(#mask9)">
<path d="M51.7379 23.9514L51.8519 22.9397L51.8331 22.9375L51.8142 22.9361L51.7379 23.9514ZM52.4195 24.9564L51.4227 25.1637L51.4237 25.168L52.4195 24.9564ZM51.8952 25.473L52.2902 24.5346L52.2811 24.5307L52.2714 24.5269L51.8952 25.473ZM51.5408 24.6934L50.6356 25.1592L50.6424 25.1724L50.6496 25.1855L51.5408 24.6934ZM51.0821 24.158L52.0051 24.5877L52.0616 24.4657L52.0851 24.3331L51.0821 24.158ZM51.6233 24.9631C51.4909 24.9482 51.3968 24.9054 51.3474 24.8784C51.2965 24.8506 51.2675 24.8257 51.2588 24.8181C51.244 24.8048 51.2578 24.8146 51.2899 24.8622C51.3184 24.9057 51.3489 24.9614 51.3749 25.0215C51.4013 25.0825 51.4166 25.1324 51.4227 25.1637L53.4168 24.7491C53.341 24.3846 53.1755 24.0211 52.9862 23.7356C52.8899 23.5907 52.7662 23.4338 52.6145 23.2984C52.4832 23.1813 52.2215 22.9815 51.8519 22.9397L51.6233 24.9631ZM51.4237 25.168C51.412 25.1135 51.4054 25.0104 51.4502 24.8867C51.4945 24.7642 51.5729 24.6667 51.661 24.6001C51.8005 24.4946 52.0275 24.4239 52.2902 24.5346L51.5001 26.4113C51.9858 26.616 52.5213 26.503 52.8899 26.2237C53.3323 25.8888 53.5405 25.3311 53.4158 24.7447L51.4237 25.168ZM52.2714 24.5269C52.3376 24.5533 52.4139 24.5955 52.4883 24.6598C52.5626 24.7242 52.615 24.7938 52.6507 24.8546C52.6837 24.9117 52.7 24.9567 52.7051 24.9726C52.7097 24.9873 52.7102 24.9908 52.7046 24.9667C52.6832 24.8772 52.6257 24.5518 52.4323 24.2013L50.6496 25.1855C50.6791 25.2388 50.6806 25.2563 50.7219 25.4322C50.7376 25.4989 50.7808 25.6909 50.8925 25.8821C51.0312 26.119 51.243 26.3094 51.5189 26.419L52.2714 24.5269ZM52.4465 24.2276C52.3925 24.1227 52.3315 24.04 52.2872 23.9851C52.2408 23.9273 52.194 23.877 52.1558 23.8373C52.083 23.7622 52 23.6864 51.9568 23.6461C51.8936 23.5872 51.8896 23.5808 51.9013 23.5946C51.9048 23.5985 51.9583 23.6593 52.0067 23.7618C52.0326 23.8162 52.0733 23.9157 52.0896 24.0492C52.1075 24.1902 52.0998 24.3844 52.0051 24.5877L50.1589 23.7283C49.9593 24.1569 50.1171 24.5298 50.1666 24.6342C50.2302 24.7685 50.3095 24.8658 50.3469 24.9099C50.4266 25.0041 50.5226 25.0929 50.5677 25.1349C50.6326 25.1955 50.6663 25.2265 50.6943 25.2554C50.7355 25.2979 50.6862 25.2576 50.6356 25.1592L52.4465 24.2276ZM52.0851 24.3331C52.052 24.5216 51.9731 24.6554 51.9221 24.7277C51.8692 24.8033 51.8168 24.8547 51.7852 24.8832C51.7236 24.939 51.6727 24.9682 51.66 24.9754C51.6294 24.9928 51.6238 24.9921 51.6493 24.9834C51.6696 24.9764 51.6915 24.9709 51.7073 24.9681C51.7287 24.9645 51.7104 24.9704 51.661 24.9667L51.8142 22.9361C51.4955 22.9121 51.186 22.9901 50.9936 23.0555C50.8877 23.0915 50.7654 23.1413 50.6497 23.2074C50.5945 23.239 50.509 23.2921 50.4221 23.3704C50.3714 23.4161 50.1419 23.6221 50.0789 23.9829L52.0851 24.3331Z" fill="#B0B0B0"/>
</g>
<mask id="mask10" mask-type="alpha" maskUnits="userSpaceOnUse" x="30" y="17" width="25" height="15">
<path d="M32.6348 20.7637C32.6379 20.7619 32.641 20.7602 32.6442 20.7585C32.6688 20.745 32.6933 20.7317 32.7177 20.7183C34.8603 19.5495 36.5591 18.6227 38.5232 18.7243L38.5273 18.7245C40.1517 18.7997 41.5482 19.7973 41.9845 20.1401C39.6154 20.1623 36.6456 20.4138 34.0881 20.6371C33.9586 20.6484 33.8302 20.6596 33.7029 20.6707C33.3361 20.7028 32.9792 20.734 32.6348 20.7637ZM50.8369 20.5928C48.3439 20.4029 45.4727 20.1933 43.1787 20.1476C43.6038 19.8122 45.009 18.8003 46.6454 18.7245L46.6499 18.7243C48.5958 18.6228 50.3187 19.5338 52.4526 20.7162C52.144 20.6928 51.8254 20.6684 51.498 20.6434C51.2811 20.6268 51.0607 20.6099 50.8369 20.5928Z" stroke="#B0B0B0" stroke-width="3"/>
<path d="M53.3784 25.0415C53.0526 25.4602 52.6779 25.8987 52.2508 26.3369C50.2509 28.3896 47.1199 30.4297 42.5281 30.4297C37.0534 30.4297 33.7685 27.6585 31.9365 25.3147C32.3305 25.582 32.759 25.8579 33.2211 26.1316C35.4987 27.4807 38.6074 28.7845 42.5088 28.7845C46.4159 28.7845 49.5902 27.4187 51.8858 26.0259C52.433 25.6939 52.9309 25.3597 53.3784 25.0415Z" stroke="#B0B0B0" stroke-width="3"/>
</mask>
<g mask="url(#mask10)">
<path d="M36.9985 35.7716C36.6494 35.9597 35.9191 36.0538 35.2984 35.9433C34.7254 35.8414 34.533 35.7854 33.9405 35.4172C33.2989 35.0184 32.7817 34.1676 32.7817 34.1676C32.7817 34.1676 32.0487 33.1313 31.7472 32.4659L30.9992 30.8151C30.9047 30.6062 30.5843 29.5699 30.3259 28.893C30.054 28.1806 29.8309 27.3231 29.0384 26.9565C28.3719 26.6482 28.5033 26.7399 27.5536 26.4078C25.3448 25.6353 24.308 24.9699 23.9595 24.7249C23.611 24.4798 23.1309 23.9134 22.9937 23.3199C22.883 22.8413 23.0926 22.414 23.149 22.2092C23.1987 22.0284 23.5462 21.3966 23.9021 21.1102C24.2881 20.7994 24.6357 20.6284 24.9855 20.4492C25.6269 20.1207 26.8831 19.7971 26.9782 19.7604L30.7252 18.0076L47.2916 17.6384L48.1583 18.0054L50.0107 18.4521L53.5981 18.5212L57.1328 18.2965C57.1328 18.2965 58.9273 20.5129 59.4008 20.9766C59.8498 21.5307 60.0616 21.8529 60.1491 22.6274C60.143 23.1954 59.948 23.5401 59.8253 23.8029C59.8253 23.8029 59.4354 24.4924 58.5928 25.0064C58.2319 25.2267 57.7274 25.4215 56.837 25.9271C56.5443 26.0933 56.1772 26.5053 56.0153 26.7294C54.54 29.257 54.067 29.9872 53.8242 30.3234C53.6669 30.5413 52.2139 32.5348 51.4961 33.324C50.6791 34.222 49.4665 35.2393 49.4665 35.2393C49.4417 35.3297 48.14 36.2364 47.2311 36.2644C46.7765 36.2784 46.322 36.2077 46.0851 36.0604C45.4435 35.6618 45.2029 35.2757 44.1097 32.8633C44.0162 32.657 43.8158 32.0374 43.0692 31.7297C42.2595 31.3958 41.6118 31.5652 41.6118 31.5652C41.3004 31.6046 41.7649 33.2578 41.2833 33.5515C40.8018 33.8453 40.6694 33.9674 39.9909 34.7952C39.9389 34.8586 38.2727 34.4174 38.0133 34.8139C37.5278 35.4863 37.5278 35.4863 36.9986 35.7715L36.9985 35.7716Z" fill="url(#paint0_linear)"/>
</g>
<defs>
<linearGradient id="paint0_linear" x1="19.9966" y1="19.4667" x2="58.6616" y2="-3.24912" gradientUnits="userSpaceOnUse">
<stop stop-color="#362F1D"/>
<stop offset="0.0440107" stop-color="#4C4023"/>
<stop offset="0.0900167" stop-color="#3B3113"/>
<stop offset="0.129068" stop-color="#4C330A"/>
<stop offset="0.171043" stop-color="#604818"/>
<stop offset="0.217443" stop-color="#7D6131"/>
<stop offset="0.257919" stop-color="#BE995C"/>
<stop offset="0.291121" stop-color="#E8BF7D"/>
<stop offset="0.300607" stop-color="#EDC27E"/>
<stop offset="0.309061" stop-color="#EDC27D"/>
<stop offset="0.326115" stop-color="#ECBE73"/>
<stop offset="0.326215" stop-color="#E3BC77"/>
<stop offset="0.342976" stop-color="#D9AF66"/>
<stop offset="0.373254" stop-color="#AB8952"/>
<stop offset="0.406382" stop-color="#7A612F"/>
<stop offset="0.432309" stop-color="#6A5123"/>
<stop offset="0.480109" stop-color="#60471C"/>
<stop offset="0.521151" stop-color="#6B5022"/>
<stop offset="0.55799" stop-color="#926E3B"/>
<stop offset="0.601555" stop-color="#C4A262"/>
<stop offset="0.633881" stop-color="#E0C87E"/>
<stop offset="0.662733" stop-color="#A88D51"/>
<stop offset="0.689053" stop-color="#847044"/>
<stop offset="0.734956" stop-color="#5B502D"/>
<stop offset="0.862513" stop-color="#ACABA6"/>
<stop offset="0.870153" stop-color="#3E3633"/>
</linearGradient>
</defs>
</svg>
