<svg width="44" height="56" viewBox="0 0 44 56" fill="none" xmlns="http://www.w3.org/2000/svg">
<g clip-path="url(#clip0)">
<path d="M39.0746 2.17425C36.5308 0.689396 34.1027 0 31.6167 0C28.9572 0 26.7025 0.848481 24.9103 1.53788C23.6384 2.01515 22.5399 2.4394 21.6149 2.4394C20.6899 2.4394 19.5915 2.01515 18.3196 1.53788C16.5274 0.848481 14.3305 0 11.6132 0C9.12724 0 6.69907 0.689396 4.15531 2.17425C-2.84012 6.25759 0.570878 15.803 3.05686 22.803C3.23029 23.2273 3.34591 23.5985 3.46154 24.0227H3.2881V35.6364H18.5509V38.1288H7.85537V41.0455H18.5509V43.1136H10.457V46.0303H18.5509V48.0985H13.6945V51.015H18.5509V53.0834H17.1055V56H26.2979V53.0834H24.8525V51.015H29.7088V48.0985H24.8525V46.0303H32.9464V43.1136H24.8525V41.0455H35.548V38.1288H24.8525V35.6364H39.9418V24.0227H39.7684C39.884 23.6515 40.0575 23.2273 40.1731 22.803C42.7169 15.803 46.1279 6.20455 39.0746 2.17425ZM38.3808 22.2197C38.1496 22.803 37.9761 23.3864 37.7449 23.9697H5.60066C5.42721 23.3864 5.19593 22.803 4.96469 22.2197C2.65215 15.803 -0.469769 7 5.3116 3.65909C7.56631 2.38636 9.64758 1.75 11.7288 1.75C13.9836 1.75 15.9493 2.49242 17.6836 3.18182C19.0712 3.71212 20.4008 4.24242 21.7306 4.24242C23.0025 4.24242 24.3322 3.71212 25.7775 3.18182C27.5119 2.49242 29.4198 1.75 31.7323 1.75C33.8136 1.75 35.8949 2.38636 38.1496 3.65909C43.8153 7 40.6934 15.803 38.3808 22.2197Z" fill="#B0B0B0"/>
<mask id="mask0" mask-type="alpha" maskUnits="userSpaceOnUse" x="0" y="0" width="44" height="56">
<path d="M39.0746 2.17425C36.5308 0.689396 34.1027 0 31.6167 0C28.9572 0 26.7025 0.848481 24.9103 1.53788C23.6384 2.01515 22.5399 2.4394 21.6149 2.4394C20.6899 2.4394 19.5915 2.01515 18.3196 1.53788C16.5274 0.848481 14.3305 0 11.6132 0C9.12724 0 6.69907 0.689396 4.15531 2.17425C-2.84012 6.25759 0.570878 15.803 3.05686 22.803C3.23029 23.2273 3.34591 23.5985 3.46154 24.0227H3.2881V35.6364H18.5509V38.1288H7.85537V41.0455H18.5509V43.1136H10.457V46.0303H18.5509V48.0985H13.6945V51.015H18.5509V53.0834H17.1055V56H26.2979V53.0834H24.8525V51.015H29.7088V48.0985H24.8525V46.0303H32.9464V43.1136H24.8525V41.0455H35.548V38.1288H24.8525V35.6364H39.9418V24.0227H39.7684C39.884 23.6515 40.0575 23.2273 40.1731 22.803C42.7169 15.803 46.1279 6.20455 39.0746 2.17425ZM38.3808 22.2197C38.1496 22.803 37.9761 23.3864 37.7449 23.9697H5.60066C5.42721 23.3864 5.19593 22.803 4.96469 22.2197C2.65215 15.803 -0.469769 7 5.3116 3.65909C7.56631 2.38636 9.64758 1.75 11.7288 1.75C13.9836 1.75 15.9493 2.49242 17.6836 3.18182C19.0712 3.71212 20.4008 4.24242 21.7306 4.24242C23.0025 4.24242 24.3322 3.71212 25.7775 3.18182C27.5119 2.49242 29.4198 1.75 31.7323 1.75C33.8136 1.75 35.8949 2.38636 38.1496 3.65909C43.8153 7 40.6934 15.803 38.3808 22.2197Z" fill="#B0B0B0"/>
</mask>
<g mask="url(#mask0)">
<path d="M18.3208 60.737C17.5294 61.1086 15.853 61.269 14.4145 61.0129C13.0866 60.7767 12.6393 60.6525 11.2474 59.8669C9.7403 59.0163 8.48779 57.24 8.48779 57.24C8.48779 57.24 6.72496 55.0723 5.98281 53.6876L4.14174 50.2536C3.90887 49.8193 3.0971 47.6702 2.45346 46.2642C1.7761 44.7846 1.20102 43.0082 -0.65155 42.2168C-2.2096 41.5513 -1.90017 41.7461 -4.11266 41.0185C-9.25851 39.3262 -11.6952 37.9081 -12.5159 37.3875C-13.3366 36.8668 -14.4833 35.6783 -14.8417 34.4496C-15.1307 33.4589 -14.6779 32.5883 -14.5626 32.1693C-14.4608 31.7991 -13.7046 30.5139 -12.9047 29.9402C-12.037 29.318 -11.2481 28.9818 -10.4545 28.6287C-8.99959 27.9816 -6.1272 27.3728 -5.91058 27.3015L2.60129 23.8635H40.7581L42.7816 24.659L47.0829 25.6639L55.3557 25.9711L63.4874 25.6705C63.4874 25.6705 67.7811 30.3176 68.9052 31.2943C69.9783 32.4561 70.4895 33.1295 70.746 34.7285C70.7725 35.8981 70.3474 36.5991 70.0842 37.1348C70.0842 37.1348 69.234 38.5368 67.3285 39.5568C66.5119 39.994 65.3629 40.3721 63.3464 41.3724C62.6836 41.7013 61.8665 42.5329 61.5096 42.9871C58.2886 48.1251 57.2505 49.6073 56.715 50.2887C56.3678 50.7301 53.1605 54.7689 51.562 56.3613C49.7424 58.1737 47.0199 60.2131 47.0199 60.2131C46.9689 60.3984 44.0332 62.2057 41.9403 62.2215C40.8935 62.2296 39.841 62.0632 39.2845 61.7491C37.7774 60.8984 37.1954 60.0925 34.5046 55.0739C34.2745 54.6447 33.7685 53.3592 32.026 52.6913C30.136 51.9664 28.6553 52.2856 28.6553 52.2856C27.9404 52.3528 29.1282 55.7784 28.0392 56.3613C26.9502 56.9443 26.6537 57.1896 25.1485 58.8635C25.0332 58.9918 21.1614 58.0067 20.5918 58.8111C19.5205 60.1739 19.5205 60.1739 18.321 60.737H18.3208Z" fill="url(#paint0_linear)"/>
</g>
</g>
<defs>
<linearGradient id="paint0_linear" x1="-22.0228" y1="26.3761" x2="58.6093" y2="-28.6951" gradientUnits="userSpaceOnUse">
<stop stop-color="#362F1D"/>
<stop offset="0.0440107" stop-color="#4C4023"/>
<stop offset="0.0900167" stop-color="#3B3113"/>
<stop offset="0.129068" stop-color="#4C330A"/>
<stop offset="0.171043" stop-color="#604818"/>
<stop offset="0.217443" stop-color="#7D6131"/>
<stop offset="0.257919" stop-color="#BE995C"/>
<stop offset="0.291121" stop-color="#E8BF7D"/>
<stop offset="0.300607" stop-color="#EDC27E"/>
<stop offset="0.309061" stop-color="#EDC27D"/>
<stop offset="0.326115" stop-color="#ECBE73"/>
<stop offset="0.326215" stop-color="#E3BC77"/>
<stop offset="0.342976" stop-color="#D9AF66"/>
<stop offset="0.373254" stop-color="#AB8952"/>
<stop offset="0.406382" stop-color="#7A612F"/>
<stop offset="0.432309" stop-color="#6A5123"/>
<stop offset="0.480109" stop-color="#60471C"/>
<stop offset="0.521151" stop-color="#6B5022"/>
<stop offset="0.55799" stop-color="#926E3B"/>
<stop offset="0.601555" stop-color="#C4A262"/>
<stop offset="0.633881" stop-color="#E0C87E"/>
<stop offset="0.662733" stop-color="#A88D51"/>
<stop offset="0.689053" stop-color="#847044"/>
<stop offset="0.734956" stop-color="#5B502D"/>
<stop offset="0.862513" stop-color="#ACABA6"/>
<stop offset="0.870153" stop-color="#3E3633"/>
</linearGradient>
<clipPath id="clip0">
<rect width="43.2727" height="56" fill="white"/>
</clipPath>
</defs>
</svg>
