<svg width="44" height="56" viewBox="0 0 44 56" fill="none" xmlns="http://www.w3.org/2000/svg">
<mask id="mask0" mask-type="alpha" maskUnits="userSpaceOnUse" x="5" y="10" width="32" height="36">
<path d="M14 43.2725C13.0481 46.1726 10.0926 46.9296 9.1662 44.0214C8.42445 41.6959 8.70257 38.0073 8.98074 35.1606C9.16615 33.2361 9.30523 31.4318 9.16615 29.9483C9.07344 29.0261 8.51716 27.5427 7.86812 25.8988C6.06013 21.1276 3.51275 14.1512 8.56583 11.3847C10.4202 10.3824 11.6688 10.1819 13.4304 10.1819C15.3775 10.1819 17.781 11.4248 19.0791 11.8659C20.0062 12.1866 20.6168 12.5074 21.2658 12.5074C21.9149 12.5074 22.8219 11.7456 23.749 11.3847C25.0471 10.9036 26.9359 10.1819 28.883 10.1819C30.6446 10.1819 31.6986 10.3824 33.553 11.3847C38.6061 14.1512 36.3787 21.1677 34.5708 25.8988C33.9218 27.5828 33.4118 29.0261 33.2727 29.9483C33.1336 31.4318 33.2727 33.2361 33.4581 35.1606C33.7363 37.9671 33.9681 40.8941 33.2727 43.2195C32.5304 45.1641 31.4093 45.7126 30.4445 45.7575C29.1181 45.8191 27.8966 44.9468 27.1949 43.8195C27.1427 43.7355 27.0898 43.647 27.0365 43.5535C25.5238 40.9057 24.9989 37.7874 23.5537 35.1021C22.6307 33.387 21.7771 32.2337 21.1731 32.2337C20.1996 32.2337 17.5108 34.1983 15.9346 37.9271C15.317 39.388 14.6197 41.3845 14 43.2725ZM21.2658 31.0309C23.1202 31.0309 25.3855 34.6394 26.6677 38.8493C27.3885 41.2158 28.1589 42.5861 28.682 43.3223C29.0582 43.8516 29.6229 44.2519 30.2722 44.2386C30.8354 44.2271 31.5142 43.9899 31.9157 43.0591C32.5648 40.9341 32.4383 37.9671 32.1601 35.2808C31.9747 33.3162 31.7892 31.4719 31.9747 29.8681C32.0674 28.7856 32.6701 27.3021 33.3191 25.5379C34.988 21.1677 37.1415 14.7927 32.9692 12.5074C31.3467 11.6253 30.0237 11.3847 28.4938 11.3847C26.8249 11.3847 25.6129 11.946 24.4076 12.3871C23.3878 12.7479 22.193 13.7904 21.2658 13.7904C20.3386 13.7904 19.4404 13.1489 18.4205 12.788C17.7178 12.5405 16.2523 12.0022 14.8148 11.5778C12.9174 11.0175 10.9507 11.4421 9.21253 12.3871C5.04024 14.6724 7.54363 21.1276 9.21253 25.5379C9.86157 27.262 10.4179 28.7856 10.5569 29.8681C10.7423 31.4719 10.5569 33.3162 10.3715 35.2808C10.178 37.5573 9.86274 40.8959 10.1354 42.6361C10.2237 43.1998 10.4999 44.0595 11.0414 44.2391C11.9 44.5239 12.4268 43.7321 12.7163 42.8751C13.1505 41.5897 13.8663 39.5724 14.7292 37.5261C16.3981 33.5167 19.4115 31.0309 21.2658 31.0309Z" fill="white"/>
</mask>
<g mask="url(#mask0)">
<path d="M8.98082 35.1605L16.581 35.9031L16.5815 35.898L16.582 35.8928L8.98082 35.1605ZM9.16623 29.9482L16.7693 29.2354L16.7669 29.2099L16.7643 29.1843L9.16623 29.9482ZM7.86821 25.8987L0.727346 28.6047L0.74603 28.6539L0.765396 28.703L7.86821 25.8987ZM8.56592 11.3846L4.93471 4.66685L4.91671 4.67657L4.89877 4.6864L8.56592 11.3846ZM19.0792 11.8657L21.5757 4.64901L21.5558 4.64211L21.5358 4.63532L19.0792 11.8657ZM23.7491 11.3846L21.0951 4.22428L21.0371 4.24577L20.9795 4.2682L23.7491 11.3846ZM33.5531 11.3846L37.2203 4.6864L37.2023 4.67657L37.1843 4.66685L33.5531 11.3846ZM34.5708 25.8987L41.6963 28.645L41.7002 28.6348L41.7041 28.6247L34.5708 25.8987ZM33.2728 29.9482L25.7218 28.8094L25.6898 29.0217L25.6698 29.2354L33.2728 29.9482ZM33.4582 35.1605L25.8571 35.8928L25.8581 35.9032L25.8591 35.9136L33.4582 35.1605ZM33.2728 43.2194L40.4071 45.9428L40.508 45.6783L40.5891 45.4072L33.2728 43.2194ZM26.6678 38.8491L33.9729 36.6242L26.6678 38.8491ZM31.9158 43.059L38.9276 46.0838L39.0954 45.6948L39.2191 45.2896L31.9158 43.059ZM32.1602 35.2807L24.5576 35.9983L24.5609 36.0328L24.5645 36.0673L32.1602 35.2807ZM31.9748 29.868L39.5606 30.7451L39.5736 30.6326L39.5832 30.5197L31.9748 29.868ZM33.3192 25.5378L26.1853 22.8136L26.1686 22.8573L26.1524 22.9013L33.3192 25.5378ZM32.9693 12.5072L36.6378 5.8098L36.6272 5.80395L36.6166 5.7982L32.9693 12.5072ZM24.4077 12.387L26.9548 19.586L26.9934 19.5724L27.0318 19.5583L24.4077 12.387ZM18.4205 12.7879L20.9676 5.58886L20.963 5.58718L20.9583 5.58555L18.4205 12.7879ZM9.21261 25.5378L16.3593 22.8474L16.357 22.8413L16.3548 22.8352L9.21261 25.5378ZM10.557 29.868L18.1428 28.9909L18.1373 28.9429L18.1311 28.895L10.557 29.868ZM10.3716 35.2807L2.76901 34.5632L2.76568 34.5985L2.76267 34.6339L10.3716 35.2807ZM14.7293 37.526L21.7656 40.4931L21.7725 40.4769L21.7793 40.4606L14.7293 37.526ZM10.1355 42.636L2.59121 43.8182L10.1355 42.636ZM14.0001 43.2724L6.74454 40.891L14.0001 43.2724ZM28.6821 43.3222L34.9068 38.8987L28.6821 43.3222ZM30.2723 44.2385L30.4285 51.8733L30.2723 44.2385ZM27.0365 43.5534L20.406 47.3415L27.0365 43.5534ZM27.195 43.8193L20.7119 47.8545L27.195 43.8193ZM16.4415 41.7007C16.4435 41.7069 16.3174 41.1748 16.3273 39.8427C16.3361 38.6373 16.4455 37.2895 16.581 35.9031L1.38065 34.4179C1.23796 35.8781 1.0692 37.798 1.05493 39.7299C1.04159 41.5352 1.1473 44.0101 1.89102 46.3418L16.4415 41.7007ZM16.582 35.8928C16.7593 34.053 16.9862 31.5489 16.7693 29.2354L1.56323 30.661C1.6245 31.3145 1.57326 32.4188 1.37966 34.428L16.582 35.8928ZM16.7643 29.1843C16.6283 27.8312 16.2312 26.5577 15.9664 25.7675C15.6648 24.8676 15.2977 23.9218 14.971 23.0944L0.765396 28.703C1.08775 29.5195 1.32329 30.1373 1.4853 30.6207C1.56367 30.8546 1.60234 30.9911 1.61752 31.0504C1.63784 31.1298 1.59658 30.9944 1.5682 30.7121L16.7643 29.1843ZM15.0091 23.1928C14.5551 21.9948 14.1428 20.8851 13.8128 19.7949C13.4791 18.6922 13.305 17.847 13.2524 17.2351C13.1978 16.6002 13.3092 16.6116 13.1688 16.9654C12.9581 17.4963 12.5359 17.9171 12.2331 18.0828L4.89877 4.6864C-1.39128 8.13009 -2.32559 14.3444 -1.96407 18.5447C-1.62637 22.4683 -0.108149 26.3998 0.727346 28.6047L15.0091 23.1928ZM12.1972 18.1024C12.4399 17.9711 12.5867 17.9074 12.6605 17.8783C12.6971 17.8639 12.7189 17.8568 12.7283 17.8538C12.7374 17.851 12.741 17.8502 12.7415 17.8501C12.7421 17.85 12.7478 17.8486 12.762 17.8464C12.7767 17.8442 12.8056 17.8402 12.8537 17.8361C12.9556 17.8271 13.128 17.8181 13.4305 17.8181V2.54541C10.6436 2.54541 8.09995 2.9559 4.93471 4.66685L12.1972 18.1024ZM13.4305 17.8181C13.1405 17.8181 13.0363 17.7766 13.1867 17.8124C13.3218 17.8445 13.5471 17.9108 13.8895 18.0353C14.235 18.1609 14.5873 18.3035 15.0418 18.4886C15.4062 18.6371 16.0361 18.8969 16.6225 19.0962L21.5358 4.63532C21.5364 4.6355 21.4823 4.61677 21.3383 4.56016C21.196 4.50419 21.0332 4.43798 20.8036 4.34447C20.3816 4.17252 19.7679 3.92168 19.1069 3.68142C17.9326 3.25456 15.8009 2.54541 13.4305 2.54541V17.8181ZM16.5825 19.0825C16.6946 19.1212 16.8111 19.1647 17.0073 19.2393C17.1647 19.2991 17.477 19.4192 17.7928 19.5278C18.4269 19.746 19.6842 20.1436 21.2659 20.1436V4.87087C21.7417 4.87087 22.1277 4.93078 22.3876 4.98671C22.6305 5.03898 22.7775 5.09142 22.7608 5.0857C22.7569 5.08433 22.7329 5.07599 22.6741 5.05406C22.611 5.03053 22.5446 5.00525 22.4341 4.96325C22.2348 4.88748 21.9273 4.77062 21.5757 4.64901L16.5825 19.0825ZM21.2659 20.1436C22.8302 20.1436 24.0543 19.7067 24.6571 19.4633C25.3062 19.2011 25.8493 18.9025 26.1132 18.7558C26.5799 18.4964 26.464 18.5537 26.698 18.427C26.8004 18.3715 26.7139 18.4251 26.5188 18.501L20.9795 4.2682C20.64 4.40032 20.3388 4.53609 20.0857 4.65815C19.8326 4.78023 19.6078 4.8982 19.4245 4.99746C19.2436 5.09545 19.0788 5.18851 18.9613 5.2551C18.8242 5.33284 18.7622 5.36827 18.6932 5.40665C18.6328 5.44025 18.628 5.44178 18.6551 5.42814C18.6808 5.41516 18.7817 5.36481 18.9376 5.30188C19.0901 5.24028 19.3594 5.14035 19.7197 5.05289C20.0791 4.96566 20.61 4.87087 21.2659 4.87087V20.1436ZM26.4031 18.5449C27.1168 18.2804 27.5933 18.104 28.091 17.9676C28.5758 17.8347 28.82 17.8181 28.8831 17.8181V2.54541C25.3338 2.54541 22.152 3.83251 21.0951 4.22428L26.4031 18.5449ZM28.8831 17.8181C29.4806 17.8181 29.4966 17.8563 29.365 17.824C29.2369 17.7926 29.3362 17.7858 29.9218 18.1024L37.1843 4.66685C35.9156 3.98108 34.5607 3.37281 33.0016 2.99057C31.4391 2.6075 30.0472 2.54541 28.8831 2.54541V17.8181ZM29.8859 18.0828C29.6186 17.9365 29.2515 17.5704 29.0639 17.1263C28.9404 16.8341 29.0452 16.8603 29.0105 17.4766C28.9769 18.0747 28.831 18.9 28.5338 19.9573C28.2419 20.9956 27.8582 22.0722 27.4376 23.1728L41.7041 28.6247C42.6084 26.2583 44.0346 22.3307 44.2592 18.3332C44.4972 14.0966 43.3627 8.04929 37.2203 4.6864L29.8859 18.0828ZM27.4454 23.1524C26.8733 24.6367 26.0098 26.9003 25.7218 28.8094L40.8238 31.087C40.8034 31.2218 40.7904 31.2481 40.8227 31.1267C40.8519 31.017 40.9026 30.8443 40.9842 30.5966C41.1503 30.0918 41.3862 29.4495 41.6963 28.645L27.4454 23.1524ZM25.6698 29.2354C25.4529 31.5489 25.6798 34.053 25.8571 35.8928L41.0594 34.428C40.8658 32.4188 40.8146 31.3145 40.8758 30.661L25.6698 29.2354ZM25.8591 35.9136C26.1675 39.0252 26.1454 40.3999 25.9566 41.0316L40.5891 45.4072C41.7909 41.3879 41.3053 36.9089 41.0574 34.4073L25.8591 35.9136ZM26.1386 40.496C26.1386 40.496 26.1422 40.4866 26.1501 40.4687C26.1581 40.4508 26.1705 40.4241 26.1883 40.3895C26.2238 40.3205 26.2814 40.2188 26.3672 40.0943C26.5429 39.8397 26.8241 39.5089 27.2398 39.184C28.1487 38.4736 29.2003 38.1705 30.0902 38.1292L30.7989 53.3853C32.6537 53.2992 34.7483 52.6995 36.6445 51.2176C38.4863 49.7782 39.6687 47.877 40.4071 45.9428L26.1386 40.496ZM33.6782 39.7842C33.6775 39.783 33.6737 39.7769 33.6671 39.7653L20.406 47.3415C20.5061 47.5168 20.6081 47.6878 20.7119 47.8545L33.6782 39.7842ZM30.2782 31.4831C29.7325 30.469 29.0303 29.2781 28.1947 28.2391C27.7839 27.7283 27.1405 26.9997 26.2603 26.3377C25.4796 25.7505 23.6996 24.5972 21.1731 24.5972V39.87C18.9488 39.87 17.502 38.8608 17.0801 38.5435C16.5586 38.1513 16.2995 37.8182 16.293 37.8102C16.266 37.7766 16.4521 38.0198 16.8295 38.721L30.2782 31.4831ZM21.1731 24.5972C18.8544 24.5972 17.0557 25.5702 16.3039 26.0108C15.2758 26.6135 14.3225 27.3704 13.4743 28.1897C11.764 29.8419 10.1004 32.116 8.9009 34.9537L22.9684 40.9002C23.345 40.0092 23.814 39.4366 24.0855 39.1742C24.2283 39.0363 24.2281 39.0691 24.0273 39.1868C23.9266 39.2458 23.6866 39.3784 23.3155 39.5118C23.1247 39.5803 22.8584 39.6638 22.5263 39.7329C22.2012 39.8005 21.7386 39.87 21.1731 39.87V24.5972ZM8.9009 34.9537C8.15421 36.7201 7.37653 38.9656 6.74454 40.891L21.2556 45.6539C21.8631 43.8032 22.4799 42.0558 22.9684 40.9002L8.9009 34.9537ZM21.2659 38.6671C20.2445 38.6671 19.4311 38.4174 18.8915 38.1789C18.3641 37.9459 18.027 37.694 17.8722 37.5672C17.5932 37.3387 17.6108 37.2742 17.8402 37.6161C18.2832 38.2763 18.8846 39.5042 19.3628 41.0741L33.9729 36.6242C33.1688 33.9841 31.9964 31.3029 30.5225 29.1064C29.7936 28.02 28.817 26.7902 27.5516 25.7534C26.3643 24.7807 24.2009 23.3944 21.2659 23.3944V38.6671ZM19.3628 41.0741C20.2855 44.1038 21.389 46.2422 22.4574 47.7456L34.9068 38.8987C34.929 38.9298 34.4917 38.3276 33.9729 36.6242L19.3628 41.0741ZM30.4285 51.8733C31.702 51.8473 33.4173 51.5581 35.1315 50.5126C36.9129 49.4259 38.1705 47.8389 38.9276 46.0838L24.9041 40.0343C25.2597 39.2099 25.9771 38.2069 27.1779 37.4743C28.3115 36.7828 29.4059 36.6183 30.1161 36.6037L30.4285 51.8733ZM39.2191 45.2896C40.371 41.5185 40.0283 37.1246 39.756 34.4942L24.5645 36.0673C24.6889 37.2692 24.76 38.3622 24.7498 39.2966C24.7448 39.7557 24.7203 40.1232 24.6861 40.4056C24.6693 40.5439 24.6518 40.6487 24.6368 40.7232C24.6218 40.7982 24.6116 40.8312 24.6125 40.8284L39.2191 45.2896ZM39.7628 34.5632C39.5509 32.3182 39.4875 31.3772 39.5606 30.7451L24.3889 28.9909C24.0912 31.5664 24.3986 34.314 24.5576 35.9983L39.7628 34.5632ZM39.5832 30.5197C39.5612 30.7774 39.5244 30.9014 39.5412 30.8341C39.5559 30.7756 39.5944 30.6374 39.6794 30.3837C39.7635 30.1325 39.8705 29.8346 40.0119 29.4518C40.1173 29.1664 40.3436 28.5614 40.4859 28.1745L26.1524 22.9013C25.8883 23.6192 25.488 24.6655 25.1973 25.5334C24.916 26.3734 24.4938 27.7275 24.3663 29.2164L39.5832 30.5197ZM40.4531 28.2621C41.2642 26.1381 42.6038 22.546 42.9383 18.9474C43.2715 15.3627 42.726 9.1446 36.6378 5.8098L29.3008 19.2047C28.6157 18.8294 28.0764 18.1469 27.8416 17.5008C27.6786 17.0523 27.7842 16.9625 27.7311 17.534C27.6818 18.0647 27.5292 18.8167 27.2362 19.8013C26.9487 20.7671 26.5839 21.7698 26.1853 22.8136L40.4531 28.2621ZM36.6166 5.7982C33.7138 4.22016 31.1013 3.74823 28.4939 3.74823V19.021C28.8469 19.021 28.9467 19.0483 28.9492 19.0488C28.9577 19.0508 28.9805 19.0564 29.0274 19.0747C29.077 19.094 29.1724 19.1349 29.3221 19.2163L36.6166 5.7982ZM28.4939 3.74823C25.1412 3.74823 22.4073 4.98741 21.7837 5.21559L27.0318 19.5583C27.229 19.4861 27.4174 19.4148 27.569 19.3573C27.7324 19.2953 27.8533 19.2493 27.9748 19.2043C28.2113 19.1166 28.3454 19.0719 28.4385 19.0444C28.5789 19.003 28.5577 19.021 28.4939 19.021V3.74823ZM21.8606 5.1879C21.4178 5.3446 21.034 5.51346 20.7288 5.65911C20.422 5.80553 20.1509 5.9496 19.9365 6.06756C19.7241 6.18434 19.5272 6.29797 19.3873 6.37881C19.2265 6.47177 19.1401 6.52207 19.0507 6.57247C18.9694 6.61834 18.9431 6.63153 18.9498 6.62812C18.9557 6.62516 19.0341 6.5853 19.1676 6.5319C19.2987 6.47946 19.5387 6.39129 19.8663 6.31375C20.194 6.23617 20.6733 6.1539 21.2659 6.1539V21.4266C22.8584 21.4266 24.1306 20.996 24.8414 20.7116C25.5847 20.4141 26.2095 20.0693 26.5533 19.8754C26.735 19.7729 26.9211 19.6647 27.0325 19.6003C27.1649 19.5237 27.2398 19.481 27.2974 19.4494C27.448 19.3665 27.2866 19.4686 26.9548 19.586L21.8606 5.1879ZM21.2659 6.1539C21.9158 6.1539 22.4072 6.26646 22.6689 6.34109C22.8014 6.37892 22.8937 6.41246 22.935 6.42814C22.9757 6.44357 22.9852 6.44866 22.9482 6.43242C22.9088 6.41511 22.8514 6.38905 22.7442 6.33921C22.6601 6.30006 22.4922 6.2214 22.3447 6.15385C22.0322 6.01079 21.5432 5.79249 20.9676 5.58886L15.8735 19.987C15.8078 19.9638 15.8135 19.961 15.9854 20.0397C16.0281 20.0592 16.5204 20.2902 16.8077 20.4164C17.4525 20.6995 19.1317 21.4266 21.2659 21.4266V6.1539ZM20.9583 5.58555C20.3824 5.38262 18.6586 4.75033 16.9776 4.25393L12.6522 18.9013C13.8462 19.2539 15.0534 19.698 15.8828 19.9902L20.9583 5.58555ZM5.54411 5.6895C-0.773881 9.15015 -0.995163 15.6674 -0.552707 19.1327C-0.102467 22.6589 1.32942 26.2821 2.0705 28.2405L16.3548 22.8352C15.9205 21.6877 15.5264 20.6507 15.1938 19.613C14.8588 18.568 14.6703 17.772 14.597 17.1984C14.5172 16.5735 14.6356 16.6714 14.4749 17.1621C14.3801 17.4515 14.1981 17.8419 13.8768 18.238C13.5501 18.6407 13.1864 18.9172 12.8811 19.0844L5.54411 5.6895ZM2.06588 28.2282C2.39441 29.101 2.6368 29.7593 2.81296 30.3018C3.00599 30.8963 3.00486 31.012 2.9829 30.8411L18.1311 28.895C17.8526 26.7274 16.8882 24.2522 16.3593 22.8474L2.06588 28.2282ZM2.9712 30.7451C3.04427 31.3772 2.9809 32.3183 2.76901 34.5632L17.9742 35.9983C18.1331 34.314 18.4407 31.5664 18.1428 28.9909L2.9712 30.7451ZM2.76267 34.6339C2.67162 35.7048 2.52964 37.2693 2.45247 38.7664C2.38319 40.1101 2.31993 42.0871 2.59121 43.8182L17.6798 41.4538C17.6934 41.5405 17.6702 41.4205 17.6661 40.9985C17.6624 40.6145 17.6752 40.1299 17.705 39.5527C17.7656 38.3761 17.878 37.1331 17.9805 35.9276L2.76267 34.6339ZM19.951 45.3191C20.3532 44.1287 21.0024 42.3031 21.7656 40.4931L7.69298 34.5589C6.73044 36.8414 5.94807 39.0505 5.48169 40.4309L19.951 45.3191ZM21.7793 40.4606C22.2176 39.4076 22.7837 38.6912 23.1596 38.3377C23.3473 38.1612 23.385 38.1712 23.2166 38.2587C23.1258 38.3059 22.9313 38.398 22.635 38.4833C22.3436 38.5673 21.8753 38.6671 21.2659 38.6671V23.3944C17.4257 23.3944 14.393 25.6166 12.6965 27.212C10.685 29.1038 8.90991 31.635 7.67928 34.5915L21.7793 40.4606ZM2.59121 43.8182C2.71392 44.6013 2.97541 45.7219 3.53432 46.8863C3.95408 47.7607 5.35773 50.3992 8.63739 51.4869L13.4457 36.991C14.8784 37.4661 15.8228 38.288 16.3544 38.8774C16.8776 39.4575 17.1641 39.9877 17.3028 40.2768C17.5662 40.8254 17.6454 41.2344 17.6798 41.4538L2.59121 43.8182ZM16.9776 4.25393C12.5851 2.95681 8.50121 4.08188 5.56533 5.6779L12.8599 19.096C12.9763 19.0328 13.0662 18.9948 13.1257 18.9735C13.1849 18.9523 13.2039 18.9512 13.1828 18.9547C13.1603 18.9583 13.0962 18.9664 12.9974 18.9615C12.8964 18.9563 12.7774 18.9383 12.6522 18.9013L16.9776 4.25393ZM1.89017 46.3391C2.49757 48.2458 3.69287 50.3348 5.82802 51.8147C8.04461 53.3517 10.6455 53.7824 13.0231 53.3226C17.5034 52.4562 20.1982 48.8753 21.2556 45.6539L6.74454 40.891C6.84997 40.5697 7.59121 38.8171 10.1241 38.3274C11.5281 38.056 13.1569 38.3119 14.5291 39.2631C15.8197 40.1578 16.2982 41.2508 16.4424 41.7034L1.89017 46.3391ZM22.4574 47.7456C23.7075 49.5047 26.3797 51.9562 30.4285 51.8733L30.1161 36.6037C32.8664 36.5475 34.4091 38.1983 34.9068 38.8987L22.4574 47.7456ZM33.6671 39.7653C33.3143 39.1478 33.0113 38.3601 32.4856 36.8424C32.0352 35.5421 31.3475 33.4699 30.2782 31.4831L16.8295 38.721C17.2053 39.4195 17.5026 40.249 18.0541 41.8412C18.5303 43.2159 19.2461 45.3113 20.406 47.3415L33.6671 39.7653ZM8.63739 51.4869C10.1417 51.9858 11.8738 52.113 13.6318 51.6345C15.33 51.1717 16.5866 50.2721 17.4349 49.4414C18.9762 47.9322 19.6588 46.1843 19.951 45.3191L5.48169 40.4309C5.48444 40.4227 5.75884 39.4991 6.74973 38.5289C7.32282 37.9678 8.26876 37.2661 9.61765 36.8987C11.0264 36.5149 12.3706 36.6344 13.4457 36.991L8.63739 51.4869ZM30.0902 38.1292C31.2458 38.0755 32.1295 38.4422 32.6493 38.7689C33.151 39.0843 33.4695 39.4487 33.6782 39.7842L20.7119 47.8545C22.3608 50.5037 25.8604 53.6149 30.7989 53.3853L30.0902 38.1292Z" fill="#B0B0B0"/>
</g>
<mask id="mask1" mask-type="alpha" maskUnits="userSpaceOnUse" x="10" y="13" width="7" height="6">
<path d="M13.365 13.498L14.4949 15.2117L16.5665 16.1637L14.4949 17.1157L13.365 18.8294L12.235 17.1157L10.2012 16.1637L12.235 15.2117L13.365 13.498Z" fill="white"/>
</mask>
<g mask="url(#mask1)">
<path d="M12.3035 24.6048C12.138 24.7892 11.7459 24.9542 11.3833 24.9542C11.0488 24.9542 10.9332 24.9382 10.5469 24.7446C10.1286 24.5349 9.71037 23.9757 9.71037 23.9757C9.71037 23.9757 9.1436 23.3081 8.87383 22.8573L8.20463 21.7389C8.11997 21.5975 7.78295 20.8758 7.53543 20.4108C7.27493 19.9215 7.01937 19.3189 6.52209 19.1526C6.10382 19.0129 6.19103 19.0632 5.61148 18.943C4.2635 18.6634 3.58443 18.3089 3.35289 18.174C3.12134 18.0392 2.76735 17.6847 2.60004 17.2653C2.46515 16.9272 2.51638 16.5848 2.51638 16.4266C2.51638 16.2868 2.61308 15.7756 2.76733 15.5179C2.93463 15.2383 3.10193 15.0667 3.26924 14.8888C3.57595 14.5626 4.22573 14.1594 4.27305 14.1199L6.52209 12.1627L12.6286 10.7647L15.064 10.1356H16.8948L18.9024 9.71624L20.8359 9.08716C20.8359 9.08716 22.1743 10.4851 22.5089 10.7647C22.8435 11.1143 23.0108 11.3239 23.1781 11.8831C23.2618 12.3025 23.206 12.5821 23.1781 12.7918C23.1781 12.7918 23.0666 13.351 22.6762 13.8403C22.5089 14.05 22.258 14.2597 21.8397 14.749C21.7022 14.9099 21.5609 15.2616 21.5051 15.448C21.0709 17.504 20.9195 18.1041 20.8359 18.3837C20.7817 18.5649 20.2782 20.2244 19.9994 20.9001C19.6821 21.669 19.1629 22.5777 19.1629 22.5777C19.1629 22.6476 18.5771 23.4864 18.0754 23.6261C17.8245 23.6961 17.5607 23.7036 17.4062 23.6261C16.988 23.4165 16.7949 23.1635 15.8169 21.5292C15.7332 21.3894 15.5267 20.9591 15.064 20.8302C14.5621 20.6904 14.2275 20.9001 14.2275 20.9001C14.0602 20.97 13.7814 21.2496 13.5583 21.5292C13.3352 21.8088 13.2237 22.0185 12.9727 22.7175C12.9535 22.7711 12.8054 23.4398 12.7218 23.766C12.5545 24.3251 12.5545 24.3252 12.3036 24.6047L12.3035 24.6048Z" fill="url(#paint0_linear)"/>
</g>
<mask id="mask2" mask-type="alpha" maskUnits="userSpaceOnUse" x="16" y="18" width="4" height="4">
<path d="M17.7711 18.5757L18.3737 19.5277L19.5036 20.0355L18.3737 20.5432L17.7711 21.4635L17.1684 20.5432L16.0762 20.0355L17.1684 19.5277L17.7711 18.5757Z" fill="white"/>
</mask>
<g mask="url(#mask2)">
<path d="M14.5623 26.8259C14.3968 27.0104 14.0046 27.1755 13.6422 27.1755C13.3075 27.1755 13.1919 27.1595 12.8057 26.9658C12.3874 26.7561 11.9691 26.1969 11.9691 26.1969C11.9691 26.1969 11.4024 25.5293 11.1326 25.0785L10.4634 23.9601C10.3788 23.8186 10.0418 23.097 9.79424 22.632C9.53374 22.1427 9.27818 21.5401 8.78084 21.3738C8.36263 21.234 8.44983 21.2843 7.87023 21.1641C6.52231 20.8846 5.84324 20.5301 5.61165 20.3953C5.38012 20.2604 5.02614 19.906 4.85883 19.4866C4.72395 19.1485 4.77517 18.806 4.77517 18.6478C4.77518 18.508 4.87188 17.9969 5.02612 17.7391C5.19343 17.4595 5.36072 17.2879 5.52801 17.11C5.83474 16.7838 6.48454 16.3806 6.53183 16.3411L8.78084 14.3839L14.8874 12.986L17.3228 12.3569H19.1536L21.1612 11.9375L23.0947 11.3083C23.0947 11.3083 24.4331 12.7064 24.7677 12.986C25.1023 13.3354 25.2696 13.5451 25.4369 14.1043C25.5206 14.5237 25.4648 14.8033 25.4369 15.013C25.4369 15.013 25.3254 15.5722 24.935 16.0615C24.7677 16.2712 24.5167 16.4809 24.0985 16.9702C23.961 17.1311 23.8197 17.4828 23.7639 17.6692C23.3297 19.7253 23.1783 20.3254 23.0947 20.605C23.0405 20.7861 22.537 22.4456 22.2582 23.1213C21.9409 23.8902 21.4217 24.7989 21.4217 24.7989C21.4217 24.8688 20.8359 25.7076 20.3342 25.8474C20.0833 25.9173 19.8195 25.9248 19.665 25.8474C19.2467 25.6377 19.0537 25.3848 18.0757 23.7504C17.992 23.6106 17.7855 23.1803 17.3228 23.0514C16.8209 22.9117 16.4863 23.1213 16.4863 23.1213C16.319 23.1912 16.0402 23.4708 15.8171 23.7504C15.594 24.03 15.4825 24.2397 15.2315 24.9387C15.2123 24.9923 15.0642 25.661 14.9806 25.9872C14.8133 26.5464 14.8133 26.5464 14.5623 26.8259V26.8259Z" fill="url(#paint1_linear)"/>
</g>
<mask id="mask3" mask-type="alpha" maskUnits="userSpaceOnUse" x="10" y="20" width="5" height="4">
<path d="M12.5734 20.7334L13.176 21.6537L14.2683 22.1614L13.176 22.6692L12.5734 23.6212L11.9331 22.6692L10.8408 22.1614L11.9331 21.6537L12.5734 20.7334Z" fill="white"/>
</mask>
<g mask="url(#mask3)">
<path d="M10.4198 28.4129C10.2542 28.5973 9.86204 28.7624 9.49957 28.7624C9.16499 28.7624 9.04933 28.7463 8.66308 28.5527C8.24481 28.343 7.82654 27.7838 7.82654 27.7838C7.82654 27.7838 7.25982 27.1162 6.99006 26.6654L6.32086 25.547C6.23619 25.4055 5.89917 24.6839 5.65165 24.2189C5.39115 23.7296 5.13559 23.127 4.63828 22.9607C4.22003 22.8209 4.30723 22.8713 3.72767 22.751C2.37971 22.4714 1.70065 22.117 1.4691 21.9821C1.23755 21.8473 0.88356 21.4928 0.716253 21.0735C0.581364 20.7353 0.632594 20.3929 0.632594 20.2347C0.632599 20.0949 0.729295 19.5837 0.88354 19.3259C1.05084 19.0464 1.21815 18.8748 1.38545 18.6969C1.69216 18.3707 2.34194 17.9675 2.38926 17.928L4.63828 15.9708L10.7448 14.5728L13.1802 13.9437H15.011L17.0186 13.5243L18.9521 12.8953C18.9521 12.8953 20.2905 14.2932 20.6251 14.5728C20.9597 14.9223 21.1271 15.132 21.2943 15.6912C21.378 16.1106 21.3222 16.3902 21.2943 16.5999C21.2943 16.5999 21.1828 17.1591 20.7924 17.6484C20.6251 17.8581 20.3742 18.0678 19.9559 18.5571C19.8184 18.7179 19.6771 19.0697 19.6213 19.256C19.1871 21.3121 19.0358 21.9122 18.9521 22.1918C18.8979 22.373 18.3945 24.0325 18.1156 24.7082C17.7983 25.4771 17.2791 26.3858 17.2791 26.3858C17.2791 26.4557 16.6933 27.2945 16.1916 27.4342C15.9407 27.5042 15.6769 27.5117 15.5224 27.4342C15.1042 27.2246 14.9111 26.9716 13.9331 25.3373C13.8494 25.1975 13.643 24.7672 13.1802 24.6383C12.6783 24.4985 12.3437 24.7082 12.3437 24.7082C12.1764 24.7781 11.8976 25.0577 11.6745 25.3373C11.4514 25.6169 11.3399 25.8266 11.089 26.5256C11.0697 26.5791 10.9217 27.2479 10.838 27.5741C10.6707 28.1332 10.6707 28.1332 10.4198 28.4128V28.4129Z" fill="url(#paint2_linear)"/>
</g>
<mask id="mask4" mask-type="alpha" maskUnits="userSpaceOnUse" x="-1" y="-1" width="46" height="58">
<path d="M42.5091 0.763672H0.763672V55.2364H42.5091V0.763672Z" stroke="#B0B0B0" stroke-width="3"/>
</mask>
<g mask="url(#mask4)">
<path d="M31.3728 -13.6242C32.5076 -14.1348 34.744 -14.0161 36.558 -13.161C38.2324 -12.3716 38.7844 -12.0205 40.3958 -10.163C42.1406 -8.15182 43.305 -4.43316 43.305 -4.43316C43.305 -4.43316 45.0325 0.165224 45.6338 3.00422L47.1253 10.0469C47.314 10.9377 47.8021 15.2586 48.2687 18.1141C48.7597 21.1191 49.0377 24.6663 51.2502 26.6516C53.111 28.3213 52.7581 27.8698 55.4589 29.8244C61.74 34.3705 64.5497 37.704 65.4844 38.9092C66.4191 40.1144 67.6022 42.6811 67.7427 45.1247C67.8563 47.0948 67.0315 48.6469 66.7683 49.42C66.5362 50.103 65.2034 52.3718 64.0035 53.2672C62.7022 54.2386 61.5802 54.682 60.4475 55.157C58.3709 56.0265 54.4494 56.4633 54.1469 56.5448L39.6422 60.8008L6.54594 71.3664L-6.46989 50.5523L-15.6315 46.2331L-26.3746 43.5458L-37.095 42.0577C-37.095 42.0577 -41.4711 32.0703 -42.6812 29.9149C-43.7753 27.418 -44.2642 25.9989 -44.1728 22.8722C-43.8949 20.6259 -43.1516 19.3915 -42.6638 18.4328C-42.6638 18.4328 -41.177 15.964 -38.4109 14.4945C-37.2254 13.8647 -35.6214 13.4323 -32.7158 12.0286C-31.7605 11.567 -30.4692 10.1821 -29.8805 9.403C-24.2932 0.382521 -22.5392 -2.19231 -21.6563 -3.36092C-21.0843 -4.11802 -15.8088 -11.0379 -13.2914 -13.6812C-10.4266 -16.6891 -6.31935 -19.9035 -6.31935 -19.9035C-6.20328 -20.245 -1.87897 -22.961 0.863758 -22.4603C2.23569 -22.2099 3.56836 -21.6242 4.21261 -20.8815C5.95742 -18.8704 6.50358 -17.1792 8.68376 -6.88719C8.87024 -6.00692 9.18883 -3.41753 11.2905 -1.69619C13.5699 0.170872 15.5926 -0.0641651 15.5926 -0.0641651C16.5459 -0.0110054 18.4055 -0.719088 19.9862 -1.55881C21.5668 -2.39854 22.4732 -3.15989 24.8898 -5.98279C25.075 -6.1991 26.9265 -9.11686 27.8868 -10.5131C29.6526 -12.8503 29.6526 -12.8503 31.3726 -13.6241L31.3728 -13.6242Z" fill="url(#paint3_linear)"/>
</g>
<defs>
<linearGradient id="paint0_linear" x1="0.341468" y1="14.8189" x2="22.5151" y2="-1.31784" gradientUnits="userSpaceOnUse">
<stop stop-color="#362F1D"/>
<stop offset="0.0440107" stop-color="#4C4023"/>
<stop offset="0.0900167" stop-color="#3B3113"/>
<stop offset="0.129068" stop-color="#4C330A"/>
<stop offset="0.171043" stop-color="#604818"/>
<stop offset="0.217443" stop-color="#7D6131"/>
<stop offset="0.257919" stop-color="#BE995C"/>
<stop offset="0.291121" stop-color="#E8BF7D"/>
<stop offset="0.300607" stop-color="#EDC27E"/>
<stop offset="0.309061" stop-color="#EDC27D"/>
<stop offset="0.326215" stop-color="#E3BC77"/>
<stop offset="0.342976" stop-color="#D9AF66"/>
<stop offset="0.373254" stop-color="#AB8952"/>
<stop offset="0.406382" stop-color="#7A612F"/>
<stop offset="0.432309" stop-color="#6A5123"/>
<stop offset="0.480109" stop-color="#60471C"/>
<stop offset="0.521151" stop-color="#6B5022"/>
<stop offset="0.55799" stop-color="#926E3B"/>
<stop offset="0.601555" stop-color="#C4A262"/>
<stop offset="0.633881" stop-color="#E0C87E"/>
<stop offset="0.662733" stop-color="#A88D51"/>
<stop offset="0.689053" stop-color="#847044"/>
<stop offset="0.734956" stop-color="#5B502D"/>
<stop offset="0.862513" stop-color="#ACABA6"/>
<stop offset="0.870153" stop-color="#3E3633"/>
</linearGradient>
<linearGradient id="paint1_linear" x1="2.60026" y1="17.0401" x2="24.7739" y2="0.903371" gradientUnits="userSpaceOnUse">
<stop stop-color="#362F1D"/>
<stop offset="0.0440107" stop-color="#4C4023"/>
<stop offset="0.0900167" stop-color="#3B3113"/>
<stop offset="0.129068" stop-color="#4C330A"/>
<stop offset="0.171043" stop-color="#604818"/>
<stop offset="0.217443" stop-color="#7D6131"/>
<stop offset="0.257919" stop-color="#BE995C"/>
<stop offset="0.291121" stop-color="#E8BF7D"/>
<stop offset="0.300607" stop-color="#EDC27E"/>
<stop offset="0.309061" stop-color="#EDC27D"/>
<stop offset="0.326215" stop-color="#E3BC77"/>
<stop offset="0.342976" stop-color="#D9AF66"/>
<stop offset="0.373254" stop-color="#AB8952"/>
<stop offset="0.406382" stop-color="#7A612F"/>
<stop offset="0.432309" stop-color="#6A5123"/>
<stop offset="0.480109" stop-color="#60471C"/>
<stop offset="0.521151" stop-color="#6B5022"/>
<stop offset="0.55799" stop-color="#926E3B"/>
<stop offset="0.601555" stop-color="#C4A262"/>
<stop offset="0.633881" stop-color="#E0C87E"/>
<stop offset="0.662733" stop-color="#A88D51"/>
<stop offset="0.689053" stop-color="#847044"/>
<stop offset="0.734956" stop-color="#5B502D"/>
<stop offset="0.862513" stop-color="#ACABA6"/>
<stop offset="0.870153" stop-color="#3E3633"/>
</linearGradient>
<linearGradient id="paint2_linear" x1="-1.54232" y1="18.627" x2="20.6313" y2="2.49025" gradientUnits="userSpaceOnUse">
<stop stop-color="#362F1D"/>
<stop offset="0.0440107" stop-color="#4C4023"/>
<stop offset="0.0900167" stop-color="#3B3113"/>
<stop offset="0.129068" stop-color="#4C330A"/>
<stop offset="0.171043" stop-color="#604818"/>
<stop offset="0.217443" stop-color="#7D6131"/>
<stop offset="0.257919" stop-color="#BE995C"/>
<stop offset="0.291121" stop-color="#E8BF7D"/>
<stop offset="0.300607" stop-color="#EDC27E"/>
<stop offset="0.309061" stop-color="#EDC27D"/>
<stop offset="0.326215" stop-color="#E3BC77"/>
<stop offset="0.342976" stop-color="#D9AF66"/>
<stop offset="0.373254" stop-color="#AB8952"/>
<stop offset="0.406382" stop-color="#7A612F"/>
<stop offset="0.432309" stop-color="#6A5123"/>
<stop offset="0.480109" stop-color="#60471C"/>
<stop offset="0.521151" stop-color="#6B5022"/>
<stop offset="0.55799" stop-color="#926E3B"/>
<stop offset="0.601555" stop-color="#C4A262"/>
<stop offset="0.633881" stop-color="#E0C87E"/>
<stop offset="0.662733" stop-color="#A88D51"/>
<stop offset="0.689053" stop-color="#847044"/>
<stop offset="0.734956" stop-color="#5B502D"/>
<stop offset="0.862513" stop-color="#ACABA6"/>
<stop offset="0.870153" stop-color="#3E3633"/>
</linearGradient>
<linearGradient id="paint3_linear" x1="74.9825" y1="62.4054" x2="-58.7002" y2="102.518" gradientUnits="userSpaceOnUse">
<stop stop-color="#362F1D"/>
<stop offset="0.0440107" stop-color="#4C4023"/>
<stop offset="0.0900167" stop-color="#3B3113"/>
<stop offset="0.129068" stop-color="#4C330A"/>
<stop offset="0.171043" stop-color="#604818"/>
<stop offset="0.217443" stop-color="#7D6131"/>
<stop offset="0.257919" stop-color="#BE995C"/>
<stop offset="0.291121" stop-color="#E8BF7D"/>
<stop offset="0.300607" stop-color="#EDC27E"/>
<stop offset="0.309061" stop-color="#EDC27D"/>
<stop offset="0.326215" stop-color="#E3BC77"/>
<stop offset="0.342976" stop-color="#D9AF66"/>
<stop offset="0.373254" stop-color="#AB8952"/>
<stop offset="0.406382" stop-color="#7A612F"/>
<stop offset="0.432309" stop-color="#6A5123"/>
<stop offset="0.480109" stop-color="#60471C"/>
<stop offset="0.521151" stop-color="#6B5022"/>
<stop offset="0.55799" stop-color="#926E3B"/>
<stop offset="0.601555" stop-color="#C4A262"/>
<stop offset="0.633881" stop-color="#E0C87E"/>
<stop offset="0.662733" stop-color="#A88D51"/>
<stop offset="0.689053" stop-color="#847044"/>
<stop offset="0.734956" stop-color="#5B502D"/>
<stop offset="0.862513" stop-color="#ACABA6"/>
<stop offset="0.870153" stop-color="#3E3633"/>
</linearGradient>
</defs>
</svg>
