<svg width="348" height="450" viewBox="0 0 348 450" fill="none" xmlns="http://www.w3.org/2000/svg">
<g opacity="0.07">
<mask id="mask0" mask-type="alpha" maskUnits="userSpaceOnUse" x="0" y="0" width="348" height="415">
<path d="M93.9723 385.381C83.4958 418.545 50.1718 426.821 39.9673 393.574C31.6552 366.528 34.7722 323.627 37.8891 290.518C39.9671 268.135 41.5258 247.15 39.9671 229.896C38.9281 219.171 32.6941 201.917 25.4211 182.798C5.16059 127.306 -23.3856 46.1659 33.24 13.9896C54.0198 2.33161 68.0115 0 87.7525 0C109.572 0 136.506 14.456 151.052 19.5855C161.442 23.3161 168.284 27.0466 175.557 27.0466C182.83 27.0466 192.994 18.1865 203.384 13.9896C217.93 8.39377 239.097 0 260.916 0C280.657 0 292.468 2.33161 313.248 13.9896C369.873 46.1659 344.914 127.772 324.653 182.798C317.38 202.383 311.666 219.171 310.107 229.896C308.549 247.15 310.107 268.135 312.185 290.518C315.302 323.161 317.9 357.202 310.107 384.249C300.181 411.239 284.21 415.105 272.383 413.489C261.578 412.008 251.86 405.482 245.521 396.615C241.675 391.238 237.271 383.472 232.966 372.361C224.383 350.207 218.845 326.85 208.791 305.323C195.63 277.144 182.92 256.477 174.518 256.477C163.608 256.477 133.477 279.326 115.814 322.694C108.839 339.82 100.957 363.27 93.9723 385.381ZM175.557 242.487C196.337 242.487 221.723 284.456 236.091 333.42C245.073 364.027 254.743 380.307 260.525 388.05C263.702 392.304 268.224 395.45 273.51 395.98C280.223 396.654 289.665 394.979 294.901 382.383C302.174 357.669 300.756 323.161 297.639 291.917C295.561 269.067 293.483 247.617 295.561 228.964C296.6 216.373 303.354 199.119 310.627 178.601C329.329 127.772 353.462 53.6269 306.706 27.0466C288.524 16.7875 273.698 13.9896 256.555 13.9896C237.853 13.9896 224.271 20.5181 210.764 25.6477C199.335 29.8446 185.947 41.969 175.557 41.969C165.167 41.969 155.1 34.5078 143.672 30.3109C135.833 27.4444 119.524 21.2286 103.485 16.3019C82.1329 9.74291 59.9383 14.6725 40.4866 25.6477C-6.26838 52.2278 21.7846 127.306 40.4866 178.601C47.7595 198.653 53.9936 216.373 55.5523 228.964C57.63 247.617 55.5523 269.067 53.4741 291.917C51.2899 318.582 47.7227 357.776 50.8948 377.892C51.8802 384.14 54.8067 393.872 60.7583 396.029C70.5036 399.558 76.4834 390.285 79.6879 380.435C84.548 365.493 92.5966 341.932 102.307 318.031C121.009 271.399 154.777 242.487 175.557 242.487Z" fill="white"/>
</mask>
<g mask="url(#mask0)">
<path d="M37.8931 290.519L99.0349 296.266L99.0386 296.227L99.0423 296.187L37.8931 290.519ZM39.9711 229.897L101.134 224.381L101.116 224.183L101.097 223.985L39.9711 229.897ZM25.4251 182.799L-32.2674 203.83L-32.1261 204.217L-31.9796 204.602L25.4251 182.799ZM33.2439 13.9907L3.17838 -39.5161L3.03203 -39.434L2.88612 -39.3511L33.2439 13.9907ZM151.056 19.5865L171.823 -38.162L171.658 -38.2211L171.494 -38.2792L151.056 19.5865ZM203.388 13.9907L181.323 -43.2755L180.846 -43.0918L180.372 -42.9003L203.388 13.9907ZM313.252 13.9907L343.61 -39.3511L343.464 -39.434L343.317 -39.5161L313.252 13.9907ZM324.657 182.799L382.233 204.146L382.263 204.067L382.292 203.987L324.657 182.799ZM310.111 229.897L249.337 221.08L249.098 222.726L248.948 224.381L310.111 229.897ZM312.189 290.519L251.04 296.187L251.047 296.268L251.055 296.348L312.189 290.519ZM310.111 384.25L367.754 405.417L368.516 403.346L369.126 401.226L310.111 384.25ZM236.095 333.421L295.026 316.154L236.095 333.421ZM294.905 382.384L351.62 405.921L352.889 402.867L353.823 399.695L294.905 382.384ZM297.643 291.918L236.483 297.471L236.508 297.738L236.535 298.005L297.643 291.918ZM295.565 228.965L356.6 235.754L356.697 234.882L356.77 234.008L295.565 228.965ZM310.631 178.602L252.991 157.427L252.865 157.77L252.743 158.115L310.631 178.602ZM306.71 27.0476L337.079 -26.2878L336.993 -26.3369L336.906 -26.3858L306.71 27.0476ZM210.768 25.6487L231.952 83.2461L232.27 83.1291L232.586 83.0093L210.768 25.6487ZM143.676 30.3119L164.859 -27.2854L164.821 -27.2995L164.782 -27.3136L143.676 30.3119ZM40.4906 178.602L98.2276 157.693L98.21 157.645L98.1924 157.597L40.4906 178.602ZM55.5562 228.965L116.591 222.176L116.55 221.804L116.503 221.433L55.5562 228.965ZM53.4781 291.918L-7.68164 286.365L-7.70654 286.638L-7.72898 286.912L53.4781 291.918ZM102.311 318.032L159.212 341.115L159.264 340.986L159.316 340.858L102.311 318.032ZM260.529 388.051L211.312 424.752L260.529 388.051ZM273.514 395.981L279.652 334.925L273.514 395.981ZM232.97 372.362L175.701 394.517L232.97 372.362ZM208.795 305.324L153.145 331.274L208.795 305.324ZM79.6919 380.436L138.096 399.404L79.6919 380.436ZM272.387 413.49L264.057 474.285L272.387 413.49ZM245.525 396.616L195.557 432.291L245.525 396.616ZM98.6775 375.562C97.3187 371.141 95.9394 361.188 96.0565 344.757C96.1662 329.323 97.5033 312.534 99.0349 296.266L-23.2488 284.772C-24.8342 301.613 -26.6141 322.829 -26.7639 343.884C-26.9067 363.943 -25.6883 388.963 -18.7349 411.587L98.6775 375.562ZM99.0423 296.187C101.059 274.458 103.273 248.058 101.134 224.381L-21.192 235.414C-20.2137 246.245 -21.1174 261.814 -23.2561 284.851L99.0423 296.187ZM101.097 223.985C99.9074 211.705 96.3324 199.484 93.4805 190.653C90.3566 180.979 86.4832 170.6 82.8296 160.996L-31.9796 204.602C-28.36 214.117 -25.48 221.925 -23.409 228.339C-22.3934 231.484 -21.7394 233.786 -21.3467 235.378C-20.9161 237.125 -21.0298 237.102 -21.155 235.81L101.097 223.985ZM83.1174 161.768C72.4834 132.642 63.4992 106.227 61.7044 84.5838C60.861 74.4159 62.0765 69.5424 62.6517 68.0382C62.6902 67.9367 62.1879 68.1359 63.6016 67.3325L2.88612 -39.3511C-55.4083 -6.2266 -64.209 52.4027 -60.6999 94.7187C-57.3129 135.562 -41.8936 177.464 -32.2674 203.83L83.1174 161.768ZM63.3097 67.4973C69.9344 63.7807 73.2985 62.7515 75.1335 62.3146C77.1515 61.8335 80.2634 61.3647 87.7565 61.3647V-61.3626C59.401 -61.3626 34.6775 -57.1878 3.17838 -39.5161L63.3097 67.4973ZM87.7565 61.3647C86.7215 61.3647 87.3299 61.235 90.0918 61.9161C92.7251 62.5653 96.1244 63.6498 100.442 65.2784C104.783 66.916 109.12 68.7418 114.166 70.8752C118.468 72.6936 124.823 75.4088 130.618 77.4522L171.494 -38.2792C170.016 -38.8003 167.55 -39.8161 162.028 -42.1505C157.25 -44.1706 150.763 -46.9205 143.825 -49.5378C131.202 -54.3005 110.327 -61.3626 87.7565 -61.3626V61.3647ZM130.289 77.3352C131.899 77.9132 133.488 78.5322 135.692 79.4019C137.574 80.1444 140.693 81.3872 143.814 82.5016C150.052 84.7291 161.425 88.4113 175.561 88.4113V-34.316C179.074 -34.316 181.837 -33.8556 183.524 -33.4789C185.066 -33.1342 185.799 -32.8348 185.141 -33.0696C184.849 -33.1737 184.387 -33.3452 183.627 -33.6391C182.833 -33.9464 182.003 -34.2746 180.799 -34.7495C178.57 -35.6287 175.408 -36.875 171.823 -38.162L130.289 77.3352ZM175.561 88.4113C189.089 88.4113 199.782 84.4852 205.273 82.1837C211.169 79.7124 216.223 76.8438 219.011 75.2357C223.456 72.6715 223.194 72.7419 225.79 71.2831C227.322 70.4215 227.312 70.5148 226.404 70.8818L180.372 -42.9003C174.269 -40.4351 169.092 -37.6605 165.569 -35.6804C163.751 -34.6584 162.069 -33.6729 160.776 -32.9123C159.324 -32.0578 158.487 -31.5614 157.6 -31.0495C156.782 -30.5777 156.425 -30.3865 156.337 -30.3401C156.237 -30.2879 156.765 -30.5719 157.759 -30.9884C158.724 -31.3928 160.676 -32.1554 163.406 -32.8431C166.129 -33.529 170.311 -34.316 175.561 -34.316V88.4113ZM225.453 71.2569C233.263 68.2521 239.547 65.8201 246.239 63.9166C252.828 62.0425 257.617 61.3647 260.92 61.3647V-61.3626C225.736 -61.3626 193.82 -48.0831 181.323 -43.2755L225.453 71.2569ZM260.92 61.3647C268.416 61.3647 270.567 61.8421 271.541 62.09C272.572 62.3522 275.557 63.2174 283.186 67.4973L343.317 -39.5161C330.166 -46.8943 316.856 -53.0237 301.851 -56.8417C286.79 -60.6741 273.165 -61.3626 260.92 -61.3626V61.3647ZM282.894 67.3325C284.601 68.3024 284.572 68.5528 284.886 69.3243C285.691 71.3027 287.008 76.4724 286.465 86.5123C285.319 107.69 277.136 134.142 267.022 161.611L382.292 203.987C392.439 176.43 406.867 134.566 409.109 93.14C411.418 50.4972 400.764 -6.8746 343.61 -39.3511L282.894 67.3325ZM267.081 161.452C260.38 179.498 252.01 202.682 249.337 221.08L370.886 238.715C370.863 238.868 370.981 238.057 371.51 235.994C372.016 234.022 372.755 231.452 373.784 228.207C375.866 221.644 378.706 213.644 382.233 204.146L267.081 161.452ZM248.948 224.381C246.81 248.058 249.023 274.458 251.04 296.187L373.338 284.851C371.2 261.814 370.296 246.245 371.275 235.414L248.948 224.381ZM251.055 296.348C254.399 331.361 255.098 353.385 251.097 367.273L369.126 401.226C380.71 361.021 376.214 314.963 373.323 284.691L251.055 296.348ZM252.469 363.082C250.809 367.595 251.6 362.377 259.714 357.374C268.045 352.238 276.341 352.093 280.717 352.691L264.057 474.285C280.26 476.502 302.456 475.23 324.21 461.82C345.748 448.541 359.487 427.894 367.754 405.417L252.469 363.082ZM295.492 360.943C295.017 360.278 292.939 357.172 290.24 350.207L175.701 394.517C181.613 409.775 188.341 422.199 195.557 432.291L295.492 360.943ZM264.445 279.373C257.379 264.245 249.318 248.643 240.766 235.99C236.612 229.844 230.769 222.013 223.219 215.051C217.594 209.864 200.505 195.114 174.522 195.114V317.841C162.918 317.841 154.165 314.304 149.229 311.704C144.302 309.109 141.204 306.424 139.923 305.243C137.53 303.037 137.262 302.134 138.981 304.677C142.175 309.403 147.05 318.224 153.145 331.274L264.445 279.373ZM174.522 195.114C154.476 195.114 138.566 203.888 131.294 208.313C121.686 214.158 112.533 221.655 104.204 230.007C87.4183 246.837 70.8838 270.23 58.9363 299.565L172.7 345.826C178.415 331.793 185.778 322.077 191.201 316.64C193.976 313.858 195.505 312.933 195.168 313.138C194.998 313.242 193.615 314.083 191.065 315.034C189.014 315.799 183.063 317.841 174.522 317.841V195.114ZM58.9363 299.565C50.9794 319.102 42.4874 344.517 35.413 366.91L152.539 403.854C159.435 382.026 166.707 360.539 172.7 345.826L58.9363 299.565ZM175.561 303.852C167.677 303.852 161.611 301.849 157.922 300.158C154.342 298.515 152.386 296.901 151.964 296.542C151.363 296.031 153.185 297.533 156.648 302.89C163.424 313.372 171.201 330.364 177.165 350.687L295.026 316.154C286.621 287.514 274.52 259.039 259.817 236.296C252.54 225.04 243.221 212.99 231.566 203.079C220.638 193.786 201.4 181.124 175.561 181.124V303.852ZM177.165 350.687C187.831 387.035 200.436 410.188 211.312 424.752L309.746 351.35C309.057 350.427 302.324 341.022 295.026 316.154L177.165 350.687ZM267.376 457.037C278.09 458.113 294.662 457.745 312.038 449.138C330.679 439.905 343.986 424.286 351.62 405.921L238.19 358.848C240.588 353.078 246.556 344.595 257.489 339.18C267.157 334.391 275.651 334.524 279.652 334.925L267.376 457.037ZM353.823 399.695C364.86 362.187 361.825 316.631 358.752 285.831L236.535 298.005C239.696 329.693 239.496 353.152 235.987 365.074L353.823 399.695ZM358.803 286.365C356.528 261.348 355.36 246.885 356.6 235.754L234.531 222.176C231.615 248.35 234.603 276.789 236.483 297.471L358.803 286.365ZM356.77 234.008C356.683 235.057 356.773 233.136 359.209 225.587C361.58 218.241 364.427 210.634 368.519 199.089L252.743 158.115C249.562 167.088 245.396 178.368 242.312 187.925C239.293 197.281 235.487 210.282 234.361 223.922L356.77 234.008ZM368.271 199.777C377.457 174.809 391.043 136.513 394.384 99.2007C397.653 62.7044 392.245 5.07429 337.079 -26.2878L276.341 80.3833C274.001 79.0525 272.141 76.285 271.71 75.0565C271.696 75.0152 272.031 75.9745 272.225 78.3297C272.42 80.6868 272.435 83.9592 272.049 88.2624C270.338 107.375 262.507 131.566 252.991 157.427L368.271 199.777ZM336.906 -26.3858C308.262 -42.5473 282.752 -47.3729 256.559 -47.3729V75.3543C261.684 75.3543 264.56 75.7675 266.676 76.2838C268.714 76.7812 271.739 77.7864 276.515 80.4811L336.906 -26.3858ZM256.559 -47.3729C223.817 -47.3729 197.589 -34.9926 188.95 -31.7118L232.586 83.0093C234.658 82.2222 236.657 81.4367 238.357 80.7678C240.153 80.0605 241.603 79.4882 243.063 78.9265C245.931 77.8232 247.972 77.0987 249.715 76.5648C252.821 75.6133 254.715 75.3543 256.559 75.3543V-47.3729ZM189.585 -31.9486C181.901 -29.1272 175.423 -25.584 171.441 -23.3107C169.3 -22.0885 167.281 -20.8806 165.725 -19.9473C164 -18.9117 162.878 -18.2341 161.733 -17.5644C159.278 -16.1272 159.187 -16.2051 160.268 -16.6543C161.065 -16.9852 166.792 -19.3937 175.561 -19.3937V103.334C189.525 103.334 200.821 99.4097 207.408 96.6741C214.279 93.8207 220.197 90.449 223.816 88.3307C229.568 84.9639 228.944 85.2073 232.373 83.2498C234.44 82.0692 233.921 82.5228 231.952 83.2461L189.585 -31.9486ZM175.561 -19.3937C180.331 -19.3937 183.766 -18.536 185.253 -18.0955C186.605 -17.6953 186.956 -17.4487 185.492 -18.1159C184.817 -18.4236 183.992 -18.815 182.756 -19.4115C181.708 -19.9172 179.972 -20.7616 178.399 -21.5095C175.113 -23.0708 170.356 -25.2669 164.859 -27.2854L122.492 87.9093C122.71 87.9891 123.496 88.2996 125.638 89.3174C126.719 89.8317 131.464 92.1512 134.523 93.5454C141.154 96.5669 156.423 103.334 175.561 103.334V-19.3937ZM164.782 -27.3136C157.985 -29.7994 139.563 -36.8138 121.535 -42.3517L85.4433 74.9575C99.4922 79.273 113.689 84.6902 122.569 87.9376L164.782 -27.3136ZM10.1217 -27.6868C-46.8029 4.67485 -49.3936 64.7012 -45.0088 100.344C-40.4743 137.203 -25.868 175.863 -17.2113 199.607L98.1924 157.597C88.147 130.045 79.3758 105.519 76.8972 85.3705C76.3457 80.8873 76.243 77.5008 76.3568 75.0815C76.4706 72.6584 76.7756 71.7768 76.706 71.9973C76.1435 73.781 73.8688 77.2734 70.8596 78.9842L10.1217 -27.6868ZM-17.2462 199.511C-13.5797 209.62 -10.6477 217.86 -8.44831 224.89C-7.37402 228.324 -6.60768 231.052 -6.08408 233.19C-5.82738 234.238 -5.65375 235.045 -5.53985 235.634C-5.42476 236.23 -5.39037 236.504 -5.39124 236.497L116.503 221.433C113.902 200.412 104.604 175.274 98.2276 157.693L-17.2462 199.511ZM-5.47864 235.754C-4.23857 246.885 -5.40654 261.348 -7.68164 286.365L114.638 297.471C116.519 276.789 119.507 248.35 116.591 222.176L-5.47864 235.754ZM-7.72898 286.912C-8.77793 299.718 -10.3279 317.447 -11.1582 334.354C-11.9263 349.995 -12.437 370.497 -9.76461 387.444L111.562 368.342C111.062 365.173 110.749 356.02 111.518 340.369C112.224 325.984 113.55 310.783 114.685 296.924L-7.72898 286.912ZM138.096 399.404C142.715 385.203 150.259 363.151 159.212 341.115L45.4098 294.949C34.9418 320.714 26.3888 345.785 21.2875 361.467L138.096 399.404ZM159.316 340.858C165.673 325.007 174.152 313.422 181.07 306.669C184.533 303.288 186.756 301.946 187.136 301.741C188.059 301.243 183.894 303.852 175.561 303.852V181.124C140.875 181.124 112.382 202.149 95.2438 218.877C75.4074 238.239 57.6512 264.425 45.3062 295.206L159.316 340.858ZM-9.76461 387.444C-8.71709 394.087 -6.51384 403.921 -1.85362 414.075C1.64274 421.692 12.9667 443.987 39.832 453.72L81.6927 338.34C92.757 342.348 99.7653 348.905 103.472 353.225C107.14 357.5 109.01 361.217 109.79 362.917C111.253 366.103 111.5 367.947 111.562 368.342L-9.76461 387.444ZM121.535 -42.3517C79.4421 -55.2819 39.6027 -44.3211 10.2947 -27.7848L70.6865 79.082C80.2818 73.6681 84.8316 74.7698 85.4433 74.9575L121.535 -42.3517ZM-18.7414 411.567C-13.3248 429.215 -2.84464 447.751 15.4742 460.866C34.5247 474.506 57.1767 478.658 78.2626 474.681C118.15 467.158 142.837 434.566 152.539 403.854L35.413 366.91C34.6391 369.36 37.425 357.489 55.4809 354.083C65.6507 352.165 77.4033 354.227 87.0081 361.103C95.8812 367.455 98.3696 374.559 98.6837 375.583L-18.7414 411.567ZM211.312 424.752C221.992 439.054 240.783 454.37 267.376 457.037L279.652 334.925C295.673 336.533 305.42 345.558 309.746 351.35L211.312 424.752ZM290.24 350.207C286.705 341.085 283.933 332.096 279.779 319.46C275.952 307.815 271.116 293.657 264.445 279.373L153.145 331.274C156.528 338.518 159.488 346.802 163.089 357.756C166.364 367.719 170.652 381.486 175.701 394.517L290.24 350.207ZM39.832 453.72C52.8087 458.42 67.8521 459.844 83.1772 455.765C97.9439 451.838 108.806 443.926 116.085 436.661C129.354 423.414 135.376 407.765 138.096 399.404L21.2875 361.467C21.2978 361.436 21.6037 360.465 22.4589 358.848C23.2299 357.391 25.2635 353.845 29.2745 349.84C33.4402 345.681 40.7796 340.042 51.5841 337.168C62.9473 334.146 73.5888 335.404 81.6927 338.34L39.832 453.72ZM280.717 352.691C288.904 353.811 293.404 358.021 295.492 360.943L195.557 432.291C210.325 452.942 234.261 470.21 264.057 474.285L280.717 352.691Z" fill="#939393"/>
</g>
<mask id="mask1" mask-type="alpha" maskUnits="userSpaceOnUse" x="110" y="73" width="124" height="124">
<path d="M233.363 112.909H194.059V73.636H149.843V112.909H110.539V157.091H149.843V196.363H194.059V157.091H233.363V112.909Z" fill="#D9D9D9"/>
</mask>
<g mask="url(#mask1)">
<path d="M86.2877 341.022C82.097 344.177 73.8637 345.723 67.2022 343.824C61.0532 342.072 59.0283 341.116 53.1352 334.87C46.7545 328.107 42.5495 313.722 42.5495 313.722C42.5495 313.722 36.29 296.196 34.139 284.952L28.8031 257.058C28.1282 253.53 26.4271 236.027 24.7726 224.591C23.0313 212.557 22.0869 198.076 13.9826 191.847C7.16666 186.607 8.45598 188.161 -1.44622 182.504C-24.4769 169.347 -34.7496 158.061 -38.1652 153.907C-41.581 149.754 -45.8798 140.171 -46.3437 130.148C-46.7174 122.068 -43.6444 114.87 -42.6594 111.419C-41.7889 108.37 -36.8303 97.7307 -32.3911 92.9174C-27.5761 87.6965 -23.4336 84.8313 -19.2516 81.8273C-11.5844 76.3205 2.86592 70.9324 3.98165 70.318L57.495 39.4174L178.416 40.9154L227.087 39.9525L260.731 49.5415L300.235 50.9107L339.683 47.3193C339.683 47.3193 355.577 84.8153 359.985 92.665C363.958 102.039 365.727 107.488 365.321 120.558C364.247 130.142 361.482 135.948 359.664 140.374C359.664 140.374 354.133 151.984 343.914 160.61C339.534 164.307 333.617 167.565 322.885 176.044C319.356 178.832 314.57 185.762 312.385 189.535C291.606 232.097 285.089 244.391 281.812 250.05C279.688 253.716 260.105 287.268 250.775 300.543C240.157 315.648 224.96 332.744 224.96 332.744C224.524 334.269 208.538 349.492 198.449 349.913C193.402 350.123 188.507 348.905 186.151 346.408C179.77 339.645 177.796 333.118 169.997 292.354C169.33 288.868 168.214 278.403 160.513 273.169C152.16 267.492 144.705 270.312 144.705 270.312C141.196 270.96 134.331 275.596 128.492 280.525C122.652 285.454 119.297 289.443 110.334 303.371C109.647 304.439 102.763 318.246 99.1953 324.921C92.6402 336.239 92.6398 336.239 86.2886 341.021L86.2877 341.022Z" fill="#939393"/>
</g>
</g>
</svg>
